G75*
G70*
%OFA0B0*%
%FSLAX24Y24*%
%IPPOS*%
%LPD*%
%AMOC8*
5,1,8,0,0,1.08239X$1,22.5*
%
%ADD10C,0.0000*%
D10*
X000315Y000280D02*
X000315Y016876D01*
X019895Y016876D01*
X019895Y000280D01*
X000315Y000280D01*
X000625Y001300D02*
X000627Y001349D01*
X000633Y001397D01*
X000643Y001445D01*
X000657Y001492D01*
X000674Y001538D01*
X000695Y001582D01*
X000720Y001624D01*
X000748Y001664D01*
X000780Y001702D01*
X000814Y001737D01*
X000851Y001769D01*
X000890Y001798D01*
X000932Y001824D01*
X000976Y001846D01*
X001021Y001864D01*
X001068Y001879D01*
X001115Y001890D01*
X001164Y001897D01*
X001213Y001900D01*
X001262Y001899D01*
X001310Y001894D01*
X001359Y001885D01*
X001406Y001872D01*
X001452Y001855D01*
X001496Y001835D01*
X001539Y001811D01*
X001580Y001784D01*
X001618Y001753D01*
X001654Y001720D01*
X001686Y001684D01*
X001716Y001645D01*
X001743Y001604D01*
X001766Y001560D01*
X001785Y001515D01*
X001801Y001469D01*
X001813Y001422D01*
X001821Y001373D01*
X001825Y001324D01*
X001825Y001276D01*
X001821Y001227D01*
X001813Y001178D01*
X001801Y001131D01*
X001785Y001085D01*
X001766Y001040D01*
X001743Y000996D01*
X001716Y000955D01*
X001686Y000916D01*
X001654Y000880D01*
X001618Y000847D01*
X001580Y000816D01*
X001539Y000789D01*
X001496Y000765D01*
X001452Y000745D01*
X001406Y000728D01*
X001359Y000715D01*
X001310Y000706D01*
X001262Y000701D01*
X001213Y000700D01*
X001164Y000703D01*
X001115Y000710D01*
X001068Y000721D01*
X001021Y000736D01*
X000976Y000754D01*
X000932Y000776D01*
X000890Y000802D01*
X000851Y000831D01*
X000814Y000863D01*
X000780Y000898D01*
X000748Y000936D01*
X000720Y000976D01*
X000695Y001018D01*
X000674Y001062D01*
X000657Y001108D01*
X000643Y001155D01*
X000633Y001203D01*
X000627Y001251D01*
X000625Y001300D01*
X016035Y001300D02*
X016037Y001349D01*
X016043Y001397D01*
X016053Y001445D01*
X016067Y001492D01*
X016084Y001538D01*
X016105Y001582D01*
X016130Y001624D01*
X016158Y001664D01*
X016190Y001702D01*
X016224Y001737D01*
X016261Y001769D01*
X016300Y001798D01*
X016342Y001824D01*
X016386Y001846D01*
X016431Y001864D01*
X016478Y001879D01*
X016525Y001890D01*
X016574Y001897D01*
X016623Y001900D01*
X016672Y001899D01*
X016720Y001894D01*
X016769Y001885D01*
X016816Y001872D01*
X016862Y001855D01*
X016906Y001835D01*
X016949Y001811D01*
X016990Y001784D01*
X017028Y001753D01*
X017064Y001720D01*
X017096Y001684D01*
X017126Y001645D01*
X017153Y001604D01*
X017176Y001560D01*
X017195Y001515D01*
X017211Y001469D01*
X017223Y001422D01*
X017231Y001373D01*
X017235Y001324D01*
X017235Y001276D01*
X017231Y001227D01*
X017223Y001178D01*
X017211Y001131D01*
X017195Y001085D01*
X017176Y001040D01*
X017153Y000996D01*
X017126Y000955D01*
X017096Y000916D01*
X017064Y000880D01*
X017028Y000847D01*
X016990Y000816D01*
X016949Y000789D01*
X016906Y000765D01*
X016862Y000745D01*
X016816Y000728D01*
X016769Y000715D01*
X016720Y000706D01*
X016672Y000701D01*
X016623Y000700D01*
X016574Y000703D01*
X016525Y000710D01*
X016478Y000721D01*
X016431Y000736D01*
X016386Y000754D01*
X016342Y000776D01*
X016300Y000802D01*
X016261Y000831D01*
X016224Y000863D01*
X016190Y000898D01*
X016158Y000936D01*
X016130Y000976D01*
X016105Y001018D01*
X016084Y001062D01*
X016067Y001108D01*
X016053Y001155D01*
X016043Y001203D01*
X016037Y001251D01*
X016035Y001300D01*
X018325Y016010D02*
X018327Y016059D01*
X018333Y016107D01*
X018343Y016155D01*
X018357Y016202D01*
X018374Y016248D01*
X018395Y016292D01*
X018420Y016334D01*
X018448Y016374D01*
X018480Y016412D01*
X018514Y016447D01*
X018551Y016479D01*
X018590Y016508D01*
X018632Y016534D01*
X018676Y016556D01*
X018721Y016574D01*
X018768Y016589D01*
X018815Y016600D01*
X018864Y016607D01*
X018913Y016610D01*
X018962Y016609D01*
X019010Y016604D01*
X019059Y016595D01*
X019106Y016582D01*
X019152Y016565D01*
X019196Y016545D01*
X019239Y016521D01*
X019280Y016494D01*
X019318Y016463D01*
X019354Y016430D01*
X019386Y016394D01*
X019416Y016355D01*
X019443Y016314D01*
X019466Y016270D01*
X019485Y016225D01*
X019501Y016179D01*
X019513Y016132D01*
X019521Y016083D01*
X019525Y016034D01*
X019525Y015986D01*
X019521Y015937D01*
X019513Y015888D01*
X019501Y015841D01*
X019485Y015795D01*
X019466Y015750D01*
X019443Y015706D01*
X019416Y015665D01*
X019386Y015626D01*
X019354Y015590D01*
X019318Y015557D01*
X019280Y015526D01*
X019239Y015499D01*
X019196Y015475D01*
X019152Y015455D01*
X019106Y015438D01*
X019059Y015425D01*
X019010Y015416D01*
X018962Y015411D01*
X018913Y015410D01*
X018864Y015413D01*
X018815Y015420D01*
X018768Y015431D01*
X018721Y015446D01*
X018676Y015464D01*
X018632Y015486D01*
X018590Y015512D01*
X018551Y015541D01*
X018514Y015573D01*
X018480Y015608D01*
X018448Y015646D01*
X018420Y015686D01*
X018395Y015728D01*
X018374Y015772D01*
X018357Y015818D01*
X018343Y015865D01*
X018333Y015913D01*
X018327Y015961D01*
X018325Y016010D01*
X000625Y016010D02*
X000627Y016059D01*
X000633Y016107D01*
X000643Y016155D01*
X000657Y016202D01*
X000674Y016248D01*
X000695Y016292D01*
X000720Y016334D01*
X000748Y016374D01*
X000780Y016412D01*
X000814Y016447D01*
X000851Y016479D01*
X000890Y016508D01*
X000932Y016534D01*
X000976Y016556D01*
X001021Y016574D01*
X001068Y016589D01*
X001115Y016600D01*
X001164Y016607D01*
X001213Y016610D01*
X001262Y016609D01*
X001310Y016604D01*
X001359Y016595D01*
X001406Y016582D01*
X001452Y016565D01*
X001496Y016545D01*
X001539Y016521D01*
X001580Y016494D01*
X001618Y016463D01*
X001654Y016430D01*
X001686Y016394D01*
X001716Y016355D01*
X001743Y016314D01*
X001766Y016270D01*
X001785Y016225D01*
X001801Y016179D01*
X001813Y016132D01*
X001821Y016083D01*
X001825Y016034D01*
X001825Y015986D01*
X001821Y015937D01*
X001813Y015888D01*
X001801Y015841D01*
X001785Y015795D01*
X001766Y015750D01*
X001743Y015706D01*
X001716Y015665D01*
X001686Y015626D01*
X001654Y015590D01*
X001618Y015557D01*
X001580Y015526D01*
X001539Y015499D01*
X001496Y015475D01*
X001452Y015455D01*
X001406Y015438D01*
X001359Y015425D01*
X001310Y015416D01*
X001262Y015411D01*
X001213Y015410D01*
X001164Y015413D01*
X001115Y015420D01*
X001068Y015431D01*
X001021Y015446D01*
X000976Y015464D01*
X000932Y015486D01*
X000890Y015512D01*
X000851Y015541D01*
X000814Y015573D01*
X000780Y015608D01*
X000748Y015646D01*
X000720Y015686D01*
X000695Y015728D01*
X000674Y015772D01*
X000657Y015818D01*
X000643Y015865D01*
X000633Y015913D01*
X000627Y015961D01*
X000625Y016010D01*
M02*
