G75*
G70*
%OFA0B0*%
%FSLAX24Y24*%
%IPPOS*%
%LPD*%
%AMOC8*
5,1,8,0,0,1.08239X$1,22.5*
%
%ADD10C,0.0740*%
%ADD11OC8,0.0540*%
%ADD12C,0.0160*%
%ADD13C,0.0376*%
%ADD14C,0.0320*%
%ADD15C,0.0120*%
D10*
X003075Y001250D03*
X004075Y001250D03*
X006125Y001250D03*
X007125Y001250D03*
X008125Y001250D03*
X018895Y001260D03*
X018995Y002260D03*
X018895Y003260D03*
X018995Y004260D03*
X018895Y005260D03*
X018995Y006260D03*
X019015Y008190D03*
X019015Y009190D03*
X019015Y011130D03*
X019015Y012130D03*
X019015Y013130D03*
X019015Y014130D03*
X016315Y015980D03*
X015315Y015980D03*
X014315Y015980D03*
X013315Y015980D03*
X010715Y015980D03*
X009715Y015980D03*
D11*
X011545Y002730D03*
X011545Y001730D03*
X012545Y001730D03*
X012545Y002730D03*
X013545Y002730D03*
X013545Y001730D03*
D12*
X001706Y000579D02*
X001539Y000510D01*
X016321Y000510D01*
X016154Y000579D01*
X016154Y000579D01*
X015914Y000819D01*
X015914Y000819D01*
X015785Y001131D01*
X015785Y001469D01*
X015914Y001781D01*
X015914Y001781D01*
X016154Y002021D01*
X016154Y002021D01*
X016466Y002150D01*
X016804Y002150D01*
X017116Y002021D01*
X017116Y002021D01*
X017356Y001781D01*
X017485Y001469D01*
X017485Y001469D01*
X017485Y001131D01*
X017356Y000819D01*
X017356Y000819D01*
X017116Y000579D01*
X017116Y000579D01*
X016949Y000510D01*
X019665Y000510D01*
X019665Y015576D01*
X019646Y015529D01*
X019646Y015529D01*
X019406Y015289D01*
X019406Y015289D01*
X019094Y015160D01*
X018756Y015160D01*
X018444Y015289D01*
X018204Y015529D01*
X018204Y015529D01*
X018075Y015841D01*
X018075Y016179D01*
X018204Y016491D01*
X018204Y016491D01*
X018359Y016646D01*
X001791Y016646D01*
X001946Y016491D01*
X002075Y016179D01*
X002075Y016179D01*
X002075Y015841D01*
X001946Y015529D01*
X001946Y015529D01*
X001706Y015289D01*
X001706Y015289D01*
X001394Y015160D01*
X001175Y015160D01*
X001056Y015160D01*
X000744Y015289D01*
X000744Y015289D01*
X000545Y015488D01*
X000545Y005830D01*
X007415Y005830D01*
X007415Y003130D01*
X000545Y003130D01*
X000545Y001822D01*
X000744Y002021D01*
X000744Y002021D01*
X001056Y002150D01*
X001394Y002150D01*
X001706Y002021D01*
X001706Y002021D01*
X001946Y001781D01*
X001946Y001781D01*
X002075Y001469D01*
X002075Y001131D01*
X001946Y000819D01*
X001946Y000819D01*
X001706Y000579D01*
X001706Y000579D01*
X001724Y000597D02*
X016136Y000597D01*
X015977Y000756D02*
X008316Y000756D01*
X008230Y000720D02*
X008425Y000801D01*
X008574Y000950D01*
X008655Y001145D01*
X008655Y001355D01*
X008574Y001550D01*
X008425Y001699D01*
X008230Y001780D01*
X008020Y001780D01*
X007825Y001699D01*
X007676Y001550D01*
X007625Y001428D01*
X007574Y001550D01*
X007425Y001699D01*
X007230Y001780D01*
X007020Y001780D01*
X006825Y001699D01*
X006676Y001550D01*
X006625Y001428D01*
X006574Y001550D01*
X006425Y001699D01*
X006230Y001780D01*
X006020Y001780D01*
X005825Y001699D01*
X005676Y001550D01*
X005595Y001355D01*
X005595Y001145D01*
X005676Y000950D01*
X005825Y000801D01*
X006020Y000720D01*
X006230Y000720D01*
X006425Y000801D01*
X006574Y000950D01*
X006625Y001072D01*
X006676Y000950D01*
X006825Y000801D01*
X007020Y000720D01*
X007230Y000720D01*
X007425Y000801D01*
X007574Y000950D01*
X007625Y001072D01*
X007676Y000950D01*
X007825Y000801D01*
X008020Y000720D01*
X008230Y000720D01*
X007934Y000756D02*
X007316Y000756D01*
X007539Y000914D02*
X007711Y000914D01*
X007675Y001548D02*
X007575Y001548D01*
X007408Y001707D02*
X007842Y001707D01*
X008408Y001707D02*
X011115Y001707D01*
X011115Y001552D02*
X011367Y001300D01*
X011723Y001300D01*
X011975Y001552D01*
X011975Y001908D01*
X011723Y002160D01*
X011367Y002160D01*
X011115Y001908D01*
X011115Y001552D01*
X011119Y001548D02*
X008575Y001548D01*
X008641Y001390D02*
X011277Y001390D01*
X011115Y001865D02*
X001862Y001865D01*
X001977Y001707D02*
X002768Y001707D01*
X002787Y001720D02*
X002717Y001670D01*
X002655Y001608D01*
X002605Y001538D01*
X002565Y001461D01*
X002539Y001379D01*
X002525Y001293D01*
X002525Y001270D01*
X003055Y001270D01*
X003055Y001800D01*
X003032Y001800D01*
X002946Y001786D01*
X002864Y001760D01*
X002787Y001720D01*
X002612Y001548D02*
X002042Y001548D01*
X002075Y001390D02*
X002542Y001390D01*
X002525Y001230D02*
X002525Y001207D01*
X002539Y001121D01*
X002565Y001039D01*
X002605Y000962D01*
X002655Y000892D01*
X002717Y000830D01*
X002787Y000780D01*
X002864Y000740D01*
X002946Y000714D01*
X003032Y000700D01*
X003055Y000700D01*
X003055Y001230D01*
X002525Y001230D01*
X002554Y001073D02*
X002051Y001073D01*
X002075Y001231D02*
X003055Y001231D01*
X003055Y001230D02*
X003055Y001270D01*
X003095Y001270D01*
X003095Y001800D01*
X003118Y001800D01*
X003204Y001786D01*
X003286Y001760D01*
X003363Y001720D01*
X003433Y001670D01*
X003495Y001608D01*
X003545Y001538D01*
X003585Y001461D01*
X003586Y001456D01*
X003626Y001550D01*
X003775Y001699D01*
X003970Y001780D01*
X004180Y001780D01*
X004375Y001699D01*
X004524Y001550D01*
X004605Y001355D01*
X004605Y001145D01*
X004524Y000950D01*
X004375Y000801D01*
X004180Y000720D01*
X003970Y000720D01*
X003775Y000801D01*
X003626Y000950D01*
X003586Y001044D01*
X003585Y001039D01*
X003545Y000962D01*
X003495Y000892D01*
X003433Y000830D01*
X003363Y000780D01*
X003286Y000740D01*
X003204Y000714D01*
X003118Y000700D01*
X003095Y000700D01*
X003095Y001230D01*
X003055Y001230D01*
X003055Y001073D02*
X003095Y001073D01*
X003095Y000914D02*
X003055Y000914D01*
X003055Y000756D02*
X003095Y000756D01*
X003316Y000756D02*
X003884Y000756D01*
X003661Y000914D02*
X003511Y000914D01*
X003095Y001390D02*
X003055Y001390D01*
X003055Y001548D02*
X003095Y001548D01*
X003095Y001707D02*
X003055Y001707D01*
X003382Y001707D02*
X003792Y001707D01*
X003625Y001548D02*
X003538Y001548D01*
X004358Y001707D02*
X005842Y001707D01*
X005675Y001548D02*
X004525Y001548D01*
X004591Y001390D02*
X005609Y001390D01*
X005595Y001231D02*
X004605Y001231D01*
X004575Y001073D02*
X005625Y001073D01*
X005711Y000914D02*
X004489Y000914D01*
X004266Y000756D02*
X005934Y000756D01*
X006316Y000756D02*
X006934Y000756D01*
X006711Y000914D02*
X006539Y000914D01*
X006575Y001548D02*
X006675Y001548D01*
X006842Y001707D02*
X006408Y001707D01*
X007415Y003133D02*
X011340Y003133D01*
X011367Y003160D02*
X011115Y002908D01*
X011115Y002552D01*
X011367Y002300D01*
X011723Y002300D01*
X011975Y002552D01*
X011975Y002908D01*
X011723Y003160D01*
X011367Y003160D01*
X011181Y002975D02*
X000545Y002975D01*
X000545Y002816D02*
X011115Y002816D01*
X011115Y002658D02*
X000545Y002658D01*
X000545Y002499D02*
X011168Y002499D01*
X011326Y002341D02*
X000545Y002341D01*
X000545Y002182D02*
X013686Y002182D01*
X013664Y002160D02*
X013367Y002160D01*
X013115Y001908D01*
X013115Y001552D01*
X013367Y001300D01*
X013723Y001300D01*
X013975Y001552D01*
X013975Y001849D01*
X015835Y003709D01*
X015835Y005798D01*
X015910Y005873D01*
X015963Y006001D01*
X015963Y006139D01*
X015910Y006267D01*
X015812Y006365D01*
X015750Y006391D01*
X017374Y007979D01*
X018531Y007973D01*
X018566Y007890D01*
X018715Y007741D01*
X018910Y007660D01*
X019120Y007660D01*
X019315Y007741D01*
X019464Y007890D01*
X019545Y008085D01*
X019545Y008295D01*
X019464Y008490D01*
X019315Y008639D01*
X019193Y008690D01*
X019315Y008741D01*
X019464Y008890D01*
X019545Y009085D01*
X019545Y009295D01*
X019464Y009490D01*
X019315Y009639D01*
X019120Y009720D01*
X018910Y009720D01*
X018715Y009639D01*
X018566Y009490D01*
X018545Y009440D01*
X015024Y009440D01*
X013722Y008138D01*
X013616Y008138D01*
X013488Y008085D01*
X013390Y007987D01*
X013337Y007859D01*
X013337Y007721D01*
X013390Y007593D01*
X013488Y007495D01*
X013616Y007442D01*
X013754Y007442D01*
X013882Y007495D01*
X013980Y007593D01*
X014033Y007721D01*
X014033Y007827D01*
X014882Y008675D01*
X014920Y008583D01*
X014995Y008508D01*
X014995Y006952D01*
X014920Y006877D01*
X014867Y006749D01*
X014867Y006611D01*
X014920Y006483D01*
X015018Y006385D01*
X015085Y006357D01*
X014505Y005790D01*
X014107Y005790D01*
X014032Y005865D01*
X013904Y005918D01*
X013766Y005918D01*
X013638Y005865D01*
X013540Y005767D01*
X013487Y005639D01*
X013487Y005501D01*
X013540Y005373D01*
X013638Y005275D01*
X013766Y005222D01*
X013904Y005222D01*
X014032Y005275D01*
X014107Y005350D01*
X014594Y005350D01*
X014684Y005349D01*
X014685Y005350D01*
X014686Y005350D01*
X014750Y005414D01*
X015291Y005943D01*
X015320Y005873D01*
X015395Y005798D01*
X015395Y003891D01*
X013664Y002160D01*
X013723Y002300D02*
X013367Y002300D01*
X013115Y002552D01*
X013115Y002849D01*
X012835Y003129D01*
X012835Y003048D01*
X012975Y002908D01*
X012975Y002552D01*
X012723Y002300D01*
X012367Y002300D01*
X012115Y002552D01*
X012115Y002908D01*
X012367Y003160D01*
X012395Y003160D01*
X012395Y003189D01*
X011495Y004089D01*
X011495Y007008D01*
X011420Y007083D01*
X011393Y007147D01*
X010206Y005960D01*
X010024Y005960D01*
X008287Y005960D01*
X008212Y005885D01*
X008084Y005832D01*
X007946Y005832D01*
X007818Y005885D01*
X007720Y005983D01*
X007667Y006111D01*
X007667Y006249D01*
X007720Y006377D01*
X007818Y006475D01*
X007830Y006480D01*
X007818Y006485D01*
X007720Y006583D01*
X007667Y006711D01*
X007667Y006849D01*
X007720Y006977D01*
X007818Y007075D01*
X007946Y007128D01*
X008084Y007128D01*
X008212Y007075D01*
X008310Y006977D01*
X008363Y006849D01*
X008363Y006743D01*
X008506Y006600D01*
X009924Y006600D01*
X012256Y008932D01*
X012178Y008932D01*
X010906Y007660D01*
X010187Y007660D01*
X010112Y007585D01*
X009984Y007532D01*
X009846Y007532D01*
X009718Y007585D01*
X009620Y007683D01*
X009567Y007811D01*
X009567Y007949D01*
X009620Y008077D01*
X009718Y008175D01*
X009846Y008228D01*
X009984Y008228D01*
X010112Y008175D01*
X010187Y008100D01*
X010724Y008100D01*
X011867Y009243D01*
X011867Y009349D01*
X011920Y009477D01*
X012018Y009575D01*
X012146Y009628D01*
X012284Y009628D01*
X012412Y009575D01*
X012510Y009477D01*
X012563Y009349D01*
X012563Y009239D01*
X012695Y009371D01*
X012695Y009708D01*
X012620Y009783D01*
X012567Y009911D01*
X012567Y010049D01*
X012620Y010177D01*
X012718Y010275D01*
X012846Y010328D01*
X012984Y010328D01*
X013112Y010275D01*
X013210Y010177D01*
X013263Y010049D01*
X013263Y009911D01*
X013210Y009783D01*
X013135Y009708D01*
X013135Y009511D01*
X013695Y010071D01*
X013824Y010200D01*
X014043Y010200D01*
X014118Y010275D01*
X014246Y010328D01*
X014384Y010328D01*
X014512Y010275D01*
X014610Y010177D01*
X014663Y010049D01*
X014663Y009911D01*
X014610Y009783D01*
X014512Y009685D01*
X014384Y009632D01*
X014246Y009632D01*
X014118Y009685D01*
X014043Y009760D01*
X014006Y009760D01*
X011848Y007602D01*
X011912Y007575D01*
X012010Y007477D01*
X012063Y007349D01*
X012063Y007211D01*
X012010Y007083D01*
X011935Y007008D01*
X011935Y004271D01*
X012285Y003921D01*
X012285Y005918D01*
X012210Y005993D01*
X012157Y006121D01*
X012157Y006259D01*
X012210Y006387D01*
X012308Y006485D01*
X012436Y006538D01*
X012574Y006538D01*
X012702Y006485D01*
X012800Y006387D01*
X012853Y006259D01*
X012853Y006121D01*
X012800Y005993D01*
X012725Y005918D01*
X012725Y003861D01*
X013426Y003160D01*
X013723Y003160D01*
X013975Y002908D01*
X013975Y002552D01*
X013723Y002300D01*
X013764Y002341D02*
X013844Y002341D01*
X013922Y002499D02*
X014003Y002499D01*
X013975Y002658D02*
X014161Y002658D01*
X014320Y002816D02*
X013975Y002816D01*
X013909Y002975D02*
X014478Y002975D01*
X014637Y003133D02*
X013750Y003133D01*
X013295Y003292D02*
X014795Y003292D01*
X014954Y003450D02*
X013136Y003450D01*
X012978Y003609D02*
X015112Y003609D01*
X015271Y003767D02*
X012819Y003767D01*
X012725Y003926D02*
X015395Y003926D01*
X015395Y004084D02*
X012725Y004084D01*
X012725Y004243D02*
X015395Y004243D01*
X015395Y004401D02*
X012725Y004401D01*
X012725Y004560D02*
X015395Y004560D01*
X015395Y004718D02*
X012725Y004718D01*
X012725Y004877D02*
X015395Y004877D01*
X015395Y005035D02*
X012725Y005035D01*
X012725Y005194D02*
X015395Y005194D01*
X015395Y005352D02*
X014688Y005352D01*
X014849Y005511D02*
X015395Y005511D01*
X015395Y005669D02*
X015011Y005669D01*
X015173Y005828D02*
X015365Y005828D01*
X015835Y005669D02*
X018526Y005669D01*
X018537Y005680D02*
X018475Y005618D01*
X018425Y005548D01*
X018385Y005471D01*
X018359Y005389D01*
X018345Y005303D01*
X018345Y005280D01*
X018875Y005280D01*
X018875Y005240D01*
X018345Y005240D01*
X018345Y005217D01*
X018359Y005131D01*
X018385Y005049D01*
X018425Y004972D01*
X018475Y004902D01*
X018537Y004840D01*
X018607Y004790D01*
X018684Y004750D01*
X018745Y004730D01*
X018695Y004709D01*
X018546Y004560D01*
X018465Y004365D01*
X018465Y004155D01*
X018546Y003960D01*
X018695Y003811D01*
X018767Y003781D01*
X018595Y003709D01*
X018446Y003560D01*
X018365Y003365D01*
X018365Y003155D01*
X018446Y002960D01*
X018595Y002811D01*
X018767Y002739D01*
X018695Y002709D01*
X018546Y002560D01*
X018465Y002365D01*
X018465Y002155D01*
X018546Y001960D01*
X018695Y001811D01*
X018767Y001781D01*
X018595Y001709D01*
X018446Y001560D01*
X018365Y001365D01*
X018365Y001155D01*
X018446Y000960D01*
X018595Y000811D01*
X018790Y000730D01*
X019000Y000730D01*
X019195Y000811D01*
X019344Y000960D01*
X019425Y001155D01*
X019425Y001365D01*
X019344Y001560D01*
X019195Y001709D01*
X019123Y001739D01*
X019295Y001811D01*
X019444Y001960D01*
X019525Y002155D01*
X019525Y002365D01*
X019444Y002560D01*
X019295Y002709D01*
X019123Y002781D01*
X019195Y002811D01*
X019344Y002960D01*
X019425Y003155D01*
X019425Y003365D01*
X019344Y003560D01*
X019195Y003709D01*
X019123Y003739D01*
X019295Y003811D01*
X019444Y003960D01*
X019525Y004155D01*
X019525Y004365D01*
X019444Y004560D01*
X019295Y004709D01*
X019147Y004771D01*
X019183Y004790D01*
X019253Y004840D01*
X019315Y004902D01*
X019365Y004972D01*
X019405Y005049D01*
X019431Y005131D01*
X019445Y005217D01*
X019445Y005240D01*
X018915Y005240D01*
X018915Y005280D01*
X019445Y005280D01*
X019445Y005303D01*
X019431Y005389D01*
X019405Y005471D01*
X019365Y005548D01*
X019315Y005618D01*
X019253Y005680D01*
X019183Y005730D01*
X019168Y005738D01*
X019206Y005750D01*
X019283Y005790D01*
X019353Y005840D01*
X019415Y005902D01*
X019465Y005972D01*
X019505Y006049D01*
X019531Y006131D01*
X019545Y006217D01*
X019545Y006240D01*
X019015Y006240D01*
X019015Y006280D01*
X019545Y006280D01*
X019545Y006303D01*
X019665Y006303D01*
X019545Y006303D02*
X019531Y006389D01*
X019505Y006471D01*
X019465Y006548D01*
X019415Y006618D01*
X019353Y006680D01*
X019283Y006730D01*
X019206Y006770D01*
X019124Y006796D01*
X019038Y006810D01*
X019015Y006810D01*
X019015Y006280D01*
X018975Y006280D01*
X018975Y006810D01*
X018952Y006810D01*
X018866Y006796D01*
X018784Y006770D01*
X018707Y006730D01*
X018637Y006680D01*
X018575Y006618D01*
X018525Y006548D01*
X018485Y006471D01*
X018459Y006389D01*
X018445Y006303D01*
X015874Y006303D01*
X015822Y006462D02*
X018482Y006462D01*
X018445Y006303D02*
X018445Y006280D01*
X018975Y006280D01*
X018975Y006240D01*
X018445Y006240D01*
X018445Y006217D01*
X018459Y006131D01*
X018485Y006049D01*
X018525Y005972D01*
X018575Y005902D01*
X018637Y005840D01*
X018707Y005790D01*
X018722Y005782D01*
X018684Y005770D01*
X018607Y005730D01*
X018537Y005680D01*
X018655Y005828D02*
X015865Y005828D01*
X015957Y005986D02*
X018517Y005986D01*
X018456Y006145D02*
X015961Y006145D01*
X015984Y006620D02*
X018577Y006620D01*
X018811Y006779D02*
X016146Y006779D01*
X016308Y006937D02*
X019665Y006937D01*
X019665Y006779D02*
X019179Y006779D01*
X019015Y006779D02*
X018975Y006779D01*
X018975Y006620D02*
X019015Y006620D01*
X019015Y006462D02*
X018975Y006462D01*
X018975Y006303D02*
X019015Y006303D01*
X019413Y006620D02*
X019665Y006620D01*
X019665Y006462D02*
X019508Y006462D01*
X019534Y006145D02*
X019665Y006145D01*
X019665Y005986D02*
X019473Y005986D01*
X019335Y005828D02*
X019665Y005828D01*
X019665Y005669D02*
X019264Y005669D01*
X019385Y005511D02*
X019665Y005511D01*
X019665Y005352D02*
X019437Y005352D01*
X019441Y005194D02*
X019665Y005194D01*
X019665Y005035D02*
X019398Y005035D01*
X019289Y004877D02*
X019665Y004877D01*
X019665Y004718D02*
X019274Y004718D01*
X019445Y004560D02*
X019665Y004560D01*
X019665Y004401D02*
X019510Y004401D01*
X019525Y004243D02*
X019665Y004243D01*
X019665Y004084D02*
X019496Y004084D01*
X019410Y003926D02*
X019665Y003926D01*
X019665Y003767D02*
X019190Y003767D01*
X019296Y003609D02*
X019665Y003609D01*
X019665Y003450D02*
X019390Y003450D01*
X019425Y003292D02*
X019665Y003292D01*
X019665Y003133D02*
X019416Y003133D01*
X019350Y002975D02*
X019665Y002975D01*
X019665Y002816D02*
X019201Y002816D01*
X019347Y002658D02*
X019665Y002658D01*
X019665Y002499D02*
X019470Y002499D01*
X019525Y002341D02*
X019665Y002341D01*
X019665Y002182D02*
X019525Y002182D01*
X019471Y002024D02*
X019665Y002024D01*
X019665Y001865D02*
X019350Y001865D01*
X019198Y001707D02*
X019665Y001707D01*
X019665Y001548D02*
X019349Y001548D01*
X019415Y001390D02*
X019665Y001390D01*
X019665Y001231D02*
X019425Y001231D01*
X019391Y001073D02*
X019665Y001073D01*
X019665Y000914D02*
X019299Y000914D01*
X019062Y000756D02*
X019665Y000756D01*
X019665Y000597D02*
X017134Y000597D01*
X017293Y000756D02*
X018728Y000756D01*
X018491Y000914D02*
X017395Y000914D01*
X017461Y001073D02*
X018399Y001073D01*
X018365Y001231D02*
X017485Y001231D01*
X017485Y001390D02*
X018375Y001390D01*
X018441Y001548D02*
X017452Y001548D01*
X017387Y001707D02*
X018592Y001707D01*
X018640Y001865D02*
X017272Y001865D01*
X017109Y002024D02*
X018519Y002024D01*
X018465Y002182D02*
X014308Y002182D01*
X014150Y002024D02*
X016161Y002024D01*
X015998Y001865D02*
X013991Y001865D01*
X013975Y001707D02*
X015883Y001707D01*
X015818Y001548D02*
X013971Y001548D01*
X013813Y001390D02*
X015785Y001390D01*
X015785Y001231D02*
X008655Y001231D01*
X008625Y001073D02*
X015809Y001073D01*
X015875Y000914D02*
X008539Y000914D01*
X011230Y002024D02*
X001699Y002024D01*
X000751Y002024D02*
X000545Y002024D01*
X000545Y001865D02*
X000588Y001865D01*
X001985Y000914D02*
X002639Y000914D01*
X002834Y000756D02*
X001883Y000756D01*
X007415Y003292D02*
X012292Y003292D01*
X012340Y003133D02*
X011750Y003133D01*
X011909Y002975D02*
X012181Y002975D01*
X012115Y002816D02*
X011975Y002816D01*
X011975Y002658D02*
X012115Y002658D01*
X012168Y002499D02*
X011922Y002499D01*
X011764Y002341D02*
X012326Y002341D01*
X012359Y002180D02*
X012095Y001916D01*
X012095Y001740D01*
X012535Y001740D01*
X012535Y002180D01*
X012359Y002180D01*
X012555Y002180D02*
X012731Y002180D01*
X012995Y001916D01*
X012995Y001740D01*
X012555Y001740D01*
X012555Y001720D01*
X012995Y001720D01*
X012995Y001544D01*
X012731Y001280D01*
X012555Y001280D01*
X012555Y001720D01*
X012535Y001720D01*
X012535Y001280D01*
X012359Y001280D01*
X012095Y001544D01*
X012095Y001720D01*
X012535Y001720D01*
X012535Y001740D01*
X012555Y001740D01*
X012555Y002180D01*
X012555Y002024D02*
X012535Y002024D01*
X012535Y001865D02*
X012555Y001865D01*
X012555Y001707D02*
X012535Y001707D01*
X012535Y001548D02*
X012555Y001548D01*
X012555Y001390D02*
X012535Y001390D01*
X012841Y001390D02*
X013277Y001390D01*
X013119Y001548D02*
X012995Y001548D01*
X012995Y001707D02*
X013115Y001707D01*
X013115Y001865D02*
X012995Y001865D01*
X012888Y002024D02*
X013230Y002024D01*
X013326Y002341D02*
X012764Y002341D01*
X012922Y002499D02*
X013168Y002499D01*
X013115Y002658D02*
X012975Y002658D01*
X012975Y002816D02*
X013115Y002816D01*
X012989Y002975D02*
X012909Y002975D01*
X012134Y003450D02*
X007415Y003450D01*
X007415Y003609D02*
X011975Y003609D01*
X011817Y003767D02*
X007415Y003767D01*
X007415Y003926D02*
X011658Y003926D01*
X011500Y004084D02*
X007415Y004084D01*
X007415Y004243D02*
X011495Y004243D01*
X011495Y004401D02*
X007415Y004401D01*
X007415Y004560D02*
X011495Y004560D01*
X011495Y004718D02*
X007415Y004718D01*
X007415Y004877D02*
X011495Y004877D01*
X011495Y005035D02*
X007415Y005035D01*
X007415Y005194D02*
X011495Y005194D01*
X011495Y005352D02*
X007415Y005352D01*
X007415Y005511D02*
X011495Y005511D01*
X011495Y005669D02*
X007415Y005669D01*
X007415Y005828D02*
X011495Y005828D01*
X011495Y005986D02*
X010232Y005986D01*
X010391Y006145D02*
X011495Y006145D01*
X011495Y006303D02*
X010549Y006303D01*
X010708Y006462D02*
X011495Y006462D01*
X011495Y006620D02*
X010866Y006620D01*
X011025Y006779D02*
X011495Y006779D01*
X011495Y006937D02*
X011183Y006937D01*
X011342Y007096D02*
X011415Y007096D01*
X011916Y007571D02*
X013412Y007571D01*
X013337Y007730D02*
X011976Y007730D01*
X012134Y007888D02*
X013349Y007888D01*
X013449Y008047D02*
X012293Y008047D01*
X012451Y008205D02*
X013789Y008205D01*
X013947Y008364D02*
X012610Y008364D01*
X012768Y008522D02*
X014106Y008522D01*
X014264Y008681D02*
X012927Y008681D01*
X013085Y008839D02*
X014423Y008839D01*
X014581Y008998D02*
X013244Y008998D01*
X013402Y009156D02*
X014740Y009156D01*
X014898Y009315D02*
X013561Y009315D01*
X013719Y009473D02*
X018559Y009473D01*
X018707Y009632D02*
X013878Y009632D01*
X013572Y009949D02*
X013263Y009949D01*
X013239Y010107D02*
X013731Y010107D01*
X014108Y010266D02*
X013122Y010266D01*
X012708Y010266D02*
X000545Y010266D01*
X000545Y010424D02*
X019665Y010424D01*
X019665Y010266D02*
X014522Y010266D01*
X014639Y010107D02*
X019665Y010107D01*
X019665Y009949D02*
X014663Y009949D01*
X014613Y009790D02*
X019665Y009790D01*
X019665Y009632D02*
X019323Y009632D01*
X019471Y009473D02*
X019665Y009473D01*
X019665Y009315D02*
X019537Y009315D01*
X019545Y009156D02*
X019665Y009156D01*
X019665Y008998D02*
X019509Y008998D01*
X019414Y008839D02*
X019665Y008839D01*
X019665Y008681D02*
X019216Y008681D01*
X019433Y008522D02*
X019665Y008522D01*
X019665Y008364D02*
X019517Y008364D01*
X019545Y008205D02*
X019665Y008205D01*
X019665Y008047D02*
X019529Y008047D01*
X019463Y007888D02*
X019665Y007888D01*
X019665Y007730D02*
X019288Y007730D01*
X019665Y007571D02*
X016956Y007571D01*
X016794Y007413D02*
X019665Y007413D01*
X019665Y007254D02*
X016632Y007254D01*
X016470Y007096D02*
X019665Y007096D01*
X018742Y007730D02*
X017118Y007730D01*
X017281Y007888D02*
X018567Y007888D01*
X018534Y008413D02*
X017287Y008420D01*
X017196Y008421D01*
X017196Y008421D01*
X017195Y008421D01*
X017131Y008357D01*
X015541Y006803D01*
X015510Y006877D01*
X015435Y006952D01*
X015435Y008508D01*
X015510Y008583D01*
X015563Y008711D01*
X015563Y008849D01*
X015510Y008977D01*
X015487Y009000D01*
X018520Y009000D01*
X018566Y008890D01*
X018715Y008741D01*
X018837Y008690D01*
X018715Y008639D01*
X018566Y008490D01*
X018534Y008413D01*
X018597Y008522D02*
X015449Y008522D01*
X015435Y008364D02*
X017137Y008364D01*
X016975Y008205D02*
X015435Y008205D01*
X015435Y008047D02*
X016813Y008047D01*
X016651Y007888D02*
X015435Y007888D01*
X015435Y007730D02*
X016489Y007730D01*
X016327Y007571D02*
X015435Y007571D01*
X015435Y007413D02*
X016165Y007413D01*
X016003Y007254D02*
X015435Y007254D01*
X015435Y007096D02*
X015841Y007096D01*
X015679Y006937D02*
X015450Y006937D01*
X014980Y006937D02*
X011935Y006937D01*
X011935Y006779D02*
X014879Y006779D01*
X014867Y006620D02*
X011935Y006620D01*
X011935Y006462D02*
X012284Y006462D01*
X012175Y006303D02*
X011935Y006303D01*
X011935Y006145D02*
X012157Y006145D01*
X012217Y005986D02*
X011935Y005986D01*
X011935Y005828D02*
X012285Y005828D01*
X012285Y005669D02*
X011935Y005669D01*
X011935Y005511D02*
X012285Y005511D01*
X012285Y005352D02*
X011935Y005352D01*
X011935Y005194D02*
X012285Y005194D01*
X012285Y005035D02*
X011935Y005035D01*
X011935Y004877D02*
X012285Y004877D01*
X012285Y004718D02*
X011935Y004718D01*
X011935Y004560D02*
X012285Y004560D01*
X012285Y004401D02*
X011935Y004401D01*
X011964Y004243D02*
X012285Y004243D01*
X012285Y004084D02*
X012122Y004084D01*
X012281Y003926D02*
X012285Y003926D01*
X012725Y005352D02*
X013561Y005352D01*
X013487Y005511D02*
X012725Y005511D01*
X012725Y005669D02*
X013499Y005669D01*
X013600Y005828D02*
X012725Y005828D01*
X012793Y005986D02*
X014706Y005986D01*
X014868Y006145D02*
X012853Y006145D01*
X012835Y006303D02*
X015030Y006303D01*
X014941Y006462D02*
X012726Y006462D01*
X012015Y007096D02*
X014995Y007096D01*
X014995Y007254D02*
X012063Y007254D01*
X012037Y007413D02*
X014995Y007413D01*
X014995Y007571D02*
X013958Y007571D01*
X014033Y007730D02*
X014995Y007730D01*
X014995Y007888D02*
X014094Y007888D01*
X014253Y008047D02*
X014995Y008047D01*
X014995Y008205D02*
X014411Y008205D01*
X014570Y008364D02*
X014995Y008364D01*
X014981Y008522D02*
X014728Y008522D01*
X015551Y008681D02*
X018814Y008681D01*
X018616Y008839D02*
X015563Y008839D01*
X015490Y008998D02*
X018521Y008998D01*
X018910Y010600D02*
X018715Y010681D01*
X018585Y010810D01*
X018074Y010810D01*
X018020Y010807D01*
X018011Y010810D01*
X018001Y010810D01*
X017951Y010831D01*
X017899Y010849D01*
X017892Y010855D01*
X017884Y010859D01*
X017845Y010897D01*
X013242Y015005D01*
X013234Y015009D01*
X013195Y015047D01*
X013154Y015084D01*
X013150Y015092D01*
X013144Y015099D01*
X013123Y015149D01*
X013099Y015198D01*
X013099Y015208D01*
X013095Y015216D01*
X013095Y015271D01*
X013092Y015325D01*
X013095Y015334D01*
X013095Y015497D01*
X013015Y015531D01*
X012866Y015680D01*
X012785Y015875D01*
X012785Y016085D01*
X012866Y016280D01*
X013015Y016429D01*
X013210Y016510D01*
X013420Y016510D01*
X013615Y016429D01*
X013764Y016280D01*
X013815Y016158D01*
X013866Y016280D01*
X014015Y016429D01*
X014210Y016510D01*
X014420Y016510D01*
X014615Y016429D01*
X014764Y016280D01*
X014815Y016158D01*
X014866Y016280D01*
X015015Y016429D01*
X015210Y016510D01*
X015420Y016510D01*
X015615Y016429D01*
X015764Y016280D01*
X015815Y016158D01*
X015866Y016280D01*
X016015Y016429D01*
X016210Y016510D01*
X016420Y016510D01*
X016615Y016429D01*
X016764Y016280D01*
X016845Y016085D01*
X016845Y015875D01*
X016764Y015680D01*
X016615Y015531D01*
X016420Y015450D01*
X016210Y015450D01*
X016015Y015531D01*
X015866Y015680D01*
X015815Y015802D01*
X015764Y015680D01*
X015615Y015531D01*
X015420Y015450D01*
X015210Y015450D01*
X015015Y015531D01*
X014866Y015680D01*
X014815Y015802D01*
X014764Y015680D01*
X014615Y015531D01*
X014420Y015450D01*
X014210Y015450D01*
X014015Y015531D01*
X013866Y015680D01*
X013815Y015802D01*
X013764Y015680D01*
X013735Y015650D01*
X013735Y015423D01*
X018187Y011450D01*
X018585Y011450D01*
X018715Y011579D01*
X018837Y011630D01*
X018715Y011681D01*
X018566Y011830D01*
X018485Y012025D01*
X018485Y012235D01*
X018566Y012430D01*
X018715Y012579D01*
X018837Y012630D01*
X018715Y012681D01*
X018566Y012830D01*
X018485Y013025D01*
X018485Y013235D01*
X018566Y013430D01*
X018715Y013579D01*
X018837Y013630D01*
X018715Y013681D01*
X018566Y013830D01*
X018485Y014025D01*
X018485Y014235D01*
X018566Y014430D01*
X018715Y014579D01*
X018910Y014660D01*
X019120Y014660D01*
X019315Y014579D01*
X019464Y014430D01*
X019545Y014235D01*
X019545Y014025D01*
X019464Y013830D01*
X019315Y013681D01*
X019193Y013630D01*
X019315Y013579D01*
X019464Y013430D01*
X019545Y013235D01*
X019545Y013025D01*
X019464Y012830D01*
X019315Y012681D01*
X019193Y012630D01*
X019315Y012579D01*
X019464Y012430D01*
X019545Y012235D01*
X019545Y012025D01*
X019464Y011830D01*
X019315Y011681D01*
X019193Y011630D01*
X019315Y011579D01*
X019464Y011430D01*
X019545Y011235D01*
X019545Y011025D01*
X019464Y010830D01*
X019315Y010681D01*
X019120Y010600D01*
X018910Y010600D01*
X018654Y010741D02*
X000545Y010741D01*
X000545Y010583D02*
X019665Y010583D01*
X019665Y010741D02*
X019376Y010741D01*
X019493Y010900D02*
X019665Y010900D01*
X019665Y011058D02*
X019545Y011058D01*
X019545Y011217D02*
X019665Y011217D01*
X019665Y011375D02*
X019487Y011375D01*
X019361Y011534D02*
X019665Y011534D01*
X019665Y011692D02*
X019327Y011692D01*
X019473Y011851D02*
X019665Y011851D01*
X019665Y012009D02*
X019539Y012009D01*
X019545Y012168D02*
X019665Y012168D01*
X019665Y012326D02*
X019507Y012326D01*
X019410Y012485D02*
X019665Y012485D01*
X019665Y012643D02*
X019224Y012643D01*
X019436Y012802D02*
X019665Y012802D01*
X019665Y012960D02*
X019518Y012960D01*
X019545Y013119D02*
X019665Y013119D01*
X019665Y013277D02*
X019528Y013277D01*
X019459Y013436D02*
X019665Y013436D01*
X019665Y013594D02*
X019280Y013594D01*
X019387Y013753D02*
X019665Y013753D01*
X019665Y013911D02*
X019498Y013911D01*
X019545Y014070D02*
X019665Y014070D01*
X019665Y014228D02*
X019545Y014228D01*
X019482Y014387D02*
X019665Y014387D01*
X019665Y014545D02*
X019350Y014545D01*
X019665Y014704D02*
X014542Y014704D01*
X014719Y014545D02*
X018680Y014545D01*
X018548Y014387D02*
X014897Y014387D01*
X015074Y014228D02*
X018485Y014228D01*
X018485Y014070D02*
X015252Y014070D01*
X015429Y013911D02*
X018532Y013911D01*
X018643Y013753D02*
X015607Y013753D01*
X015785Y013594D02*
X018750Y013594D01*
X018571Y013436D02*
X015962Y013436D01*
X016140Y013277D02*
X018502Y013277D01*
X018485Y013119D02*
X016317Y013119D01*
X016495Y012960D02*
X018512Y012960D01*
X018594Y012802D02*
X016673Y012802D01*
X016850Y012643D02*
X018806Y012643D01*
X018620Y012485D02*
X017028Y012485D01*
X017205Y012326D02*
X018523Y012326D01*
X018485Y012168D02*
X017383Y012168D01*
X017561Y012009D02*
X018491Y012009D01*
X018557Y011851D02*
X017738Y011851D01*
X017916Y011692D02*
X018703Y011692D01*
X018669Y011534D02*
X018093Y011534D01*
X017665Y011058D02*
X000545Y011058D01*
X000545Y010900D02*
X017843Y010900D01*
X017487Y011217D02*
X000545Y011217D01*
X000545Y011375D02*
X017310Y011375D01*
X017132Y011534D02*
X000545Y011534D01*
X000545Y011692D02*
X016955Y011692D01*
X016777Y011851D02*
X000545Y011851D01*
X000545Y012009D02*
X016599Y012009D01*
X016422Y012168D02*
X000545Y012168D01*
X000545Y012326D02*
X016244Y012326D01*
X016067Y012485D02*
X000545Y012485D01*
X000545Y012643D02*
X015889Y012643D01*
X015712Y012802D02*
X000545Y012802D01*
X000545Y012960D02*
X015534Y012960D01*
X015356Y013119D02*
X000545Y013119D01*
X000545Y013277D02*
X015179Y013277D01*
X015001Y013436D02*
X000545Y013436D01*
X000545Y013594D02*
X014824Y013594D01*
X014646Y013753D02*
X000545Y013753D01*
X000545Y013911D02*
X014468Y013911D01*
X014291Y014070D02*
X000545Y014070D01*
X000545Y014228D02*
X014113Y014228D01*
X013936Y014387D02*
X000545Y014387D01*
X000545Y014545D02*
X013758Y014545D01*
X013580Y014704D02*
X000545Y014704D01*
X000545Y014862D02*
X013403Y014862D01*
X013222Y015021D02*
X000545Y015021D01*
X000545Y015179D02*
X001010Y015179D01*
X000695Y015338D02*
X000545Y015338D01*
X001440Y015179D02*
X013108Y015179D01*
X013095Y015338D02*
X001755Y015338D01*
X001913Y015496D02*
X009453Y015496D01*
X009427Y015510D02*
X009504Y015470D01*
X009586Y015444D01*
X009672Y015430D01*
X009695Y015430D01*
X009695Y015960D01*
X009165Y015960D01*
X009165Y015937D01*
X009179Y015851D01*
X009205Y015769D01*
X009245Y015692D01*
X009295Y015622D01*
X009357Y015560D01*
X009427Y015510D01*
X009272Y015655D02*
X001998Y015655D01*
X002063Y015813D02*
X009191Y015813D01*
X009165Y016000D02*
X009695Y016000D01*
X009695Y016530D01*
X009672Y016530D01*
X009586Y016516D01*
X009504Y016490D01*
X009427Y016450D01*
X009357Y016400D01*
X009295Y016338D01*
X009245Y016268D01*
X009205Y016191D01*
X009179Y016109D01*
X009165Y016023D01*
X009165Y016000D01*
X009185Y016130D02*
X002075Y016130D01*
X002075Y015972D02*
X009695Y015972D01*
X009695Y015960D02*
X009695Y016000D01*
X009735Y016000D01*
X009735Y016530D01*
X009758Y016530D01*
X009844Y016516D01*
X009926Y016490D01*
X010003Y016450D01*
X010073Y016400D01*
X010135Y016338D01*
X010185Y016268D01*
X010225Y016191D01*
X010226Y016186D01*
X010266Y016280D01*
X010415Y016429D01*
X010610Y016510D01*
X010820Y016510D01*
X011015Y016429D01*
X011164Y016280D01*
X011245Y016085D01*
X011245Y015875D01*
X011164Y015680D01*
X011015Y015531D01*
X010820Y015450D01*
X010610Y015450D01*
X010415Y015531D01*
X010266Y015680D01*
X010226Y015774D01*
X010225Y015769D01*
X010185Y015692D01*
X010135Y015622D01*
X010073Y015560D01*
X010003Y015510D01*
X009926Y015470D01*
X009844Y015444D01*
X009758Y015430D01*
X009735Y015430D01*
X009735Y015960D01*
X009695Y015960D01*
X009695Y015813D02*
X009735Y015813D01*
X009735Y015655D02*
X009695Y015655D01*
X009695Y015496D02*
X009735Y015496D01*
X009977Y015496D02*
X010498Y015496D01*
X010291Y015655D02*
X010158Y015655D01*
X009735Y016130D02*
X009695Y016130D01*
X009695Y016289D02*
X009735Y016289D01*
X009735Y016447D02*
X009695Y016447D01*
X009422Y016447D02*
X001964Y016447D01*
X002030Y016289D02*
X009259Y016289D01*
X010008Y016447D02*
X010458Y016447D01*
X010274Y016289D02*
X010171Y016289D01*
X010972Y016447D02*
X013058Y016447D01*
X012874Y016289D02*
X011156Y016289D01*
X011227Y016130D02*
X012803Y016130D01*
X012785Y015972D02*
X011245Y015972D01*
X011220Y015813D02*
X012810Y015813D01*
X012891Y015655D02*
X011139Y015655D01*
X010932Y015496D02*
X013095Y015496D01*
X013735Y015496D02*
X014098Y015496D01*
X013891Y015655D02*
X013739Y015655D01*
X013831Y015338D02*
X018395Y015338D01*
X018237Y015496D02*
X016532Y015496D01*
X016739Y015655D02*
X018152Y015655D01*
X018087Y015813D02*
X016820Y015813D01*
X016845Y015972D02*
X018075Y015972D01*
X018075Y016130D02*
X016827Y016130D01*
X016756Y016289D02*
X018120Y016289D01*
X018186Y016447D02*
X016572Y016447D01*
X016058Y016447D02*
X015572Y016447D01*
X015756Y016289D02*
X015874Y016289D01*
X015891Y015655D02*
X015739Y015655D01*
X015532Y015496D02*
X016098Y015496D01*
X015098Y015496D02*
X014532Y015496D01*
X014739Y015655D02*
X014891Y015655D01*
X014186Y015021D02*
X019665Y015021D01*
X019665Y015179D02*
X019140Y015179D01*
X019455Y015338D02*
X019665Y015338D01*
X019665Y015496D02*
X019613Y015496D01*
X019665Y014862D02*
X014364Y014862D01*
X014009Y015179D02*
X018710Y015179D01*
X018318Y016606D02*
X001832Y016606D01*
X000545Y010107D02*
X012591Y010107D01*
X012567Y009949D02*
X000545Y009949D01*
X000545Y009790D02*
X012617Y009790D01*
X012695Y009632D02*
X000545Y009632D01*
X000545Y009473D02*
X011918Y009473D01*
X011867Y009315D02*
X000545Y009315D01*
X000545Y009156D02*
X011780Y009156D01*
X011621Y008998D02*
X000545Y008998D01*
X000545Y008839D02*
X011463Y008839D01*
X011304Y008681D02*
X000545Y008681D01*
X000545Y008522D02*
X011146Y008522D01*
X010987Y008364D02*
X000545Y008364D01*
X000545Y008205D02*
X009790Y008205D01*
X009607Y008047D02*
X000545Y008047D01*
X000545Y007888D02*
X009567Y007888D01*
X009601Y007730D02*
X000545Y007730D01*
X000545Y007571D02*
X009751Y007571D01*
X010079Y007571D02*
X010895Y007571D01*
X010976Y007730D02*
X011053Y007730D01*
X011134Y007888D02*
X011212Y007888D01*
X011293Y008047D02*
X011370Y008047D01*
X011451Y008205D02*
X011529Y008205D01*
X011610Y008364D02*
X011687Y008364D01*
X011768Y008522D02*
X011846Y008522D01*
X011927Y008681D02*
X012004Y008681D01*
X012085Y008839D02*
X012163Y008839D01*
X012563Y009315D02*
X012638Y009315D01*
X012695Y009473D02*
X012512Y009473D01*
X013135Y009632D02*
X013255Y009632D01*
X013213Y009790D02*
X013414Y009790D01*
X010829Y008205D02*
X010040Y008205D01*
X010736Y007413D02*
X000545Y007413D01*
X000545Y007254D02*
X010578Y007254D01*
X010419Y007096D02*
X008163Y007096D01*
X008327Y006937D02*
X010261Y006937D01*
X010102Y006779D02*
X008363Y006779D01*
X008486Y006620D02*
X009944Y006620D01*
X007867Y007096D02*
X000545Y007096D01*
X000545Y006937D02*
X007703Y006937D01*
X007667Y006779D02*
X000545Y006779D01*
X000545Y006620D02*
X007704Y006620D01*
X007804Y006462D02*
X000545Y006462D01*
X000545Y006303D02*
X007689Y006303D01*
X007667Y006145D02*
X000545Y006145D01*
X000545Y005986D02*
X007719Y005986D01*
X011860Y002024D02*
X012202Y002024D01*
X012095Y001865D02*
X011975Y001865D01*
X011975Y001707D02*
X012095Y001707D01*
X012095Y001548D02*
X011971Y001548D01*
X011813Y001390D02*
X012249Y001390D01*
X014467Y002341D02*
X018465Y002341D01*
X018520Y002499D02*
X014625Y002499D01*
X014784Y002658D02*
X018643Y002658D01*
X018589Y002816D02*
X014942Y002816D01*
X015101Y002975D02*
X018440Y002975D01*
X018374Y003133D02*
X015259Y003133D01*
X015418Y003292D02*
X018365Y003292D01*
X018400Y003450D02*
X015576Y003450D01*
X015735Y003609D02*
X018494Y003609D01*
X018734Y003767D02*
X015835Y003767D01*
X015835Y003926D02*
X018580Y003926D01*
X018494Y004084D02*
X015835Y004084D01*
X015835Y004243D02*
X018465Y004243D01*
X018480Y004401D02*
X015835Y004401D01*
X015835Y004560D02*
X018545Y004560D01*
X018716Y004718D02*
X015835Y004718D01*
X015835Y004877D02*
X018501Y004877D01*
X018392Y005035D02*
X015835Y005035D01*
X015835Y005194D02*
X018349Y005194D01*
X018353Y005352D02*
X015835Y005352D01*
X015835Y005511D02*
X018405Y005511D01*
X014544Y005828D02*
X014070Y005828D01*
X013874Y016289D02*
X013756Y016289D01*
X013572Y016447D02*
X014058Y016447D01*
X014572Y016447D02*
X015058Y016447D01*
X014874Y016289D02*
X014756Y016289D01*
D13*
X011515Y012480D03*
X010215Y014180D03*
X007190Y013795D03*
X006000Y015295D03*
X004515Y015380D03*
X002610Y014585D03*
X009915Y007880D03*
X010515Y009280D03*
X012215Y009280D03*
X012915Y009980D03*
X014315Y009980D03*
X015215Y008780D03*
X014780Y007630D03*
X015215Y006680D03*
X015615Y006070D03*
X013835Y005570D03*
X012505Y006190D03*
X011715Y007280D03*
X012940Y007520D03*
X013685Y007790D03*
X016625Y010380D03*
X017340Y008825D03*
X008015Y006780D03*
X008015Y006180D03*
D14*
X013415Y015280D02*
X018065Y011130D01*
X019015Y011130D01*
X013415Y015280D02*
X013415Y015880D01*
X013315Y015980D01*
D15*
X012915Y009980D02*
X012915Y009280D01*
X010015Y006380D01*
X008415Y006380D01*
X008015Y006780D01*
X008015Y006180D02*
X010115Y006180D01*
X013915Y009980D01*
X014315Y009980D01*
X015115Y009220D02*
X013685Y007790D01*
X015215Y008780D02*
X015215Y006680D01*
X015615Y006070D02*
X015615Y003800D01*
X013545Y001730D01*
X013545Y002730D02*
X012505Y003770D01*
X012505Y006190D01*
X011715Y007280D02*
X011715Y004180D01*
X012615Y003280D01*
X012615Y002780D01*
X012545Y002730D01*
X013835Y005570D02*
X014595Y005570D01*
X017285Y008200D01*
X019015Y008190D01*
X019015Y009190D02*
X018945Y009220D01*
X015115Y009220D01*
X012215Y009280D02*
X010815Y007880D01*
X009915Y007880D01*
M02*
