G75*
G70*
%OFA0B0*%
%FSLAX24Y24*%
%IPPOS*%
%LPD*%
%AMOC8*
5,1,8,0,0,1.08239X$1,22.5*
%
%ADD10C,0.0000*%
%ADD11C,0.0040*%
%ADD12C,0.0060*%
%ADD13C,0.0130*%
%ADD14C,0.0030*%
%ADD15C,0.0050*%
%ADD16C,0.0090*%
%ADD17C,0.0100*%
%ADD18R,0.0256X0.0551*%
%ADD19C,0.0080*%
%ADD20R,0.0230X0.0230*%
%ADD21C,0.0020*%
%ADD22R,0.0200X0.0450*%
%ADD23R,0.0200X0.0200*%
%ADD24R,0.0390X0.0180*%
%ADD25R,0.0180X0.0390*%
%ADD26R,0.0128X0.0197*%
%ADD27R,0.0059X0.0098*%
%ADD28R,0.0157X0.0069*%
%ADD29R,0.0079X0.0079*%
%ADD30R,0.0118X0.0118*%
%ADD31R,0.0128X0.0030*%
%ADD32R,0.0551X0.0256*%
%ADD33R,0.0197X0.0128*%
%ADD34R,0.0098X0.0059*%
%ADD35R,0.0069X0.0157*%
%ADD36R,0.0030X0.0128*%
%ADD37R,0.0180X0.0230*%
%ADD38C,0.0059*%
D10*
X000315Y000280D02*
X000315Y016876D01*
X019895Y016876D01*
X019895Y000280D01*
X000315Y000280D01*
X000625Y001300D02*
X000627Y001349D01*
X000633Y001397D01*
X000643Y001445D01*
X000657Y001492D01*
X000674Y001538D01*
X000695Y001582D01*
X000720Y001624D01*
X000748Y001664D01*
X000780Y001702D01*
X000814Y001737D01*
X000851Y001769D01*
X000890Y001798D01*
X000932Y001824D01*
X000976Y001846D01*
X001021Y001864D01*
X001068Y001879D01*
X001115Y001890D01*
X001164Y001897D01*
X001213Y001900D01*
X001262Y001899D01*
X001310Y001894D01*
X001359Y001885D01*
X001406Y001872D01*
X001452Y001855D01*
X001496Y001835D01*
X001539Y001811D01*
X001580Y001784D01*
X001618Y001753D01*
X001654Y001720D01*
X001686Y001684D01*
X001716Y001645D01*
X001743Y001604D01*
X001766Y001560D01*
X001785Y001515D01*
X001801Y001469D01*
X001813Y001422D01*
X001821Y001373D01*
X001825Y001324D01*
X001825Y001276D01*
X001821Y001227D01*
X001813Y001178D01*
X001801Y001131D01*
X001785Y001085D01*
X001766Y001040D01*
X001743Y000996D01*
X001716Y000955D01*
X001686Y000916D01*
X001654Y000880D01*
X001618Y000847D01*
X001580Y000816D01*
X001539Y000789D01*
X001496Y000765D01*
X001452Y000745D01*
X001406Y000728D01*
X001359Y000715D01*
X001310Y000706D01*
X001262Y000701D01*
X001213Y000700D01*
X001164Y000703D01*
X001115Y000710D01*
X001068Y000721D01*
X001021Y000736D01*
X000976Y000754D01*
X000932Y000776D01*
X000890Y000802D01*
X000851Y000831D01*
X000814Y000863D01*
X000780Y000898D01*
X000748Y000936D01*
X000720Y000976D01*
X000695Y001018D01*
X000674Y001062D01*
X000657Y001108D01*
X000643Y001155D01*
X000633Y001203D01*
X000627Y001251D01*
X000625Y001300D01*
X016035Y001300D02*
X016037Y001349D01*
X016043Y001397D01*
X016053Y001445D01*
X016067Y001492D01*
X016084Y001538D01*
X016105Y001582D01*
X016130Y001624D01*
X016158Y001664D01*
X016190Y001702D01*
X016224Y001737D01*
X016261Y001769D01*
X016300Y001798D01*
X016342Y001824D01*
X016386Y001846D01*
X016431Y001864D01*
X016478Y001879D01*
X016525Y001890D01*
X016574Y001897D01*
X016623Y001900D01*
X016672Y001899D01*
X016720Y001894D01*
X016769Y001885D01*
X016816Y001872D01*
X016862Y001855D01*
X016906Y001835D01*
X016949Y001811D01*
X016990Y001784D01*
X017028Y001753D01*
X017064Y001720D01*
X017096Y001684D01*
X017126Y001645D01*
X017153Y001604D01*
X017176Y001560D01*
X017195Y001515D01*
X017211Y001469D01*
X017223Y001422D01*
X017231Y001373D01*
X017235Y001324D01*
X017235Y001276D01*
X017231Y001227D01*
X017223Y001178D01*
X017211Y001131D01*
X017195Y001085D01*
X017176Y001040D01*
X017153Y000996D01*
X017126Y000955D01*
X017096Y000916D01*
X017064Y000880D01*
X017028Y000847D01*
X016990Y000816D01*
X016949Y000789D01*
X016906Y000765D01*
X016862Y000745D01*
X016816Y000728D01*
X016769Y000715D01*
X016720Y000706D01*
X016672Y000701D01*
X016623Y000700D01*
X016574Y000703D01*
X016525Y000710D01*
X016478Y000721D01*
X016431Y000736D01*
X016386Y000754D01*
X016342Y000776D01*
X016300Y000802D01*
X016261Y000831D01*
X016224Y000863D01*
X016190Y000898D01*
X016158Y000936D01*
X016130Y000976D01*
X016105Y001018D01*
X016084Y001062D01*
X016067Y001108D01*
X016053Y001155D01*
X016043Y001203D01*
X016037Y001251D01*
X016035Y001300D01*
X018325Y016010D02*
X018327Y016059D01*
X018333Y016107D01*
X018343Y016155D01*
X018357Y016202D01*
X018374Y016248D01*
X018395Y016292D01*
X018420Y016334D01*
X018448Y016374D01*
X018480Y016412D01*
X018514Y016447D01*
X018551Y016479D01*
X018590Y016508D01*
X018632Y016534D01*
X018676Y016556D01*
X018721Y016574D01*
X018768Y016589D01*
X018815Y016600D01*
X018864Y016607D01*
X018913Y016610D01*
X018962Y016609D01*
X019010Y016604D01*
X019059Y016595D01*
X019106Y016582D01*
X019152Y016565D01*
X019196Y016545D01*
X019239Y016521D01*
X019280Y016494D01*
X019318Y016463D01*
X019354Y016430D01*
X019386Y016394D01*
X019416Y016355D01*
X019443Y016314D01*
X019466Y016270D01*
X019485Y016225D01*
X019501Y016179D01*
X019513Y016132D01*
X019521Y016083D01*
X019525Y016034D01*
X019525Y015986D01*
X019521Y015937D01*
X019513Y015888D01*
X019501Y015841D01*
X019485Y015795D01*
X019466Y015750D01*
X019443Y015706D01*
X019416Y015665D01*
X019386Y015626D01*
X019354Y015590D01*
X019318Y015557D01*
X019280Y015526D01*
X019239Y015499D01*
X019196Y015475D01*
X019152Y015455D01*
X019106Y015438D01*
X019059Y015425D01*
X019010Y015416D01*
X018962Y015411D01*
X018913Y015410D01*
X018864Y015413D01*
X018815Y015420D01*
X018768Y015431D01*
X018721Y015446D01*
X018676Y015464D01*
X018632Y015486D01*
X018590Y015512D01*
X018551Y015541D01*
X018514Y015573D01*
X018480Y015608D01*
X018448Y015646D01*
X018420Y015686D01*
X018395Y015728D01*
X018374Y015772D01*
X018357Y015818D01*
X018343Y015865D01*
X018333Y015913D01*
X018327Y015961D01*
X018325Y016010D01*
X000625Y016010D02*
X000627Y016059D01*
X000633Y016107D01*
X000643Y016155D01*
X000657Y016202D01*
X000674Y016248D01*
X000695Y016292D01*
X000720Y016334D01*
X000748Y016374D01*
X000780Y016412D01*
X000814Y016447D01*
X000851Y016479D01*
X000890Y016508D01*
X000932Y016534D01*
X000976Y016556D01*
X001021Y016574D01*
X001068Y016589D01*
X001115Y016600D01*
X001164Y016607D01*
X001213Y016610D01*
X001262Y016609D01*
X001310Y016604D01*
X001359Y016595D01*
X001406Y016582D01*
X001452Y016565D01*
X001496Y016545D01*
X001539Y016521D01*
X001580Y016494D01*
X001618Y016463D01*
X001654Y016430D01*
X001686Y016394D01*
X001716Y016355D01*
X001743Y016314D01*
X001766Y016270D01*
X001785Y016225D01*
X001801Y016179D01*
X001813Y016132D01*
X001821Y016083D01*
X001825Y016034D01*
X001825Y015986D01*
X001821Y015937D01*
X001813Y015888D01*
X001801Y015841D01*
X001785Y015795D01*
X001766Y015750D01*
X001743Y015706D01*
X001716Y015665D01*
X001686Y015626D01*
X001654Y015590D01*
X001618Y015557D01*
X001580Y015526D01*
X001539Y015499D01*
X001496Y015475D01*
X001452Y015455D01*
X001406Y015438D01*
X001359Y015425D01*
X001310Y015416D01*
X001262Y015411D01*
X001213Y015410D01*
X001164Y015413D01*
X001115Y015420D01*
X001068Y015431D01*
X001021Y015446D01*
X000976Y015464D01*
X000932Y015486D01*
X000890Y015512D01*
X000851Y015541D01*
X000814Y015573D01*
X000780Y015608D01*
X000748Y015646D01*
X000720Y015686D01*
X000695Y015728D01*
X000674Y015772D01*
X000657Y015818D01*
X000643Y015865D01*
X000633Y015913D01*
X000627Y015961D01*
X000625Y016010D01*
D11*
X002375Y016000D02*
X002515Y016000D01*
X002562Y016047D01*
X002562Y016093D01*
X002515Y016140D01*
X002375Y016140D01*
X002375Y016000D02*
X002375Y016280D01*
X002515Y016280D01*
X002562Y016234D01*
X002562Y016187D01*
X002515Y016140D01*
X002670Y016000D02*
X002856Y016000D01*
X002964Y016047D02*
X003011Y016000D01*
X003104Y016000D01*
X003151Y016047D01*
X003151Y016280D01*
X003259Y016280D02*
X003259Y016000D01*
X003446Y016000D01*
X003352Y016140D02*
X003259Y016140D01*
X003259Y016280D02*
X003446Y016280D01*
X003554Y016280D02*
X003740Y016280D01*
X003647Y016280D02*
X003647Y016000D01*
X003848Y016047D02*
X003895Y016000D01*
X003988Y016000D01*
X004035Y016047D01*
X004035Y016234D01*
X003988Y016280D01*
X003895Y016280D01*
X003848Y016234D01*
X003848Y016047D01*
X004143Y016047D02*
X004190Y016000D01*
X004283Y016000D01*
X004330Y016047D01*
X004330Y016234D01*
X004283Y016280D01*
X004190Y016280D01*
X004143Y016234D01*
X004143Y016047D01*
X004438Y016280D02*
X004624Y016280D01*
X004531Y016280D02*
X004531Y016000D01*
X004732Y016000D02*
X004732Y016280D01*
X004732Y016140D02*
X004919Y016140D01*
X004919Y016280D02*
X004919Y016000D01*
X003979Y015606D02*
X003418Y015606D01*
X003250Y015517D02*
X003272Y015512D01*
X003292Y015504D01*
X003310Y015493D01*
X003327Y015478D01*
X003341Y015462D01*
X003353Y015443D01*
X003361Y015423D01*
X003366Y015402D01*
X003368Y015380D01*
X003366Y015358D01*
X003361Y015337D01*
X003353Y015317D01*
X003341Y015298D01*
X003327Y015282D01*
X003310Y015267D01*
X003292Y015256D01*
X003272Y015248D01*
X003250Y015243D01*
X003408Y015154D02*
X003822Y015154D01*
X003980Y015243D02*
X003958Y015248D01*
X003938Y015256D01*
X003920Y015267D01*
X003903Y015282D01*
X003889Y015298D01*
X003877Y015317D01*
X003869Y015337D01*
X003864Y015358D01*
X003862Y015380D01*
X003864Y015402D01*
X003869Y015423D01*
X003877Y015443D01*
X003889Y015462D01*
X003903Y015478D01*
X003920Y015493D01*
X003938Y015504D01*
X003958Y015512D01*
X003980Y015517D01*
X003909Y015557D02*
X003911Y015569D01*
X003916Y015580D01*
X003924Y015589D01*
X003935Y015595D01*
X003947Y015598D01*
X003959Y015597D01*
X003971Y015593D01*
X003980Y015585D01*
X003987Y015575D01*
X003991Y015563D01*
X003991Y015551D01*
X003987Y015539D01*
X003980Y015529D01*
X003970Y015521D01*
X003959Y015517D01*
X003947Y015516D01*
X003935Y015519D01*
X003924Y015525D01*
X003916Y015534D01*
X003911Y015545D01*
X003909Y015557D01*
X002964Y016047D02*
X002964Y016280D01*
X002670Y016280D02*
X002670Y016000D01*
X006269Y016012D02*
X006269Y015598D01*
X006358Y015440D02*
X006363Y015462D01*
X006371Y015482D01*
X006382Y015500D01*
X006397Y015517D01*
X006413Y015531D01*
X006432Y015543D01*
X006452Y015551D01*
X006473Y015556D01*
X006495Y015558D01*
X006517Y015556D01*
X006538Y015551D01*
X006558Y015543D01*
X006577Y015531D01*
X006593Y015517D01*
X006608Y015500D01*
X006619Y015482D01*
X006627Y015462D01*
X006632Y015440D01*
X006631Y015470D02*
X006633Y015482D01*
X006638Y015493D01*
X006646Y015502D01*
X006657Y015508D01*
X006669Y015511D01*
X006681Y015510D01*
X006693Y015506D01*
X006702Y015498D01*
X006709Y015488D01*
X006713Y015476D01*
X006713Y015464D01*
X006709Y015452D01*
X006702Y015442D01*
X006692Y015434D01*
X006681Y015430D01*
X006669Y015429D01*
X006657Y015432D01*
X006646Y015438D01*
X006638Y015447D01*
X006633Y015458D01*
X006631Y015470D01*
X006721Y015441D02*
X006721Y016002D01*
X006632Y016170D02*
X006627Y016148D01*
X006619Y016128D01*
X006608Y016110D01*
X006593Y016093D01*
X006577Y016079D01*
X006558Y016067D01*
X006538Y016059D01*
X006517Y016054D01*
X006495Y016052D01*
X006473Y016054D01*
X006452Y016059D01*
X006432Y016067D01*
X006413Y016079D01*
X006397Y016093D01*
X006382Y016110D01*
X006371Y016128D01*
X006363Y016148D01*
X006358Y016170D01*
X006415Y015080D02*
X006462Y015034D01*
X006462Y014940D01*
X006415Y014893D01*
X006275Y014893D01*
X006275Y014800D02*
X006275Y015080D01*
X006415Y015080D01*
X006570Y015034D02*
X006570Y014847D01*
X006616Y014800D01*
X006710Y014800D01*
X006756Y014847D01*
X006756Y015034D01*
X006710Y015080D01*
X006616Y015080D01*
X006570Y015034D01*
X006864Y015080D02*
X006864Y014800D01*
X006958Y014893D01*
X007051Y014800D01*
X007051Y015080D01*
X007159Y015080D02*
X007159Y014800D01*
X007346Y014800D01*
X007454Y014800D02*
X007454Y015080D01*
X007594Y015080D01*
X007640Y015034D01*
X007640Y014940D01*
X007594Y014893D01*
X007454Y014893D01*
X007547Y014893D02*
X007640Y014800D01*
X007346Y015080D02*
X007159Y015080D01*
X007159Y014940D02*
X007252Y014940D01*
X004965Y011642D02*
X004872Y011549D01*
X004872Y011595D02*
X004872Y011455D01*
X004965Y011455D02*
X004685Y011455D01*
X004685Y011595D01*
X004731Y011642D01*
X004825Y011642D01*
X004872Y011595D01*
X004965Y011348D02*
X004965Y011161D01*
X004685Y011161D01*
X004685Y011348D01*
X004825Y011254D02*
X004825Y011161D01*
X004872Y011053D02*
X004685Y011053D01*
X004872Y011053D02*
X004965Y010959D01*
X004872Y010866D01*
X004685Y010866D01*
X004685Y010763D02*
X004685Y010670D01*
X004685Y010716D02*
X004965Y010716D01*
X004965Y010670D02*
X004965Y010763D01*
X004965Y010562D02*
X004965Y010375D01*
X004685Y010375D01*
X004685Y010562D01*
X004825Y010468D02*
X004825Y010375D01*
X004918Y010267D02*
X004965Y010220D01*
X004965Y010127D01*
X004918Y010080D01*
X004731Y010080D01*
X004685Y010127D01*
X004685Y010220D01*
X004731Y010267D01*
X004731Y009972D02*
X004685Y009926D01*
X004685Y009832D01*
X004731Y009786D01*
X004778Y009786D01*
X004825Y009832D01*
X004825Y009926D01*
X004872Y009972D01*
X004918Y009972D01*
X004965Y009926D01*
X004965Y009832D01*
X004918Y009786D01*
X004965Y009678D02*
X004685Y009678D01*
X004685Y009491D02*
X004965Y009678D01*
X004965Y009491D02*
X004685Y009491D01*
X004778Y009383D02*
X004965Y009383D01*
X004825Y009383D02*
X004825Y009196D01*
X004778Y009196D02*
X004685Y009290D01*
X004778Y009383D01*
X004778Y009196D02*
X004965Y009196D01*
X004965Y009089D02*
X004872Y008995D01*
X004872Y009042D02*
X004872Y008902D01*
X004965Y008902D02*
X004685Y008902D01*
X004685Y009042D01*
X004731Y009089D01*
X004825Y009089D01*
X004872Y009042D01*
X004685Y008794D02*
X004685Y008607D01*
X004685Y008700D02*
X004965Y008700D01*
X008925Y009750D02*
X009065Y009750D01*
X009112Y009797D01*
X009112Y009984D01*
X009065Y010030D01*
X008925Y010030D01*
X008925Y009750D01*
X009220Y009750D02*
X009406Y009750D01*
X009514Y009750D02*
X009654Y009750D01*
X009701Y009797D01*
X009701Y009843D01*
X009654Y009890D01*
X009514Y009890D01*
X009514Y009750D02*
X009514Y010030D01*
X009654Y010030D01*
X009701Y009984D01*
X009701Y009937D01*
X009654Y009890D01*
X009809Y009797D02*
X009856Y009750D01*
X009949Y009750D01*
X009996Y009797D01*
X009996Y010030D01*
X010104Y009984D02*
X010104Y009797D01*
X010150Y009750D01*
X010244Y009750D01*
X010290Y009797D01*
X010290Y009890D01*
X010197Y009890D01*
X010104Y009984D02*
X010150Y010030D01*
X010244Y010030D01*
X010290Y009984D01*
X009809Y010030D02*
X009809Y009797D01*
X009979Y009506D02*
X009418Y009506D01*
X009220Y009750D02*
X009220Y010030D01*
X009406Y010030D01*
X009313Y009890D02*
X009220Y009890D01*
X009250Y009417D02*
X009272Y009412D01*
X009292Y009404D01*
X009310Y009393D01*
X009327Y009378D01*
X009341Y009362D01*
X009353Y009343D01*
X009361Y009323D01*
X009366Y009302D01*
X009368Y009280D01*
X009366Y009258D01*
X009361Y009237D01*
X009353Y009217D01*
X009341Y009198D01*
X009327Y009182D01*
X009310Y009167D01*
X009292Y009156D01*
X009272Y009148D01*
X009250Y009143D01*
X009408Y009054D02*
X009822Y009054D01*
X009980Y009143D02*
X009958Y009148D01*
X009938Y009156D01*
X009920Y009167D01*
X009903Y009182D01*
X009889Y009198D01*
X009877Y009217D01*
X009869Y009237D01*
X009864Y009258D01*
X009862Y009280D01*
X009864Y009302D01*
X009869Y009323D01*
X009877Y009343D01*
X009889Y009362D01*
X009903Y009378D01*
X009920Y009393D01*
X009938Y009404D01*
X009958Y009412D01*
X009980Y009417D01*
X009909Y009457D02*
X009911Y009469D01*
X009916Y009480D01*
X009924Y009489D01*
X009935Y009495D01*
X009947Y009498D01*
X009959Y009497D01*
X009971Y009493D01*
X009980Y009485D01*
X009987Y009475D01*
X009991Y009463D01*
X009991Y009451D01*
X009987Y009439D01*
X009980Y009429D01*
X009970Y009421D01*
X009959Y009417D01*
X009947Y009416D01*
X009935Y009419D01*
X009924Y009425D01*
X009916Y009434D01*
X009911Y009445D01*
X009909Y009457D01*
X012938Y015147D02*
X012938Y015334D01*
X012845Y015240D02*
X013032Y015240D01*
X013140Y015240D02*
X013140Y015380D01*
X013326Y015380D01*
X013280Y015287D02*
X013326Y015240D01*
X013326Y015147D01*
X013280Y015100D01*
X013186Y015100D01*
X013140Y015147D01*
X013140Y015240D02*
X013233Y015287D01*
X013280Y015287D01*
X013434Y015380D02*
X013434Y015193D01*
X013528Y015100D01*
X013621Y015193D01*
X013621Y015380D01*
X014235Y015380D02*
X014235Y015100D01*
X014235Y015193D02*
X014375Y015193D01*
X014422Y015240D01*
X014422Y015334D01*
X014375Y015380D01*
X014235Y015380D01*
X014328Y015193D02*
X014422Y015100D01*
X015215Y015137D02*
X015262Y015090D01*
X015355Y015090D01*
X015402Y015137D01*
X015402Y015230D01*
X015308Y015230D01*
X015215Y015137D02*
X015215Y015324D01*
X015262Y015370D01*
X015355Y015370D01*
X015402Y015324D01*
X016235Y015380D02*
X016235Y015100D01*
X016375Y015100D01*
X016422Y015147D01*
X016422Y015193D01*
X016375Y015240D01*
X016235Y015240D01*
X016375Y015240D02*
X016422Y015287D01*
X016422Y015334D01*
X016375Y015380D01*
X016235Y015380D01*
X018115Y014240D02*
X018115Y014100D01*
X018395Y014100D01*
X018395Y014240D01*
X018348Y014287D01*
X018302Y014287D01*
X018255Y014240D01*
X018255Y014100D01*
X018255Y014240D02*
X018208Y014287D01*
X018161Y014287D01*
X018115Y014240D01*
X018161Y013277D02*
X018115Y013230D01*
X018115Y013137D01*
X018161Y013090D01*
X018348Y013090D01*
X018395Y013137D01*
X018395Y013230D01*
X018348Y013277D01*
X018255Y013277D01*
X018255Y013183D01*
X018255Y012257D02*
X018161Y012257D01*
X018115Y012210D01*
X018115Y012070D01*
X018395Y012070D01*
X018302Y012070D02*
X018302Y012210D01*
X018255Y012257D01*
X018302Y012163D02*
X018395Y012257D01*
X018302Y011386D02*
X018115Y011386D01*
X018302Y011386D02*
X018395Y011293D01*
X018302Y011199D01*
X018115Y011199D01*
X018115Y011091D02*
X018115Y010905D01*
X018255Y010905D01*
X018208Y010998D01*
X018208Y011045D01*
X018255Y011091D01*
X018348Y011091D01*
X018395Y011045D01*
X018395Y010951D01*
X018348Y010905D01*
X018255Y010797D02*
X018255Y010610D01*
X018348Y010703D02*
X018161Y010703D01*
X018198Y009642D02*
X018105Y009549D01*
X018198Y009455D01*
X018385Y009455D01*
X018338Y009348D02*
X018151Y009348D01*
X018105Y009301D01*
X018105Y009161D01*
X018385Y009161D01*
X018385Y009301D01*
X018338Y009348D01*
X018245Y009455D02*
X018245Y009642D01*
X018198Y009642D02*
X018385Y009642D01*
X017995Y009595D02*
X017715Y009595D01*
X017855Y009455D01*
X017855Y009642D01*
X017855Y009348D02*
X017855Y009161D01*
X017808Y009161D02*
X017715Y009254D01*
X017808Y009348D01*
X017995Y009348D01*
X017995Y009161D02*
X017808Y009161D01*
X018105Y009006D02*
X018105Y008913D01*
X018151Y008866D01*
X018198Y008866D01*
X018245Y008913D01*
X018245Y009006D01*
X018292Y009053D01*
X018338Y009053D01*
X018385Y009006D01*
X018385Y008913D01*
X018338Y008866D01*
X018151Y009053D02*
X018105Y009006D01*
X018385Y008502D02*
X018385Y008315D01*
X018105Y008315D01*
X018151Y008208D02*
X018105Y008161D01*
X018105Y008067D01*
X018151Y008021D01*
X018338Y008021D01*
X018385Y008067D01*
X018385Y008161D01*
X018338Y008208D01*
X017995Y008175D02*
X017995Y008082D01*
X017948Y008035D01*
X017855Y008035D02*
X017808Y008129D01*
X017808Y008175D01*
X017855Y008222D01*
X017948Y008222D01*
X017995Y008175D01*
X017855Y008035D02*
X017715Y008035D01*
X017715Y008222D01*
X017808Y007928D02*
X017715Y007834D01*
X017808Y007741D01*
X017995Y007741D01*
X018105Y007773D02*
X018151Y007726D01*
X018198Y007726D01*
X018245Y007773D01*
X018245Y007866D01*
X018292Y007913D01*
X018338Y007913D01*
X018385Y007866D01*
X018385Y007773D01*
X018338Y007726D01*
X018105Y007773D02*
X018105Y007866D01*
X018151Y007913D01*
X017995Y007928D02*
X017808Y007928D01*
X017855Y007928D02*
X017855Y007741D01*
X017792Y005027D02*
X017698Y005027D01*
X017605Y004934D01*
X017605Y004826D02*
X017792Y004826D01*
X017885Y004732D01*
X017792Y004639D01*
X017605Y004639D01*
X017651Y004531D02*
X017698Y004531D01*
X017745Y004484D01*
X017792Y004531D01*
X017838Y004531D01*
X017885Y004484D01*
X017885Y004391D01*
X017838Y004344D01*
X017838Y004244D02*
X017885Y004244D01*
X017885Y004197D01*
X017838Y004197D01*
X017838Y004244D01*
X017838Y004089D02*
X017885Y004042D01*
X017885Y003949D01*
X017838Y003902D01*
X017885Y003799D02*
X017792Y003706D01*
X017698Y003706D01*
X017605Y003799D01*
X017651Y003902D02*
X017605Y003949D01*
X017605Y004042D01*
X017651Y004089D01*
X017698Y004089D01*
X017745Y004042D01*
X017792Y004089D01*
X017838Y004089D01*
X017745Y004042D02*
X017745Y003996D01*
X017651Y004344D02*
X017605Y004391D01*
X017605Y004484D01*
X017651Y004531D01*
X017745Y004484D02*
X017745Y004438D01*
X017885Y004934D02*
X017792Y005027D01*
X017885Y003308D02*
X017885Y003215D01*
X017885Y003261D02*
X017605Y003261D01*
X017605Y003215D02*
X017605Y003308D01*
X017651Y003107D02*
X017605Y003060D01*
X017605Y002920D01*
X017885Y002920D01*
X017885Y003060D01*
X017838Y003107D01*
X017651Y003107D01*
X017605Y002812D02*
X017605Y002625D01*
X017605Y002719D02*
X017885Y002719D01*
X017745Y002424D02*
X017745Y002331D01*
X017885Y002331D02*
X017605Y002331D01*
X017605Y002518D01*
X008376Y002134D02*
X008330Y002180D01*
X008236Y002180D01*
X008190Y002134D01*
X008082Y002087D02*
X008082Y001900D01*
X008190Y001900D02*
X008376Y002087D01*
X008376Y002134D01*
X008376Y001900D02*
X008190Y001900D01*
X008082Y002040D02*
X007895Y002040D01*
X007895Y002087D02*
X007895Y001900D01*
X007895Y002087D02*
X007988Y002180D01*
X008082Y002087D01*
X007386Y001900D02*
X007200Y001900D01*
X007293Y001900D02*
X007293Y002180D01*
X007200Y002087D01*
X007092Y002087D02*
X007092Y001900D01*
X007092Y002040D02*
X006905Y002040D01*
X006905Y002087D02*
X006905Y001900D01*
X006905Y002087D02*
X006998Y002180D01*
X007092Y002087D01*
X007092Y002440D02*
X007092Y002720D01*
X006999Y002720D02*
X007185Y002720D01*
X006891Y002720D02*
X006891Y002487D01*
X006844Y002440D01*
X006751Y002440D01*
X006704Y002487D01*
X006704Y002720D01*
X006596Y002674D02*
X006596Y002580D01*
X006549Y002533D01*
X006409Y002533D01*
X006409Y002440D02*
X006409Y002720D01*
X006549Y002720D01*
X006596Y002674D01*
X006302Y002720D02*
X006302Y002440D01*
X006115Y002720D01*
X006115Y002440D01*
X006012Y002440D02*
X005918Y002440D01*
X005965Y002440D02*
X005965Y002720D01*
X005918Y002720D02*
X006012Y002720D01*
X005810Y002720D02*
X005624Y002440D01*
X005516Y002487D02*
X005469Y002440D01*
X005376Y002440D01*
X005329Y002487D01*
X005376Y002580D02*
X005469Y002580D01*
X005516Y002533D01*
X005516Y002487D01*
X005376Y002580D02*
X005329Y002627D01*
X005329Y002674D01*
X005376Y002720D01*
X005469Y002720D01*
X005516Y002674D01*
X005221Y002720D02*
X005034Y002720D01*
X005128Y002720D02*
X005128Y002440D01*
X004926Y002487D02*
X004926Y002674D01*
X004880Y002720D01*
X004786Y002720D01*
X004740Y002674D01*
X004740Y002487D01*
X004786Y002440D01*
X004880Y002440D01*
X004926Y002487D01*
X004632Y002580D02*
X004585Y002533D01*
X004445Y002533D01*
X004445Y002440D02*
X004445Y002720D01*
X004585Y002720D01*
X004632Y002674D01*
X004632Y002580D01*
X004628Y002150D02*
X004628Y001963D01*
X004535Y001870D01*
X004442Y001963D01*
X004442Y002150D01*
X004334Y002104D02*
X004334Y002057D01*
X004287Y002010D01*
X004334Y001963D01*
X004334Y001917D01*
X004287Y001870D01*
X004194Y001870D01*
X004147Y001917D01*
X004046Y001917D02*
X004046Y001870D01*
X004000Y001870D01*
X004000Y001917D01*
X004046Y001917D01*
X003892Y001917D02*
X003845Y001870D01*
X003752Y001870D01*
X003705Y001917D01*
X003798Y002010D02*
X003845Y002010D01*
X003892Y001963D01*
X003892Y001917D01*
X003845Y002010D02*
X003892Y002057D01*
X003892Y002104D01*
X003845Y002150D01*
X003752Y002150D01*
X003705Y002104D01*
X003381Y002114D02*
X003381Y001927D01*
X003334Y001880D01*
X003194Y001880D01*
X003194Y002160D01*
X003334Y002160D01*
X003381Y002114D01*
X003086Y002160D02*
X003086Y001880D01*
X002900Y002160D01*
X002900Y001880D01*
X002792Y001927D02*
X002792Y002020D01*
X002698Y002020D01*
X002605Y001927D02*
X002605Y002114D01*
X002652Y002160D01*
X002745Y002160D01*
X002792Y002114D01*
X002792Y001927D02*
X002745Y001880D01*
X002652Y001880D01*
X002605Y001927D01*
X004147Y002104D02*
X004194Y002150D01*
X004287Y002150D01*
X004334Y002104D01*
X004287Y002010D02*
X004240Y002010D01*
X005895Y002040D02*
X006082Y002040D01*
X006082Y002087D02*
X006082Y001900D01*
X006190Y001947D02*
X006376Y002134D01*
X006376Y001947D01*
X006330Y001900D01*
X006236Y001900D01*
X006190Y001947D01*
X006190Y002134D01*
X006236Y002180D01*
X006330Y002180D01*
X006376Y002134D01*
X006082Y002087D02*
X005988Y002180D01*
X005895Y002087D01*
X005895Y001900D01*
D12*
X007345Y002670D02*
X008765Y002670D01*
X008786Y002668D01*
X008806Y002663D01*
X008825Y002654D01*
X008842Y002642D01*
X008857Y002627D01*
X008869Y002610D01*
X008878Y002591D01*
X008883Y002571D01*
X008885Y002550D01*
X008885Y000580D01*
X008883Y000561D01*
X008878Y000542D01*
X008870Y000525D01*
X008859Y000509D01*
X008846Y000496D01*
X008830Y000485D01*
X008813Y000477D01*
X008794Y000472D01*
X008775Y000470D01*
X002465Y000470D01*
X002441Y000472D01*
X002417Y000477D01*
X002394Y000485D01*
X002373Y000497D01*
X002354Y000512D01*
X002337Y000529D01*
X002322Y000548D01*
X002310Y000569D01*
X002302Y000592D01*
X002297Y000616D01*
X002295Y000640D01*
X002295Y002550D01*
X002297Y002572D01*
X002302Y002593D01*
X002310Y002614D01*
X002322Y002632D01*
X002336Y002649D01*
X002353Y002663D01*
X002371Y002675D01*
X002392Y002683D01*
X002413Y002688D01*
X002435Y002690D01*
X004295Y002690D01*
X009545Y003980D02*
X009545Y000480D01*
X011045Y000480D01*
X011045Y000530D01*
X011545Y000530D01*
X011545Y000480D01*
X011745Y000480D01*
X011745Y000880D01*
X011745Y000980D01*
X010045Y000980D01*
X010045Y003480D01*
X015045Y003480D01*
X015045Y000980D01*
X013345Y000980D01*
X013345Y000880D01*
X013345Y000480D01*
X011745Y000480D01*
X011745Y000980D02*
X011745Y001280D01*
X013345Y001280D01*
X013345Y000980D01*
X013345Y000480D02*
X015545Y000480D01*
X015545Y003980D01*
X015045Y003980D01*
X015045Y004080D01*
X014545Y004080D01*
X014545Y003980D01*
X012795Y003980D01*
X012795Y004080D01*
X012295Y004080D01*
X012295Y003980D01*
X010545Y003980D01*
X010545Y004080D01*
X010045Y004080D01*
X010045Y003980D01*
X009545Y003980D01*
X012705Y006390D02*
X015325Y006390D01*
X015465Y006530D01*
X015465Y009150D01*
X012705Y009150D01*
X012705Y006390D01*
X013184Y005200D02*
X013506Y005200D01*
X013506Y004700D02*
X013184Y004700D01*
X014667Y004714D02*
X014903Y004714D01*
X014903Y005186D02*
X014667Y005186D01*
X015024Y006690D02*
X015026Y006713D01*
X015032Y006736D01*
X015041Y006757D01*
X015054Y006777D01*
X015070Y006794D01*
X015088Y006808D01*
X015108Y006819D01*
X015130Y006827D01*
X015153Y006831D01*
X015177Y006831D01*
X015200Y006827D01*
X015222Y006819D01*
X015242Y006808D01*
X015260Y006794D01*
X015276Y006777D01*
X015289Y006757D01*
X015298Y006736D01*
X015304Y006713D01*
X015306Y006690D01*
X015304Y006667D01*
X015298Y006644D01*
X015289Y006623D01*
X015276Y006603D01*
X015260Y006586D01*
X015242Y006572D01*
X015222Y006561D01*
X015200Y006553D01*
X015177Y006549D01*
X015153Y006549D01*
X015130Y006553D01*
X015108Y006561D01*
X015088Y006572D01*
X015070Y006586D01*
X015054Y006603D01*
X015041Y006623D01*
X015032Y006644D01*
X015026Y006667D01*
X015024Y006690D01*
X015069Y007740D02*
X014896Y007740D01*
X015069Y007913D01*
X015069Y007957D01*
X015026Y008000D01*
X014939Y008000D01*
X014896Y007957D01*
X014775Y007957D02*
X014775Y007913D01*
X014731Y007870D01*
X014775Y007827D01*
X014775Y007783D01*
X014731Y007740D01*
X014644Y007740D01*
X014601Y007783D01*
X014688Y007870D02*
X014731Y007870D01*
X014775Y007957D02*
X014731Y008000D01*
X014644Y008000D01*
X014601Y007957D01*
X014480Y007913D02*
X014480Y007740D01*
X014480Y007870D02*
X014306Y007870D01*
X014306Y007913D02*
X014393Y008000D01*
X014480Y007913D01*
X014306Y007913D02*
X014306Y007740D01*
X014185Y007783D02*
X014185Y007870D01*
X014098Y007870D01*
X014012Y007783D02*
X014055Y007740D01*
X014142Y007740D01*
X014185Y007783D01*
X014012Y007783D02*
X014012Y007957D01*
X014055Y008000D01*
X014142Y008000D01*
X014185Y007957D01*
X013891Y008000D02*
X013717Y008000D01*
X013717Y007740D01*
X013891Y007740D01*
X013804Y007870D02*
X013717Y007870D01*
X013596Y008000D02*
X013596Y007740D01*
X013422Y007740D02*
X013422Y008000D01*
X013509Y007913D01*
X013596Y008000D01*
X013301Y008000D02*
X013128Y008000D01*
X013215Y008000D02*
X013215Y007740D01*
X013007Y007740D02*
X013007Y007913D01*
X012920Y008000D01*
X012833Y007913D01*
X012833Y007740D01*
X012833Y007870D02*
X013007Y007870D01*
X015190Y007827D02*
X015234Y007870D01*
X015320Y007870D01*
X015364Y007827D01*
X015364Y007783D01*
X015320Y007740D01*
X015234Y007740D01*
X015190Y007783D01*
X015190Y007827D01*
X015234Y007870D02*
X015190Y007913D01*
X015190Y007957D01*
X015234Y008000D01*
X015320Y008000D01*
X015364Y007957D01*
X015364Y007913D01*
X015320Y007870D01*
X017535Y007650D02*
X017535Y009740D01*
X017538Y009767D01*
X017545Y009793D01*
X017556Y009818D01*
X017570Y009841D01*
X017586Y009862D01*
X017605Y009881D01*
X017627Y009897D01*
X017650Y009910D01*
X017675Y009921D01*
X017701Y009927D01*
X017728Y009931D01*
X017755Y009930D01*
X017760Y009927D01*
X017765Y009926D01*
X017770Y009927D01*
X017775Y009930D01*
X019505Y009930D01*
X019531Y009928D01*
X019557Y009923D01*
X019582Y009915D01*
X019605Y009903D01*
X019627Y009889D01*
X019646Y009871D01*
X019664Y009852D01*
X019678Y009830D01*
X019690Y009807D01*
X019698Y009782D01*
X019703Y009756D01*
X019705Y009730D01*
X019705Y007650D01*
X019707Y007625D01*
X019706Y007599D01*
X019701Y007574D01*
X019693Y007550D01*
X019682Y007528D01*
X019668Y007506D01*
X019652Y007487D01*
X019633Y007470D01*
X019612Y007456D01*
X019589Y007445D01*
X019565Y007437D01*
X019540Y007432D01*
X019515Y007430D01*
X017855Y007430D01*
X017845Y007430D02*
X017835Y007430D01*
X017803Y007427D01*
X017772Y007428D01*
X017740Y007433D01*
X017710Y007441D01*
X017680Y007453D01*
X017653Y007469D01*
X017627Y007488D01*
X017604Y007509D01*
X017583Y007534D01*
X017566Y007560D01*
X017552Y007589D01*
X017542Y007619D01*
X017535Y007650D01*
X017885Y007000D02*
X019485Y007000D01*
X019511Y006998D01*
X019537Y006993D01*
X019562Y006985D01*
X019585Y006973D01*
X019607Y006959D01*
X019626Y006941D01*
X019644Y006922D01*
X019658Y006900D01*
X019670Y006877D01*
X019678Y006852D01*
X019683Y006826D01*
X019685Y006800D01*
X019685Y000800D01*
X019689Y000770D01*
X019690Y000739D01*
X019687Y000708D01*
X019680Y000678D01*
X019669Y000649D01*
X019655Y000622D01*
X019638Y000596D01*
X019618Y000573D01*
X019595Y000552D01*
X019570Y000534D01*
X019543Y000519D01*
X019515Y000508D01*
X019485Y000500D01*
X017885Y000500D01*
X017855Y000508D01*
X017827Y000519D01*
X017800Y000534D01*
X017775Y000552D01*
X017752Y000573D01*
X017732Y000596D01*
X017715Y000622D01*
X017701Y000649D01*
X017690Y000678D01*
X017683Y000708D01*
X017680Y000739D01*
X017681Y000770D01*
X017685Y000800D01*
X017685Y002200D01*
X018061Y001389D02*
X018005Y001332D01*
X018005Y001218D01*
X018061Y001162D01*
X018288Y001162D01*
X018345Y001218D01*
X018345Y001332D01*
X018288Y001389D01*
X018175Y001389D01*
X018175Y001275D01*
X017685Y005300D02*
X017685Y006800D01*
X017687Y006826D01*
X017692Y006852D01*
X017700Y006877D01*
X017712Y006900D01*
X017726Y006922D01*
X017744Y006941D01*
X017763Y006959D01*
X017785Y006973D01*
X017808Y006985D01*
X017833Y006993D01*
X017859Y006998D01*
X017885Y007000D01*
X018071Y006409D02*
X018128Y006409D01*
X018185Y006352D01*
X018185Y006182D01*
X018185Y006352D02*
X018242Y006409D01*
X018298Y006409D01*
X018355Y006352D01*
X018355Y006182D01*
X018015Y006182D01*
X018015Y006352D01*
X018071Y006409D01*
X017815Y010330D02*
X019515Y010330D01*
X019541Y010332D01*
X019567Y010337D01*
X019592Y010345D01*
X019615Y010357D01*
X019637Y010371D01*
X019656Y010389D01*
X019674Y010408D01*
X019688Y010430D01*
X019700Y010453D01*
X019708Y010478D01*
X019713Y010504D01*
X019715Y010530D01*
X019715Y014730D01*
X019713Y014756D01*
X019708Y014782D01*
X019700Y014807D01*
X019688Y014830D01*
X019674Y014852D01*
X019656Y014871D01*
X019637Y014889D01*
X019615Y014903D01*
X019592Y014915D01*
X019567Y014923D01*
X019541Y014928D01*
X019515Y014930D01*
X017815Y014930D01*
X017815Y014830D02*
X017798Y014828D01*
X017781Y014824D01*
X017765Y014817D01*
X017751Y014807D01*
X017738Y014794D01*
X017728Y014780D01*
X017721Y014764D01*
X017717Y014747D01*
X017715Y014730D01*
X017715Y013230D01*
X017615Y013230D02*
X017615Y014730D01*
X017617Y014756D01*
X017622Y014782D01*
X017630Y014807D01*
X017642Y014830D01*
X017656Y014852D01*
X017674Y014871D01*
X017693Y014889D01*
X017715Y014903D01*
X017738Y014915D01*
X017763Y014923D01*
X017789Y014928D01*
X017815Y014930D01*
X017155Y014780D02*
X017155Y016480D01*
X017153Y016506D01*
X017148Y016532D01*
X017140Y016557D01*
X017128Y016580D01*
X017114Y016602D01*
X017096Y016621D01*
X017077Y016639D01*
X017055Y016653D01*
X017032Y016665D01*
X017007Y016673D01*
X016981Y016678D01*
X016955Y016680D01*
X012655Y016680D01*
X012629Y016678D01*
X012603Y016673D01*
X012578Y016665D01*
X012555Y016653D01*
X012533Y016639D01*
X012514Y016621D01*
X012496Y016602D01*
X012482Y016580D01*
X012470Y016557D01*
X012462Y016532D01*
X012457Y016506D01*
X012455Y016480D01*
X012455Y014780D01*
X012555Y014780D02*
X012557Y014763D01*
X012561Y014746D01*
X012568Y014730D01*
X012578Y014716D01*
X012591Y014703D01*
X012605Y014693D01*
X012621Y014686D01*
X012638Y014682D01*
X012655Y014680D01*
X014055Y014680D01*
X014055Y014580D02*
X012655Y014580D01*
X012629Y014582D01*
X012603Y014587D01*
X012578Y014595D01*
X012555Y014607D01*
X012533Y014621D01*
X012514Y014639D01*
X012496Y014658D01*
X012482Y014680D01*
X012470Y014703D01*
X012462Y014728D01*
X012457Y014754D01*
X012455Y014780D01*
X011115Y014930D02*
X011002Y015043D01*
X011058Y015043D02*
X010888Y015043D01*
X010888Y014930D02*
X010888Y015270D01*
X011058Y015270D01*
X011115Y015214D01*
X011115Y015100D01*
X011058Y015043D01*
X010747Y014930D02*
X010520Y014930D01*
X010520Y015270D01*
X010747Y015270D01*
X010633Y015100D02*
X010520Y015100D01*
X010378Y014930D02*
X010378Y015270D01*
X010152Y015270D02*
X010152Y014930D01*
X010265Y015043D01*
X010378Y014930D01*
X010010Y014987D02*
X010010Y015214D01*
X009953Y015270D01*
X009840Y015270D01*
X009783Y015214D01*
X009783Y014987D01*
X009840Y014930D01*
X009953Y014930D01*
X010010Y014987D01*
X009642Y015100D02*
X009642Y015214D01*
X009585Y015270D01*
X009415Y015270D01*
X009415Y014930D01*
X009415Y015043D02*
X009585Y015043D01*
X009642Y015100D01*
X008145Y014994D02*
X008145Y014590D01*
X007574Y014590D01*
X007180Y014590D02*
X006610Y014590D01*
X006216Y014590D02*
X005645Y014590D01*
X005645Y014994D01*
X005115Y014984D02*
X005115Y014580D01*
X004660Y014580D01*
X004267Y014580D02*
X003812Y014580D01*
X003418Y014580D02*
X002963Y014580D01*
X002570Y014580D02*
X002115Y014580D01*
X002115Y014984D01*
X002115Y015378D02*
X002115Y015782D01*
X002115Y016176D02*
X002115Y016580D01*
X002570Y016580D01*
X002963Y016580D02*
X003418Y016580D01*
X003812Y016580D02*
X004267Y016580D01*
X004660Y016580D02*
X005115Y016580D01*
X005115Y016176D01*
X005115Y015782D02*
X005115Y015378D01*
X005645Y015388D02*
X005645Y015792D01*
X005645Y016186D02*
X005645Y016590D01*
X006216Y016590D01*
X006610Y016590D02*
X007180Y016590D01*
X007574Y016590D02*
X008145Y016590D01*
X008145Y016186D01*
X008145Y015792D02*
X008145Y015388D01*
X007570Y015704D02*
X007570Y016026D01*
X007070Y016026D02*
X007070Y015704D01*
X009979Y013498D02*
X009979Y013262D01*
X010451Y013262D02*
X010451Y013498D01*
X010679Y013498D02*
X010679Y013262D01*
X011151Y013262D02*
X011151Y013498D01*
X011579Y013498D02*
X011579Y013262D01*
X012051Y013262D02*
X012051Y013498D01*
X012875Y012900D02*
X012875Y011660D01*
X012877Y011637D01*
X012882Y011614D01*
X012891Y011592D01*
X012904Y011572D01*
X012919Y011554D01*
X012937Y011539D01*
X012957Y011526D01*
X012979Y011517D01*
X013002Y011512D01*
X013025Y011510D01*
X016725Y011510D01*
X016748Y011512D01*
X016771Y011517D01*
X016793Y011526D01*
X016813Y011539D01*
X016831Y011554D01*
X016846Y011572D01*
X016859Y011592D01*
X016868Y011614D01*
X016873Y011637D01*
X016875Y011660D01*
X016875Y012900D01*
X016873Y012923D01*
X016868Y012946D01*
X016859Y012968D01*
X016846Y012988D01*
X016831Y013006D01*
X016813Y013021D01*
X016793Y013034D01*
X016771Y013043D01*
X016748Y013048D01*
X016725Y013050D01*
X013025Y013050D01*
X013002Y013048D01*
X012979Y013043D01*
X012957Y013034D01*
X012937Y013021D01*
X012919Y013006D01*
X012904Y012988D01*
X012891Y012968D01*
X012882Y012946D01*
X012877Y012923D01*
X012875Y012900D01*
X012875Y012480D02*
X012902Y012478D01*
X012929Y012473D01*
X012955Y012463D01*
X012979Y012451D01*
X013001Y012435D01*
X013021Y012417D01*
X013038Y012395D01*
X013053Y012372D01*
X013063Y012347D01*
X013071Y012321D01*
X013075Y012294D01*
X013075Y012266D01*
X013071Y012239D01*
X013063Y012213D01*
X013053Y012188D01*
X013038Y012165D01*
X013021Y012143D01*
X013001Y012125D01*
X012979Y012109D01*
X012955Y012097D01*
X012929Y012087D01*
X012902Y012082D01*
X012875Y012080D01*
X013895Y012217D02*
X013952Y012160D01*
X014065Y012160D01*
X014122Y012217D01*
X014122Y012500D01*
X014263Y012500D02*
X014263Y012160D01*
X014490Y012160D01*
X014632Y012160D02*
X014632Y012500D01*
X014858Y012160D01*
X014858Y012500D01*
X015000Y012444D02*
X015057Y012500D01*
X015170Y012500D01*
X015227Y012444D01*
X015227Y012387D01*
X015000Y012160D01*
X015227Y012160D01*
X015368Y012217D02*
X015595Y012444D01*
X015595Y012217D01*
X015538Y012160D01*
X015425Y012160D01*
X015368Y012217D01*
X015368Y012444D01*
X015425Y012500D01*
X015538Y012500D01*
X015595Y012444D01*
X015737Y012444D02*
X015793Y012500D01*
X015907Y012500D01*
X015963Y012444D01*
X015737Y012217D01*
X015793Y012160D01*
X015907Y012160D01*
X015963Y012217D01*
X015963Y012444D01*
X016105Y012444D02*
X016162Y012500D01*
X016275Y012500D01*
X016332Y012444D01*
X016332Y012387D01*
X016275Y012330D01*
X016332Y012273D01*
X016332Y012217D01*
X016275Y012160D01*
X016162Y012160D01*
X016105Y012217D01*
X016218Y012330D02*
X016275Y012330D01*
X015737Y012217D02*
X015737Y012444D01*
X017525Y012428D02*
X017525Y012255D01*
X017785Y012255D01*
X017785Y012428D01*
X017785Y012549D02*
X017785Y012679D01*
X017742Y012723D01*
X017568Y012723D01*
X017525Y012679D01*
X017525Y012549D01*
X017785Y012549D01*
X017655Y012341D02*
X017655Y012255D01*
X017785Y012133D02*
X017785Y011960D01*
X017525Y011960D01*
X017615Y011730D02*
X017615Y010530D01*
X017715Y010530D02*
X017715Y011730D01*
X017785Y012844D02*
X017612Y013017D01*
X017568Y013017D01*
X017525Y012974D01*
X017525Y012887D01*
X017568Y012844D01*
X017785Y012844D02*
X017785Y013017D01*
X016955Y014580D02*
X015555Y014580D01*
X015555Y014680D02*
X016955Y014680D01*
X016972Y014682D01*
X016989Y014686D01*
X017005Y014693D01*
X017019Y014703D01*
X017032Y014716D01*
X017042Y014730D01*
X017049Y014746D01*
X017053Y014763D01*
X017055Y014780D01*
X017155Y014780D02*
X017153Y014754D01*
X017148Y014728D01*
X017140Y014703D01*
X017128Y014680D01*
X017114Y014658D01*
X017096Y014639D01*
X017077Y014621D01*
X017055Y014607D01*
X017032Y014595D01*
X017007Y014587D01*
X016981Y014582D01*
X016955Y014580D01*
X015342Y014510D02*
X015169Y014510D01*
X015256Y014510D02*
X015256Y014770D01*
X015169Y014683D01*
X015048Y014727D02*
X015048Y014553D01*
X015004Y014510D01*
X014874Y014510D01*
X014874Y014770D01*
X015004Y014770D01*
X015048Y014727D01*
X014753Y014770D02*
X014580Y014770D01*
X014580Y014510D01*
X014753Y014510D01*
X014666Y014640D02*
X014580Y014640D01*
X014458Y014510D02*
X014285Y014510D01*
X014285Y014770D01*
X013895Y012500D02*
X013895Y012217D01*
X011175Y012240D02*
X011175Y011720D01*
X010955Y011720D01*
X011175Y011720D02*
X011175Y012040D01*
X011175Y011720D02*
X010055Y011720D01*
X010055Y012040D01*
X010055Y012240D02*
X010055Y011720D01*
X010275Y011720D01*
X010055Y012240D02*
X011175Y012240D01*
X010815Y010180D02*
X010277Y010180D01*
X009884Y010180D02*
X009346Y010180D01*
X008953Y010180D02*
X008415Y010180D01*
X008415Y009676D01*
X008415Y009282D02*
X008415Y008778D01*
X008415Y008384D02*
X008415Y007880D01*
X008953Y007880D01*
X009346Y007880D02*
X009884Y007880D01*
X009696Y008220D02*
X009374Y008220D01*
X009374Y008720D02*
X009696Y008720D01*
X010277Y007880D02*
X010815Y007880D01*
X010815Y008384D01*
X010815Y008778D02*
X010815Y009282D01*
X010815Y009676D02*
X010815Y010180D01*
X008755Y012059D02*
X008755Y012381D01*
X008255Y012381D02*
X008255Y012059D01*
X017715Y010530D02*
X017717Y010513D01*
X017721Y010496D01*
X017728Y010480D01*
X017738Y010466D01*
X017751Y010453D01*
X017765Y010443D01*
X017781Y010436D01*
X017798Y010432D01*
X017815Y010430D01*
X017815Y010330D02*
X017789Y010332D01*
X017763Y010337D01*
X017738Y010345D01*
X017715Y010357D01*
X017693Y010371D01*
X017674Y010389D01*
X017656Y010408D01*
X017642Y010430D01*
X017630Y010453D01*
X017622Y010478D01*
X017617Y010504D01*
X017615Y010530D01*
D13*
X001450Y010428D02*
X001362Y010340D01*
X001185Y010340D01*
X001097Y010428D01*
X001097Y010694D01*
X000920Y010694D02*
X001450Y010694D01*
X001450Y010428D01*
X001450Y010086D02*
X001450Y009821D01*
X001362Y009732D01*
X001008Y009732D01*
X000920Y009821D01*
X000920Y010086D01*
X001450Y010086D01*
X001097Y010517D02*
X000920Y010340D01*
X000920Y010948D02*
X001274Y010948D01*
X001450Y011124D01*
X001274Y011301D01*
X000920Y011301D01*
X001185Y011301D02*
X001185Y010948D01*
X001008Y011555D02*
X001362Y011555D01*
X001450Y011644D01*
X001450Y011821D01*
X001362Y011909D01*
X001008Y011909D01*
X000920Y011821D01*
X000920Y011644D01*
X001008Y011555D01*
X001008Y012163D02*
X000920Y012251D01*
X000920Y012517D01*
X001450Y012517D01*
X001450Y012251D01*
X001362Y012163D01*
X001274Y012163D01*
X001185Y012251D01*
X001185Y012517D01*
X001185Y012251D02*
X001097Y012163D01*
X001008Y012163D01*
X000920Y012745D02*
X000920Y012922D01*
X000920Y012833D02*
X001450Y012833D01*
X001450Y012745D02*
X001450Y012922D01*
X001450Y013176D02*
X000920Y013176D01*
X000920Y013530D02*
X001450Y013530D01*
X001274Y013353D01*
X001450Y013176D01*
X001450Y013784D02*
X001008Y013784D01*
X000920Y013872D01*
X000920Y014049D01*
X001008Y014137D01*
X001450Y014137D01*
X000920Y014391D02*
X000920Y014745D01*
X001450Y014745D01*
D14*
X003430Y014795D02*
X003575Y014795D01*
X003623Y014843D01*
X003623Y015037D01*
X003575Y015085D01*
X003430Y015085D01*
X003430Y014795D01*
X003725Y014795D02*
X003918Y014795D01*
X003821Y014795D02*
X003821Y015085D01*
X003725Y014988D01*
X005835Y015506D02*
X005835Y015651D01*
X005883Y015699D01*
X006077Y015699D01*
X006125Y015651D01*
X006125Y015506D01*
X005835Y015506D01*
X005883Y015800D02*
X005835Y015849D01*
X005835Y015945D01*
X005883Y015994D01*
X005932Y015994D01*
X006125Y015800D01*
X006125Y015994D01*
X007685Y015932D02*
X007782Y015835D01*
X007830Y015734D02*
X007878Y015686D01*
X007878Y015541D01*
X007878Y015637D02*
X007975Y015734D01*
X007975Y015835D02*
X007975Y016029D01*
X007975Y015932D02*
X007685Y015932D01*
X007733Y015734D02*
X007830Y015734D01*
X007733Y015734D02*
X007685Y015686D01*
X007685Y015541D01*
X007975Y015541D01*
X009615Y013545D02*
X009760Y013400D01*
X009760Y013594D01*
X009905Y013545D02*
X009615Y013545D01*
X009663Y013299D02*
X009615Y013251D01*
X009615Y013154D01*
X009663Y013106D01*
X009857Y013106D01*
X009905Y013154D01*
X009905Y013251D01*
X009857Y013299D01*
X010660Y014008D02*
X010708Y013960D01*
X010805Y013960D01*
X010853Y014008D01*
X010955Y014008D02*
X011003Y013960D01*
X011100Y013960D01*
X011148Y014008D01*
X011148Y014057D01*
X011100Y014105D01*
X011051Y014105D01*
X011100Y014105D02*
X011148Y014153D01*
X011148Y014202D01*
X011100Y014250D01*
X011003Y014250D01*
X010955Y014202D01*
X010853Y014202D02*
X010805Y014250D01*
X010708Y014250D01*
X010660Y014202D01*
X010660Y014008D01*
X012155Y013397D02*
X012445Y013397D01*
X012445Y013300D02*
X012445Y013494D01*
X012252Y013300D02*
X012155Y013397D01*
X012203Y013199D02*
X012155Y013151D01*
X012155Y013054D01*
X012203Y013006D01*
X012397Y013006D01*
X012445Y013054D01*
X012445Y013151D01*
X012397Y013199D01*
X013120Y012445D02*
X013120Y012349D01*
X013168Y012300D01*
X013168Y012199D02*
X013120Y012151D01*
X013120Y012054D01*
X013168Y012006D01*
X013362Y012006D01*
X013410Y012054D01*
X013410Y012151D01*
X013362Y012199D01*
X013410Y012300D02*
X013217Y012494D01*
X013168Y012494D01*
X013120Y012445D01*
X013410Y012494D02*
X013410Y012300D01*
X013410Y011906D02*
X013410Y011809D01*
X013410Y011858D02*
X013120Y011858D01*
X013120Y011906D02*
X013120Y011809D01*
X010879Y011825D02*
X010685Y011825D01*
X010782Y011825D02*
X010782Y012115D01*
X010685Y012018D01*
X010584Y012067D02*
X010536Y012115D01*
X010439Y012115D01*
X010391Y012067D01*
X010391Y011873D01*
X010439Y011825D01*
X010536Y011825D01*
X010584Y011873D01*
X010291Y011825D02*
X010194Y011825D01*
X010243Y011825D02*
X010243Y012115D01*
X010291Y012115D02*
X010194Y012115D01*
X008658Y012953D02*
X008610Y012905D01*
X008513Y012905D01*
X008465Y012953D01*
X008363Y012905D02*
X008267Y013002D01*
X008315Y013002D02*
X008170Y013002D01*
X008170Y012905D02*
X008170Y013195D01*
X008315Y013195D01*
X008363Y013147D01*
X008363Y013050D01*
X008315Y013002D01*
X008465Y013147D02*
X008513Y013195D01*
X008610Y013195D01*
X008658Y013147D01*
X008658Y013098D01*
X008610Y013050D01*
X008658Y013002D01*
X008658Y012953D01*
X008610Y013050D02*
X008561Y013050D01*
X008638Y009543D02*
X008687Y009543D01*
X008735Y009495D01*
X008783Y009543D01*
X008832Y009543D01*
X008880Y009495D01*
X008880Y009398D01*
X008832Y009350D01*
X008832Y009248D02*
X008638Y009248D01*
X008590Y009200D01*
X008590Y009055D01*
X008880Y009055D01*
X008880Y009200D01*
X008832Y009248D01*
X008638Y009350D02*
X008590Y009398D01*
X008590Y009495D01*
X008638Y009543D01*
X008735Y009495D02*
X008735Y009446D01*
X008697Y008683D02*
X008648Y008683D01*
X008600Y008635D01*
X008600Y008538D01*
X008648Y008490D01*
X008648Y008388D02*
X008745Y008388D01*
X008793Y008340D01*
X008793Y008195D01*
X008793Y008292D02*
X008890Y008388D01*
X008890Y008490D02*
X008697Y008683D01*
X008890Y008683D02*
X008890Y008490D01*
X008648Y008388D02*
X008600Y008340D01*
X008600Y008195D01*
X008890Y008195D01*
X012861Y008713D02*
X012909Y008665D01*
X013006Y008665D01*
X013054Y008713D01*
X013054Y008955D01*
X013155Y008858D02*
X013252Y008955D01*
X013252Y008665D01*
X013155Y008665D02*
X013349Y008665D01*
X012861Y008713D02*
X012861Y008955D01*
X016025Y009221D02*
X016073Y009221D01*
X016170Y009317D01*
X016315Y009317D01*
X016170Y009317D02*
X016073Y009414D01*
X016025Y009414D01*
X016122Y009515D02*
X016025Y009612D01*
X016315Y009612D01*
X016315Y009515D02*
X016315Y009709D01*
X014950Y004610D02*
X014854Y004610D01*
X014805Y004562D01*
X014704Y004562D02*
X014656Y004610D01*
X014559Y004610D01*
X014511Y004562D01*
X014511Y004368D01*
X014559Y004320D01*
X014656Y004320D01*
X014704Y004368D01*
X014805Y004320D02*
X014999Y004513D01*
X014999Y004562D01*
X014950Y004610D01*
X014999Y004320D02*
X014805Y004320D01*
X013509Y004440D02*
X013315Y004440D01*
X013460Y004585D01*
X013460Y004295D01*
X013214Y004295D02*
X013117Y004392D01*
X013166Y004392D02*
X013021Y004392D01*
X013021Y004295D02*
X013021Y004585D01*
X013166Y004585D01*
X013214Y004537D01*
X013214Y004440D01*
X013166Y004392D01*
X001470Y004462D02*
X001277Y004462D01*
X001180Y004559D01*
X001277Y004656D01*
X001470Y004656D01*
X001470Y004757D02*
X001470Y004950D01*
X001180Y004950D01*
X001180Y004757D01*
X001325Y004854D02*
X001325Y004950D01*
X001325Y005052D02*
X001277Y005100D01*
X001277Y005245D01*
X001277Y005148D02*
X001180Y005052D01*
X001325Y005052D02*
X001422Y005052D01*
X001470Y005100D01*
X001470Y005245D01*
X001180Y005245D01*
X001228Y006398D02*
X001180Y006446D01*
X001180Y006591D01*
X001470Y006591D01*
X001470Y006446D01*
X001422Y006398D01*
X001228Y006398D01*
X001180Y006693D02*
X001277Y006789D01*
X001277Y006741D02*
X001277Y006886D01*
X001180Y006886D02*
X001470Y006886D01*
X001470Y006741D01*
X001422Y006693D01*
X001325Y006693D01*
X001277Y006741D01*
X001325Y006987D02*
X001325Y007181D01*
X001373Y007181D02*
X001470Y007084D01*
X001373Y006987D01*
X001180Y006987D01*
X001180Y007181D02*
X001373Y007181D01*
X001422Y007282D02*
X001228Y007282D01*
X001180Y007330D01*
X001180Y007427D01*
X001228Y007475D01*
X001422Y007475D01*
X001470Y007427D01*
X001470Y007330D01*
X001422Y007282D01*
X001422Y007576D02*
X001373Y007576D01*
X001325Y007625D01*
X001325Y007770D01*
X001180Y007770D02*
X001180Y007625D01*
X001228Y007576D01*
X001277Y007576D01*
X001325Y007625D01*
X001422Y007576D02*
X001470Y007625D01*
X001470Y007770D01*
X001180Y007770D01*
X001180Y008166D02*
X001470Y008166D01*
X001470Y008359D02*
X001180Y008166D01*
X001180Y008359D02*
X001470Y008359D01*
X001470Y008459D02*
X001470Y008556D01*
X001470Y008507D02*
X001180Y008507D01*
X001180Y008459D02*
X001180Y008556D01*
X001180Y008657D02*
X001373Y008657D01*
X001470Y008754D01*
X001373Y008850D01*
X001180Y008850D01*
X001180Y008952D02*
X001470Y008952D01*
X001373Y009048D01*
X001470Y009145D01*
X001180Y009145D01*
X001325Y008850D02*
X001325Y008657D01*
X001325Y004066D02*
X001325Y003873D01*
X001373Y003873D02*
X001180Y003873D01*
X001180Y004066D02*
X001373Y004066D01*
X001470Y003970D01*
X001373Y003873D01*
D15*
X002106Y003365D02*
X002106Y013955D01*
X007224Y013955D01*
X007224Y003365D01*
X002106Y003365D01*
X004090Y008440D02*
X004090Y008615D01*
X004148Y008674D01*
X004206Y008674D01*
X004265Y008615D01*
X004265Y008440D01*
X004440Y008440D02*
X004440Y008615D01*
X004382Y008674D01*
X004323Y008674D01*
X004265Y008615D01*
X004440Y008440D02*
X004090Y008440D01*
X004090Y008808D02*
X004440Y008808D01*
X004440Y009042D01*
X004382Y009177D02*
X004090Y009177D01*
X004090Y009410D02*
X004382Y009410D01*
X004440Y009352D01*
X004440Y009235D01*
X004382Y009177D01*
X004440Y009545D02*
X004090Y009545D01*
X004090Y009779D01*
X004090Y009913D02*
X004090Y010147D01*
X004090Y010030D02*
X004440Y010030D01*
X004382Y010282D02*
X004148Y010282D01*
X004090Y010340D01*
X004090Y010457D01*
X004148Y010515D01*
X004382Y010515D01*
X004440Y010457D01*
X004440Y010340D01*
X004382Y010282D01*
X004382Y010650D02*
X004148Y010650D01*
X004090Y010708D01*
X004090Y010825D01*
X004148Y010884D01*
X004382Y010884D01*
X004440Y010825D01*
X004440Y010708D01*
X004382Y010650D01*
X004090Y011018D02*
X004090Y011252D01*
X004090Y011135D02*
X004440Y011135D01*
X004440Y011387D02*
X004090Y011387D01*
X004265Y011387D02*
X004265Y011620D01*
X004090Y011620D02*
X004440Y011620D01*
X004440Y009779D02*
X004440Y009545D01*
X004265Y009545D02*
X004265Y009662D01*
X010645Y002955D02*
X010570Y002880D01*
X010645Y002955D02*
X010795Y002955D01*
X010870Y002880D01*
X010870Y002805D01*
X010570Y002505D01*
X010870Y002505D01*
X010720Y001955D02*
X010720Y001505D01*
X010570Y001505D02*
X010870Y001505D01*
X010570Y001805D02*
X010720Y001955D01*
X012420Y000880D02*
X012420Y000730D01*
X012495Y000655D01*
X012645Y000655D01*
X012720Y000730D01*
X012720Y000805D01*
X012645Y000880D01*
X012420Y000880D01*
X012570Y001030D01*
X012720Y001105D01*
X016464Y008485D02*
X016976Y008485D01*
X016976Y009745D01*
X016464Y009745D01*
X016464Y008485D01*
D16*
X011415Y005235D02*
X011415Y004825D01*
X011278Y004962D01*
X011141Y004825D01*
X011141Y005235D01*
X010954Y005235D02*
X010954Y004825D01*
X010954Y005030D02*
X010681Y005030D01*
X010494Y004962D02*
X010494Y004893D01*
X010426Y004825D01*
X010289Y004825D01*
X010220Y004893D01*
X010289Y005030D02*
X010426Y005030D01*
X010494Y004962D01*
X010494Y005167D02*
X010426Y005235D01*
X010289Y005235D01*
X010220Y005167D01*
X010220Y005099D01*
X010289Y005030D01*
X010034Y004893D02*
X010034Y005167D01*
X009965Y005235D01*
X009828Y005235D01*
X009760Y005167D01*
X009760Y004893D01*
X009828Y004825D01*
X009965Y004825D01*
X010034Y004893D01*
X010681Y004825D02*
X010681Y005235D01*
D17*
X011575Y015830D02*
X011575Y016230D01*
X011375Y016030D02*
X011775Y016030D01*
D18*
X009823Y008471D03*
X009243Y008471D03*
X013057Y004949D03*
X013637Y004949D03*
D19*
X016464Y008406D02*
X016976Y008406D01*
X018515Y008440D02*
X018515Y007940D01*
X018765Y007690D01*
X019265Y007690D01*
X019515Y007940D01*
X019515Y008440D01*
X019265Y008690D01*
X019515Y008940D01*
X019515Y009440D01*
X019265Y009690D01*
X018765Y009690D01*
X018515Y009440D01*
X018515Y008940D01*
X018765Y008690D01*
X018515Y008440D01*
X016976Y009824D02*
X016464Y009824D01*
X018515Y010880D02*
X018765Y010630D01*
X019265Y010630D01*
X019515Y010880D01*
X019515Y011380D01*
X019265Y011630D01*
X018765Y011630D01*
X018515Y011380D01*
X018515Y010880D01*
X018765Y011630D02*
X019265Y011630D01*
X019515Y011880D01*
X019515Y012380D01*
X019265Y012630D01*
X019515Y012880D01*
X019515Y013380D01*
X019265Y013630D01*
X019515Y013880D01*
X019515Y014380D01*
X019265Y014630D01*
X018765Y014630D01*
X018515Y014380D01*
X018515Y013880D01*
X018765Y013630D01*
X018515Y013380D01*
X018515Y012880D01*
X018765Y012630D01*
X018515Y012380D01*
X018515Y011880D01*
X018765Y011630D01*
X016565Y015480D02*
X016065Y015480D01*
X015815Y015730D01*
X015565Y015480D01*
X015065Y015480D01*
X014815Y015730D01*
X014565Y015480D01*
X014065Y015480D01*
X013815Y015730D01*
X013815Y016230D01*
X014065Y016480D01*
X014565Y016480D01*
X014815Y016230D01*
X015065Y016480D01*
X015565Y016480D01*
X015815Y016230D01*
X016065Y016480D01*
X016565Y016480D01*
X016815Y016230D01*
X016815Y015730D01*
X016565Y015480D01*
X013815Y015730D02*
X013815Y016230D01*
X013565Y016480D01*
X013065Y016480D01*
X012815Y016230D01*
X012815Y015730D01*
X013065Y015480D01*
X013565Y015480D01*
X013815Y015730D01*
X011215Y015730D02*
X011215Y016230D01*
X010965Y016480D01*
X010465Y016480D01*
X010215Y016230D01*
X009965Y016480D01*
X009465Y016480D01*
X009215Y016230D01*
X009215Y015730D01*
X009465Y015480D01*
X009965Y015480D01*
X010215Y015730D01*
X010465Y015480D01*
X010965Y015480D01*
X011215Y015730D01*
X007224Y013955D02*
X007224Y013503D01*
X007224Y013955D02*
X006909Y013955D01*
X002421Y013955D02*
X002106Y013955D01*
X002106Y013503D01*
X002106Y005825D02*
X002106Y005615D01*
X007224Y005615D01*
X007224Y005825D01*
X007375Y001750D02*
X006875Y001750D01*
X006625Y001500D01*
X006375Y001750D01*
X005875Y001750D01*
X005625Y001500D01*
X005625Y001000D01*
X005875Y000750D01*
X006375Y000750D01*
X006625Y001000D01*
X006875Y000750D01*
X007375Y000750D01*
X007625Y001000D01*
X007875Y000750D01*
X008375Y000750D01*
X008625Y001000D01*
X008625Y001500D01*
X008375Y001750D01*
X007875Y001750D01*
X007625Y001500D01*
X007375Y001750D01*
X004575Y001500D02*
X004575Y001000D01*
X004325Y000750D01*
X003825Y000750D01*
X003575Y001000D01*
X003325Y000750D01*
X002825Y000750D01*
X002575Y001000D01*
X002575Y001500D01*
X002825Y001750D01*
X003325Y001750D01*
X003575Y001500D01*
X003825Y001750D01*
X004325Y001750D01*
X004575Y001500D01*
X018445Y001510D02*
X018445Y001010D01*
X018695Y000760D01*
X019195Y000760D01*
X019445Y001010D01*
X019445Y001510D01*
X019195Y001760D01*
X018695Y001760D01*
X018445Y002010D01*
X018445Y002510D01*
X018695Y002760D01*
X019195Y002760D01*
X019445Y002510D01*
X019445Y002010D01*
X019195Y001760D01*
X018695Y001760D02*
X018445Y001510D01*
X018695Y002760D02*
X018445Y003010D01*
X018445Y003510D01*
X018695Y003760D01*
X019195Y003760D01*
X019445Y003510D01*
X019445Y003010D01*
X019195Y002760D01*
X019195Y003760D02*
X019445Y004010D01*
X019445Y004510D01*
X019195Y004760D01*
X018695Y004760D01*
X018445Y005010D01*
X018445Y005510D01*
X018695Y005760D01*
X019195Y005760D01*
X019445Y005510D01*
X019445Y005010D01*
X019195Y004760D01*
X018695Y004760D02*
X018445Y004510D01*
X018445Y004010D01*
X018695Y003760D01*
X018695Y005760D02*
X018445Y006010D01*
X018445Y006510D01*
X018695Y006760D01*
X019195Y006760D01*
X019445Y006510D01*
X019445Y006010D01*
X019195Y005760D01*
D20*
X018945Y005260D03*
X018945Y004260D03*
X018945Y003260D03*
X018945Y002260D03*
X018945Y001260D03*
X018945Y006260D03*
D21*
X015145Y003580D02*
X009945Y003580D01*
X009945Y000880D01*
X011745Y000880D01*
X013345Y000880D02*
X015145Y000880D01*
X015145Y003580D01*
X016875Y011650D02*
X012875Y011650D01*
D22*
X013125Y011285D03*
X013625Y011285D03*
X014125Y011295D03*
X014625Y011285D03*
X015125Y011285D03*
X015625Y011285D03*
X016125Y011285D03*
X016625Y011285D03*
X016625Y013275D03*
X016125Y013275D03*
X015625Y013275D03*
X015125Y013275D03*
X014625Y013275D03*
X014125Y013275D03*
X013625Y013275D03*
X013125Y013275D03*
D23*
X013315Y015980D03*
X014315Y015980D03*
X015315Y015980D03*
X016315Y015980D03*
X019015Y014130D03*
X019015Y013130D03*
X019015Y012130D03*
X019015Y011130D03*
X019015Y009190D03*
X019015Y008190D03*
X013545Y002730D03*
X013545Y001730D03*
X012545Y001730D03*
X012545Y002730D03*
X011545Y002730D03*
X011545Y001730D03*
X008125Y001250D03*
X007125Y001250D03*
X006125Y001250D03*
X004075Y001250D03*
X003075Y001250D03*
X009715Y015980D03*
X010715Y015980D03*
D24*
X012490Y008872D03*
X012490Y008557D03*
X012490Y008242D03*
X012490Y007927D03*
X012490Y007613D03*
X012490Y007298D03*
X012490Y006983D03*
X012490Y006668D03*
X015680Y006668D03*
X015680Y006983D03*
X015680Y007298D03*
X015680Y007613D03*
X015680Y007927D03*
X015680Y008242D03*
X015680Y008557D03*
X015680Y008872D03*
D25*
X015187Y009365D03*
X014872Y009365D03*
X014557Y009365D03*
X014242Y009365D03*
X013928Y009365D03*
X013613Y009365D03*
X013298Y009365D03*
X012983Y009365D03*
X012983Y006175D03*
X013298Y006175D03*
X013613Y006175D03*
X013928Y006175D03*
X014242Y006175D03*
X014557Y006175D03*
X014872Y006175D03*
X015187Y006175D03*
D26*
X006313Y015510D03*
X006313Y016100D03*
X006677Y016100D03*
D27*
X006593Y016051D03*
X006397Y016051D03*
X006397Y015559D03*
X006593Y015559D03*
D28*
X006495Y015574D03*
X006495Y016036D03*
D29*
X006495Y015766D03*
X003654Y015380D03*
X009654Y009280D03*
D30*
X009871Y009457D03*
X006672Y015549D03*
X003871Y015557D03*
D31*
X006677Y015426D03*
D32*
X007321Y015577D03*
X007321Y016157D03*
X008504Y012508D03*
X008504Y011928D03*
D33*
X009320Y009462D03*
X009320Y009098D03*
X009910Y009098D03*
X003910Y015198D03*
X003320Y015198D03*
X003320Y015562D03*
D34*
X003369Y015478D03*
X003369Y015282D03*
X003861Y015282D03*
X003861Y015478D03*
X009369Y009378D03*
X009369Y009182D03*
X009861Y009182D03*
X009861Y009378D03*
D35*
X009846Y009280D03*
X009384Y009280D03*
X003846Y015380D03*
X003384Y015380D03*
D36*
X003994Y015562D03*
X009994Y009462D03*
D37*
X010615Y011585D03*
X010245Y012375D03*
X010985Y012375D03*
D38*
X008987Y005566D02*
X008843Y005566D01*
X008824Y005376D01*
X008760Y005355D01*
X008700Y005324D01*
X008551Y005445D01*
X008450Y005344D01*
X008571Y005195D01*
X008540Y005135D01*
X008519Y005071D01*
X008329Y005052D01*
X008329Y004908D01*
X008519Y004889D01*
X008540Y004825D01*
X008571Y004765D01*
X008450Y004616D01*
X008551Y004515D01*
X008700Y004636D01*
X008760Y004605D01*
X008844Y004809D01*
X008807Y004831D01*
X008775Y004860D01*
X008751Y004896D01*
X008736Y004937D01*
X008730Y004980D01*
X008736Y005024D01*
X008751Y005065D01*
X008776Y005102D01*
X008809Y005131D01*
X008848Y005152D01*
X008891Y005163D01*
X008935Y005163D01*
X008978Y005153D01*
X009017Y005133D01*
X009051Y005105D01*
X009077Y005069D01*
X009093Y005028D01*
X009099Y004984D01*
X009095Y004940D01*
X009080Y004898D01*
X009056Y004861D01*
X009024Y004831D01*
X008986Y004809D01*
X009070Y004605D01*
X009130Y004636D01*
X009279Y004515D01*
X009380Y004616D01*
X009259Y004765D01*
X009290Y004825D01*
X009311Y004889D01*
X009501Y004908D01*
X009501Y005052D01*
X009311Y005071D01*
X009290Y005135D01*
X009259Y005195D01*
X009380Y005344D01*
X009279Y005445D01*
X009130Y005324D01*
X009070Y005355D01*
X009006Y005376D01*
X008987Y005566D01*
X008992Y005518D02*
X008838Y005518D01*
X008832Y005460D02*
X008998Y005460D01*
X009004Y005402D02*
X008826Y005402D01*
X008740Y005345D02*
X009090Y005345D01*
X009155Y005345D02*
X009379Y005345D01*
X009334Y005287D02*
X008496Y005287D01*
X008451Y005345D02*
X008675Y005345D01*
X008604Y005402D02*
X008508Y005402D01*
X008542Y005230D02*
X009288Y005230D01*
X009271Y005172D02*
X008559Y005172D01*
X008533Y005115D02*
X008791Y005115D01*
X008748Y005057D02*
X008379Y005057D01*
X008329Y005000D02*
X008733Y005000D01*
X008735Y004942D02*
X008329Y004942D01*
X008521Y004884D02*
X008758Y004884D01*
X008813Y004827D02*
X008539Y004827D01*
X008568Y004769D02*
X008828Y004769D01*
X008804Y004712D02*
X008527Y004712D01*
X008480Y004654D02*
X008780Y004654D01*
X008652Y004597D02*
X008469Y004597D01*
X008527Y004539D02*
X008581Y004539D01*
X009026Y004712D02*
X009303Y004712D01*
X009262Y004769D02*
X009002Y004769D01*
X009016Y004827D02*
X009291Y004827D01*
X009309Y004884D02*
X009071Y004884D01*
X009095Y004942D02*
X009501Y004942D01*
X009501Y005000D02*
X009097Y005000D01*
X009081Y005057D02*
X009451Y005057D01*
X009297Y005115D02*
X009039Y005115D01*
X009226Y005402D02*
X009322Y005402D01*
X009350Y004654D02*
X009050Y004654D01*
X009178Y004597D02*
X009361Y004597D01*
X009303Y004539D02*
X009249Y004539D01*
M02*
