G75*
G70*
%OFA0B0*%
%FSLAX24Y24*%
%IPPOS*%
%LPD*%
%AMOC8*
5,1,8,0,0,1.08239X$1,22.5*
%
%ADD10R,0.0512X0.0591*%
%ADD11C,0.0740*%
%ADD12R,0.0315X0.0472*%
%ADD13R,0.0260X0.0800*%
%ADD14R,0.0500X0.0220*%
%ADD15R,0.0220X0.0500*%
%ADD16R,0.0472X0.0315*%
%ADD17R,0.0472X0.0472*%
%ADD18R,0.0591X0.0512*%
%ADD19R,0.0669X0.0276*%
%ADD20OC8,0.0540*%
%ADD21R,0.0630X0.0394*%
%ADD22R,0.0394X0.0630*%
%ADD23R,0.0394X0.0551*%
%ADD24C,0.0240*%
%ADD25C,0.0376*%
%ADD26C,0.0160*%
%ADD27C,0.0320*%
%ADD28C,0.0120*%
%ADD29C,0.0100*%
D10*
X009200Y008470D03*
X009870Y008470D03*
X013010Y004950D03*
X013680Y004950D03*
D11*
X018895Y005260D03*
X018995Y004260D03*
X018895Y003260D03*
X018995Y002260D03*
X018895Y001260D03*
X018995Y006260D03*
X019015Y008190D03*
X019015Y009190D03*
X019015Y011130D03*
X019015Y012130D03*
X019015Y013130D03*
X019015Y014130D03*
X016315Y015980D03*
X015315Y015980D03*
X014315Y015980D03*
X013315Y015980D03*
X010715Y015980D03*
X009715Y015980D03*
X008125Y001250D03*
X007125Y001250D03*
X006125Y001250D03*
X004075Y001250D03*
X003075Y001250D03*
D12*
X014431Y004950D03*
X015139Y004950D03*
D13*
X015125Y011070D03*
X014625Y011070D03*
X014125Y011070D03*
X013625Y011070D03*
X013125Y011070D03*
X015625Y011070D03*
X016125Y011070D03*
X016625Y011070D03*
X016625Y013490D03*
X016125Y013490D03*
X015625Y013490D03*
X015125Y013490D03*
X014625Y013490D03*
X014125Y013490D03*
X013625Y013490D03*
X013125Y013490D03*
D14*
X012395Y008872D03*
X012395Y008557D03*
X012395Y008242D03*
X012395Y007927D03*
X012395Y007613D03*
X012395Y007298D03*
X012395Y006983D03*
X012395Y006668D03*
X015775Y006668D03*
X015775Y006983D03*
X015775Y007298D03*
X015775Y007613D03*
X015775Y007927D03*
X015775Y008242D03*
X015775Y008557D03*
X015775Y008872D03*
D15*
X015187Y009460D03*
X014872Y009460D03*
X014557Y009460D03*
X014242Y009460D03*
X013928Y009460D03*
X013613Y009460D03*
X013298Y009460D03*
X012983Y009460D03*
X012983Y006080D03*
X013298Y006080D03*
X013613Y006080D03*
X013928Y006080D03*
X014242Y006080D03*
X014557Y006080D03*
X014872Y006080D03*
X015187Y006080D03*
D16*
X011815Y013026D03*
X011815Y013734D03*
X010915Y013734D03*
X010215Y013734D03*
X010215Y013026D03*
X010915Y013026D03*
D17*
X010028Y009280D03*
X009202Y009280D03*
X006495Y015392D03*
X006495Y016218D03*
X004028Y015380D03*
X003202Y015380D03*
D18*
X007320Y015530D03*
X007320Y016200D03*
X008505Y012555D03*
X008505Y011885D03*
D19*
X016720Y009587D03*
X016720Y009115D03*
X016720Y008643D03*
D20*
X013545Y002730D03*
X013545Y001730D03*
X012545Y001730D03*
X012545Y002730D03*
X011545Y002730D03*
X011545Y001730D03*
D21*
X007165Y006160D03*
X007165Y006751D03*
X007165Y007341D03*
X007165Y007932D03*
X007165Y008522D03*
X007165Y009113D03*
X007165Y009703D03*
X007165Y010294D03*
X007165Y010884D03*
X007165Y011475D03*
X007165Y012066D03*
X007165Y012656D03*
X007165Y013251D03*
X002165Y013251D03*
X002165Y012656D03*
X002165Y012066D03*
X002165Y011475D03*
X002165Y010884D03*
X002165Y010294D03*
X002165Y009703D03*
X002165Y009113D03*
X002165Y008522D03*
X002165Y007932D03*
X002165Y007341D03*
X002165Y006751D03*
X002165Y006160D03*
D22*
X002618Y013955D03*
X003204Y013955D03*
X003791Y013955D03*
X004378Y013955D03*
X004964Y013955D03*
X005551Y013955D03*
X006137Y013955D03*
X006724Y013955D03*
D23*
X010241Y012413D03*
X010989Y012413D03*
X010615Y011547D03*
D24*
X013125Y013490D02*
X013125Y014790D01*
X014315Y015980D01*
X015315Y015980D02*
X013625Y014290D01*
X013625Y013490D01*
X014125Y013490D02*
X014125Y014090D01*
X014315Y014280D01*
X014615Y014280D01*
X016315Y015980D01*
X015915Y014280D02*
X018865Y014280D01*
X019015Y014130D01*
X019015Y013130D02*
X018565Y012680D01*
X015215Y012680D01*
X015125Y012770D01*
X015125Y013490D01*
X014625Y013490D02*
X014625Y012470D01*
X015115Y011980D01*
X018865Y011980D01*
X019015Y012130D01*
X016625Y011070D02*
X016630Y010870D01*
X016625Y010380D01*
X016625Y011070D02*
X016125Y011070D01*
X016720Y009115D02*
X017345Y009115D01*
X017345Y009050D01*
X017340Y008825D01*
X016325Y008080D02*
X016325Y007610D01*
X015778Y007610D01*
X015775Y007613D01*
X016325Y007610D02*
X016745Y007610D01*
X017735Y006620D01*
X017735Y004380D01*
X017925Y004190D01*
X018925Y004190D01*
X018995Y004260D01*
X016325Y008080D02*
X016163Y008242D01*
X015775Y008242D01*
X015773Y008240D01*
X014735Y008240D01*
X014418Y008557D01*
X012395Y008557D01*
X011705Y008557D01*
X011705Y008550D01*
X011698Y008557D01*
X011705Y008550D02*
X011705Y008010D01*
X011788Y007927D01*
X012395Y007927D01*
X015625Y013490D02*
X015625Y013990D01*
X015915Y014280D01*
X006550Y015300D02*
X006000Y015295D01*
X006495Y015392D02*
X006550Y015300D01*
X002610Y014585D02*
X002610Y013955D01*
X002618Y013955D01*
D25*
X002610Y014585D03*
X004515Y015380D03*
X006000Y015295D03*
X007190Y013795D03*
X010215Y014180D03*
X011515Y012480D03*
X012915Y009980D03*
X012215Y009280D03*
X010515Y009280D03*
X009915Y007880D03*
X011715Y007280D03*
X012940Y007520D03*
X013685Y007790D03*
X014780Y007630D03*
X015215Y006680D03*
X015615Y006070D03*
X013835Y005570D03*
X012505Y006190D03*
X015215Y008780D03*
X014315Y009980D03*
X016625Y010380D03*
X017340Y008825D03*
X008015Y006780D03*
X008015Y006180D03*
D26*
X000911Y000510D02*
X000545Y000510D01*
X000545Y000778D01*
X000744Y000579D01*
X000911Y000510D01*
X000744Y000579D02*
X000744Y000579D01*
X000726Y000597D02*
X000545Y000597D01*
X000545Y000756D02*
X000567Y000756D01*
X001539Y000510D02*
X004518Y000510D01*
X004271Y000757D01*
X004180Y000720D01*
X003970Y000720D01*
X003775Y000801D01*
X003626Y000950D01*
X003575Y001072D01*
X003524Y000950D01*
X003375Y000801D01*
X003180Y000720D01*
X002970Y000720D01*
X002775Y000801D01*
X002626Y000950D01*
X002545Y001145D01*
X002545Y001355D01*
X002626Y001550D01*
X002775Y001699D01*
X002970Y001780D01*
X003180Y001780D01*
X003375Y001699D01*
X003524Y001550D01*
X003575Y001428D01*
X003626Y001550D01*
X003775Y001699D01*
X003970Y001780D01*
X004180Y001780D01*
X004261Y001747D01*
X004524Y002010D01*
X006214Y002010D01*
X007334Y003130D01*
X000545Y003130D01*
X000545Y001822D01*
X000744Y002021D01*
X000744Y002021D01*
X001056Y002150D01*
X001394Y002150D01*
X001706Y002021D01*
X001706Y002021D01*
X001946Y001781D01*
X001946Y001781D01*
X002075Y001469D01*
X002075Y001131D01*
X001946Y000819D01*
X001946Y000819D01*
X001706Y000579D01*
X001706Y000579D01*
X001539Y000510D01*
X001724Y000597D02*
X004431Y000597D01*
X004273Y000756D02*
X004266Y000756D01*
X003884Y000756D02*
X003266Y000756D01*
X003489Y000914D02*
X003661Y000914D01*
X003625Y001548D02*
X003525Y001548D01*
X003358Y001707D02*
X003792Y001707D01*
X004379Y001865D02*
X001862Y001865D01*
X001977Y001707D02*
X002792Y001707D01*
X002625Y001548D02*
X002042Y001548D01*
X002075Y001390D02*
X002559Y001390D01*
X002545Y001231D02*
X002075Y001231D01*
X002051Y001073D02*
X002575Y001073D01*
X002661Y000914D02*
X001985Y000914D01*
X001883Y000756D02*
X002884Y000756D01*
X001699Y002024D02*
X006227Y002024D01*
X006386Y002182D02*
X000545Y002182D01*
X000545Y002024D02*
X000751Y002024D01*
X000588Y001865D02*
X000545Y001865D01*
X000545Y002341D02*
X006544Y002341D01*
X006703Y002499D02*
X000545Y002499D01*
X000545Y002658D02*
X006861Y002658D01*
X007020Y002816D02*
X000545Y002816D01*
X000545Y002975D02*
X007178Y002975D01*
X007415Y003211D02*
X007415Y005803D01*
X007546Y005803D01*
X007640Y005897D01*
X007640Y005960D01*
X007743Y005960D01*
X007818Y005885D01*
X007946Y005832D01*
X008084Y005832D01*
X008087Y005833D01*
X007645Y005391D01*
X007645Y003441D01*
X007415Y003211D01*
X007415Y003292D02*
X007495Y003292D01*
X007415Y003450D02*
X007645Y003450D01*
X007645Y003609D02*
X007415Y003609D01*
X007415Y003767D02*
X007645Y003767D01*
X007645Y003926D02*
X007415Y003926D01*
X007415Y004084D02*
X007645Y004084D01*
X007645Y004243D02*
X007415Y004243D01*
X007415Y004401D02*
X007645Y004401D01*
X007645Y004560D02*
X007415Y004560D01*
X007415Y004718D02*
X007645Y004718D01*
X007645Y004877D02*
X007415Y004877D01*
X007415Y005035D02*
X007645Y005035D01*
X007645Y005194D02*
X007415Y005194D01*
X007415Y005352D02*
X007645Y005352D01*
X007764Y005511D02*
X007415Y005511D01*
X007415Y005669D02*
X007923Y005669D01*
X008081Y005828D02*
X007571Y005828D01*
X007640Y006400D02*
X007640Y006423D01*
X007608Y006455D01*
X007640Y006487D01*
X007640Y006560D01*
X007743Y006560D01*
X007818Y006485D01*
X007830Y006480D01*
X007818Y006475D01*
X007743Y006400D01*
X007640Y006400D01*
X007614Y006462D02*
X007804Y006462D01*
X008200Y006480D02*
X008212Y006485D01*
X008310Y006583D01*
X008363Y006711D01*
X008363Y006849D01*
X008310Y006977D01*
X008212Y007075D01*
X008084Y007128D01*
X007946Y007128D01*
X007818Y007075D01*
X007743Y007000D01*
X007640Y007000D01*
X007640Y007014D01*
X007608Y007046D01*
X007640Y007078D01*
X007640Y007604D01*
X007608Y007636D01*
X007640Y007669D01*
X007640Y008195D01*
X007608Y008227D01*
X007640Y008259D01*
X007640Y008785D01*
X007608Y008817D01*
X007640Y008850D01*
X007640Y009376D01*
X007608Y009408D01*
X007640Y009440D01*
X007640Y009966D01*
X007608Y009999D01*
X007640Y010031D01*
X007640Y010557D01*
X007608Y010589D01*
X007640Y010621D01*
X007640Y011148D01*
X007608Y011180D01*
X007640Y011212D01*
X007640Y011738D01*
X007608Y011770D01*
X007640Y011802D01*
X007640Y011826D01*
X008050Y011826D01*
X008050Y011563D01*
X008143Y011469D01*
X008867Y011469D01*
X008960Y011563D01*
X008960Y012208D01*
X008948Y012220D01*
X008960Y012232D01*
X008960Y012235D01*
X009195Y012235D01*
X009195Y011316D01*
X009244Y011199D01*
X009334Y011109D01*
X011378Y009065D01*
X011378Y008494D01*
X011425Y008379D01*
X011425Y007954D01*
X011468Y007851D01*
X011481Y007838D01*
X011135Y007491D01*
X011135Y006121D01*
X011004Y005990D01*
X008313Y005990D01*
X008363Y006111D01*
X008363Y006249D01*
X008310Y006377D01*
X008212Y006475D01*
X008200Y006480D01*
X008226Y006462D02*
X011135Y006462D01*
X011135Y006620D02*
X008326Y006620D01*
X008363Y006779D02*
X011135Y006779D01*
X011135Y006937D02*
X008327Y006937D01*
X008163Y007096D02*
X011135Y007096D01*
X011135Y007254D02*
X007640Y007254D01*
X007640Y007096D02*
X007867Y007096D01*
X007640Y007413D02*
X011135Y007413D01*
X011215Y007571D02*
X010079Y007571D01*
X010112Y007585D02*
X009984Y007532D01*
X009846Y007532D01*
X009718Y007585D01*
X009620Y007683D01*
X009567Y007811D01*
X009567Y007949D01*
X009594Y008015D01*
X009547Y008015D01*
X009535Y008027D01*
X009523Y008015D01*
X008878Y008015D01*
X008784Y008108D01*
X008784Y008832D01*
X008868Y008915D01*
X008805Y008978D01*
X008805Y009582D01*
X008899Y009676D01*
X009504Y009676D01*
X009598Y009582D01*
X009598Y008978D01*
X009534Y008914D01*
X009535Y008913D01*
X009547Y008925D01*
X009684Y008925D01*
X009632Y008978D01*
X009632Y009582D01*
X009726Y009676D01*
X010331Y009676D01*
X010399Y009609D01*
X010446Y009628D01*
X010584Y009628D01*
X010712Y009575D01*
X010810Y009477D01*
X010863Y009349D01*
X010863Y009211D01*
X010810Y009083D01*
X010712Y008985D01*
X010584Y008932D01*
X010446Y008932D01*
X010399Y008951D01*
X010331Y008884D01*
X010233Y008884D01*
X010286Y008832D01*
X010286Y008108D01*
X010223Y008046D01*
X010263Y007949D01*
X010263Y007811D01*
X010210Y007683D01*
X010112Y007585D01*
X010229Y007730D02*
X011373Y007730D01*
X011452Y007888D02*
X010263Y007888D01*
X010224Y008047D02*
X011425Y008047D01*
X011425Y008205D02*
X010286Y008205D01*
X010286Y008364D02*
X011425Y008364D01*
X011378Y008522D02*
X010286Y008522D01*
X010286Y008681D02*
X011378Y008681D01*
X011378Y008839D02*
X010278Y008839D01*
X010725Y008998D02*
X011378Y008998D01*
X011286Y009156D02*
X010840Y009156D01*
X010863Y009315D02*
X011128Y009315D01*
X010969Y009473D02*
X010812Y009473D01*
X010811Y009632D02*
X010376Y009632D01*
X010652Y009790D02*
X007640Y009790D01*
X007640Y009632D02*
X008854Y009632D01*
X008805Y009473D02*
X007640Y009473D01*
X007640Y009315D02*
X008805Y009315D01*
X008805Y009156D02*
X007640Y009156D01*
X007640Y008998D02*
X008805Y008998D01*
X008792Y008839D02*
X007629Y008839D01*
X007640Y008681D02*
X008784Y008681D01*
X008784Y008522D02*
X007640Y008522D01*
X007640Y008364D02*
X008784Y008364D01*
X008784Y008205D02*
X007630Y008205D01*
X007640Y008047D02*
X008846Y008047D01*
X009200Y008470D02*
X009215Y008480D01*
X009215Y009280D01*
X009202Y009280D01*
X009598Y009315D02*
X009632Y009315D01*
X009632Y009473D02*
X009598Y009473D01*
X009549Y009632D02*
X009681Y009632D01*
X009632Y009156D02*
X009598Y009156D01*
X009598Y008998D02*
X009632Y008998D01*
X010494Y009949D02*
X007640Y009949D01*
X007640Y010107D02*
X010335Y010107D01*
X010177Y010266D02*
X007640Y010266D01*
X007640Y010424D02*
X010018Y010424D01*
X009860Y010583D02*
X007614Y010583D01*
X007640Y010741D02*
X009701Y010741D01*
X009543Y010900D02*
X007640Y010900D01*
X007640Y011058D02*
X009384Y011058D01*
X009236Y011217D02*
X007640Y011217D01*
X007640Y011375D02*
X009195Y011375D01*
X009195Y011534D02*
X008931Y011534D01*
X008960Y011692D02*
X009195Y011692D01*
X009195Y011851D02*
X008960Y011851D01*
X008960Y012009D02*
X009195Y012009D01*
X009195Y012168D02*
X008960Y012168D01*
X008505Y011885D02*
X008325Y012066D01*
X007165Y012066D01*
X006690Y012009D02*
X002640Y012009D01*
X002640Y011851D02*
X006690Y011851D01*
X006690Y011802D02*
X006722Y011770D01*
X006690Y011738D01*
X006690Y011212D01*
X006722Y011180D01*
X006690Y011148D01*
X006690Y010621D01*
X006722Y010589D01*
X006690Y010557D01*
X006690Y010031D01*
X006722Y009999D01*
X006690Y009966D01*
X006690Y009440D01*
X006722Y009408D01*
X006690Y009376D01*
X006690Y008850D01*
X006722Y008817D01*
X006690Y008785D01*
X006690Y008259D01*
X006722Y008227D01*
X006690Y008195D01*
X006690Y007669D01*
X006722Y007636D01*
X006690Y007604D01*
X006690Y007078D01*
X006722Y007046D01*
X006690Y007014D01*
X006690Y006487D01*
X006722Y006455D01*
X006690Y006423D01*
X006690Y005897D01*
X006757Y005830D01*
X002573Y005830D01*
X002640Y005897D01*
X002640Y006423D01*
X002608Y006455D01*
X002640Y006487D01*
X002640Y007014D01*
X002608Y007046D01*
X002640Y007078D01*
X002640Y007604D01*
X002608Y007636D01*
X002640Y007669D01*
X002640Y008195D01*
X002608Y008227D01*
X002640Y008259D01*
X002640Y008785D01*
X002608Y008817D01*
X002640Y008850D01*
X002640Y009376D01*
X002608Y009408D01*
X002640Y009440D01*
X002640Y009966D01*
X002608Y009999D01*
X002640Y010031D01*
X002640Y010557D01*
X002608Y010589D01*
X002640Y010621D01*
X002640Y011148D01*
X002608Y011180D01*
X002640Y011212D01*
X002640Y011738D01*
X002608Y011770D01*
X002640Y011802D01*
X002640Y012329D01*
X002608Y012361D01*
X002640Y012393D01*
X002640Y012919D01*
X002606Y012953D01*
X002640Y012987D01*
X002640Y013480D01*
X002881Y013480D01*
X002911Y013510D01*
X002941Y013480D01*
X003467Y013480D01*
X003498Y013510D01*
X003528Y013480D01*
X004054Y013480D01*
X004084Y013510D01*
X004114Y013480D01*
X004641Y013480D01*
X004671Y013510D01*
X004701Y013480D01*
X005227Y013480D01*
X005258Y013510D01*
X005288Y013480D01*
X005814Y013480D01*
X005844Y013510D01*
X005874Y013480D01*
X006401Y013480D01*
X006431Y013510D01*
X006461Y013480D01*
X006690Y013480D01*
X006690Y012987D01*
X006724Y012953D01*
X006690Y012919D01*
X006690Y012393D01*
X006722Y012361D01*
X006690Y012329D01*
X006690Y011802D01*
X006690Y011692D02*
X002640Y011692D01*
X002640Y011534D02*
X006690Y011534D01*
X006690Y011375D02*
X002640Y011375D01*
X002640Y011217D02*
X006690Y011217D01*
X006690Y011058D02*
X002640Y011058D01*
X002640Y010900D02*
X006690Y010900D01*
X006690Y010741D02*
X002640Y010741D01*
X002614Y010583D02*
X006716Y010583D01*
X006690Y010424D02*
X002640Y010424D01*
X002640Y010266D02*
X006690Y010266D01*
X006690Y010107D02*
X002640Y010107D01*
X002640Y009949D02*
X006690Y009949D01*
X006690Y009790D02*
X002640Y009790D01*
X002640Y009632D02*
X006690Y009632D01*
X006690Y009473D02*
X002640Y009473D01*
X002640Y009315D02*
X006690Y009315D01*
X006690Y009156D02*
X002640Y009156D01*
X002640Y008998D02*
X006690Y008998D01*
X006701Y008839D02*
X002629Y008839D01*
X002640Y008681D02*
X006690Y008681D01*
X006690Y008522D02*
X002640Y008522D01*
X002640Y008364D02*
X006690Y008364D01*
X006700Y008205D02*
X002630Y008205D01*
X002640Y008047D02*
X006690Y008047D01*
X006690Y007888D02*
X002640Y007888D01*
X002640Y007730D02*
X006690Y007730D01*
X006690Y007571D02*
X002640Y007571D01*
X002640Y007413D02*
X006690Y007413D01*
X006690Y007254D02*
X002640Y007254D01*
X002640Y007096D02*
X006690Y007096D01*
X006690Y006937D02*
X002640Y006937D01*
X002640Y006779D02*
X006690Y006779D01*
X006690Y006620D02*
X002640Y006620D01*
X002614Y006462D02*
X006716Y006462D01*
X006690Y006303D02*
X002640Y006303D01*
X002640Y006145D02*
X006690Y006145D01*
X006690Y005986D02*
X002640Y005986D01*
X001757Y005830D02*
X000545Y005830D01*
X000545Y015488D01*
X000744Y015289D01*
X001056Y015160D01*
X001394Y015160D01*
X001499Y015203D01*
X001112Y014816D01*
X001075Y014728D01*
X001075Y014632D01*
X001075Y008132D01*
X001112Y008044D01*
X001179Y007977D01*
X001427Y007728D01*
X001516Y007692D01*
X001690Y007692D01*
X001690Y007669D01*
X001722Y007636D01*
X001690Y007604D01*
X001690Y007078D01*
X001722Y007046D01*
X001690Y007014D01*
X001690Y006487D01*
X001722Y006455D01*
X001690Y006423D01*
X001690Y005897D01*
X001757Y005830D01*
X001690Y005986D02*
X000545Y005986D01*
X000545Y006145D02*
X001690Y006145D01*
X001690Y006303D02*
X000545Y006303D01*
X000545Y006462D02*
X001716Y006462D01*
X001690Y006620D02*
X000545Y006620D01*
X000545Y006779D02*
X001690Y006779D01*
X001690Y006937D02*
X000545Y006937D01*
X000545Y007096D02*
X001690Y007096D01*
X001690Y007254D02*
X000545Y007254D01*
X000545Y007413D02*
X001690Y007413D01*
X001690Y007571D02*
X000545Y007571D01*
X000545Y007730D02*
X001426Y007730D01*
X001268Y007888D02*
X000545Y007888D01*
X000545Y008047D02*
X001111Y008047D01*
X001075Y008205D02*
X000545Y008205D01*
X000545Y008364D02*
X001075Y008364D01*
X001075Y008522D02*
X000545Y008522D01*
X000545Y008681D02*
X001075Y008681D01*
X001075Y008839D02*
X000545Y008839D01*
X000545Y008998D02*
X001075Y008998D01*
X001075Y009156D02*
X000545Y009156D01*
X000545Y009315D02*
X001075Y009315D01*
X001075Y009473D02*
X000545Y009473D01*
X000545Y009632D02*
X001075Y009632D01*
X001075Y009790D02*
X000545Y009790D01*
X000545Y009949D02*
X001075Y009949D01*
X001075Y010107D02*
X000545Y010107D01*
X000545Y010266D02*
X001075Y010266D01*
X001075Y010424D02*
X000545Y010424D01*
X000545Y010583D02*
X001075Y010583D01*
X001075Y010741D02*
X000545Y010741D01*
X000545Y010900D02*
X001075Y010900D01*
X001075Y011058D02*
X000545Y011058D01*
X000545Y011217D02*
X001075Y011217D01*
X001075Y011375D02*
X000545Y011375D01*
X000545Y011534D02*
X001075Y011534D01*
X001075Y011692D02*
X000545Y011692D01*
X000545Y011851D02*
X001075Y011851D01*
X001075Y012009D02*
X000545Y012009D01*
X000545Y012168D02*
X001075Y012168D01*
X001075Y012326D02*
X000545Y012326D01*
X000545Y012485D02*
X001075Y012485D01*
X001075Y012643D02*
X000545Y012643D01*
X000545Y012802D02*
X001075Y012802D01*
X001075Y012960D02*
X000545Y012960D01*
X000545Y013119D02*
X001075Y013119D01*
X001075Y013277D02*
X000545Y013277D01*
X000545Y013436D02*
X001075Y013436D01*
X001075Y013594D02*
X000545Y013594D01*
X000545Y013753D02*
X001075Y013753D01*
X001075Y013911D02*
X000545Y013911D01*
X000545Y014070D02*
X001075Y014070D01*
X001075Y014228D02*
X000545Y014228D01*
X000545Y014387D02*
X001075Y014387D01*
X001075Y014545D02*
X000545Y014545D01*
X000545Y014704D02*
X001075Y014704D01*
X001158Y014862D02*
X000545Y014862D01*
X000545Y015021D02*
X001316Y015021D01*
X001394Y015160D02*
X001394Y015160D01*
X001440Y015179D02*
X001475Y015179D01*
X001836Y014862D02*
X002395Y014862D01*
X002413Y014880D02*
X002315Y014782D01*
X002262Y014654D01*
X002262Y014516D01*
X002314Y014390D01*
X002261Y014337D01*
X002261Y014051D01*
X001894Y013684D01*
X001862Y013607D01*
X001784Y013607D01*
X001690Y013514D01*
X001690Y012987D01*
X001724Y012953D01*
X001690Y012919D01*
X001690Y012393D01*
X001722Y012361D01*
X001690Y012329D01*
X001690Y011802D01*
X001722Y011770D01*
X001690Y011738D01*
X001690Y011212D01*
X001722Y011180D01*
X001690Y011148D01*
X001690Y010621D01*
X001722Y010589D01*
X001690Y010557D01*
X001690Y010031D01*
X001722Y009999D01*
X001690Y009966D01*
X001690Y009440D01*
X001722Y009408D01*
X001690Y009376D01*
X001690Y008850D01*
X001722Y008817D01*
X001690Y008785D01*
X001690Y008259D01*
X001722Y008227D01*
X001690Y008195D01*
X001690Y008172D01*
X001663Y008172D01*
X001555Y008279D01*
X001555Y014581D01*
X002114Y015140D01*
X002805Y015140D01*
X002805Y015078D01*
X002899Y014984D01*
X003504Y014984D01*
X003598Y015078D01*
X003598Y015682D01*
X003504Y015776D01*
X002899Y015776D01*
X002805Y015682D01*
X002805Y015620D01*
X001983Y015620D01*
X002075Y015841D01*
X002075Y016179D01*
X001946Y016491D01*
X001946Y016491D01*
X001791Y016646D01*
X018359Y016646D01*
X018204Y016491D01*
X018075Y016179D01*
X018075Y015841D01*
X018204Y015529D01*
X018444Y015289D01*
X018756Y015160D01*
X019094Y015160D01*
X019406Y015289D01*
X019406Y015289D01*
X019646Y015529D01*
X019665Y015576D01*
X019665Y000510D01*
X016949Y000510D01*
X017116Y000579D01*
X017116Y000579D01*
X017356Y000819D01*
X017485Y001131D01*
X017485Y001469D01*
X017356Y001781D01*
X017356Y001781D01*
X017116Y002021D01*
X016804Y002150D01*
X016466Y002150D01*
X016154Y002021D01*
X016154Y002021D01*
X015914Y001781D01*
X015785Y001469D01*
X015785Y001131D01*
X015914Y000819D01*
X016154Y000579D01*
X016321Y000510D01*
X009232Y000510D01*
X009265Y000543D01*
X010242Y001520D01*
X011147Y001520D01*
X011367Y001300D01*
X011723Y001300D01*
X011975Y001552D01*
X011975Y001908D01*
X011835Y002048D01*
X011835Y002089D01*
X012207Y002460D01*
X012367Y002300D01*
X012723Y002300D01*
X012975Y002552D01*
X012975Y002908D01*
X012723Y003160D01*
X012367Y003160D01*
X012207Y003000D01*
X012106Y003100D01*
X012035Y003171D01*
X012035Y004489D01*
X012594Y005048D01*
X012594Y004588D01*
X012688Y004495D01*
X013333Y004495D01*
X013345Y004507D01*
X013357Y004495D01*
X014002Y004495D01*
X014096Y004588D01*
X014096Y004710D01*
X014113Y004710D01*
X014113Y004648D01*
X014207Y004554D01*
X014654Y004554D01*
X014748Y004648D01*
X014748Y005252D01*
X014654Y005346D01*
X014526Y005346D01*
X014523Y005465D01*
X014528Y005460D01*
X014588Y005460D01*
X014778Y005270D01*
X014835Y005270D01*
X014835Y005266D01*
X014822Y005252D01*
X014822Y004648D01*
X014916Y004554D01*
X015363Y004554D01*
X015457Y004648D01*
X015457Y005070D01*
X015844Y005070D01*
X017564Y003350D01*
X017955Y003350D01*
X017955Y002569D01*
X018084Y002440D01*
X018235Y002289D01*
X018235Y001639D01*
X018364Y001510D01*
X018407Y001467D01*
X018365Y001365D01*
X018365Y001155D01*
X018446Y000960D01*
X018595Y000811D01*
X018790Y000730D01*
X019000Y000730D01*
X019195Y000811D01*
X019344Y000960D01*
X019425Y001155D01*
X019425Y001365D01*
X019344Y001560D01*
X019195Y001709D01*
X019123Y001739D01*
X019295Y001811D01*
X019444Y001960D01*
X019525Y002155D01*
X019525Y002365D01*
X019444Y002560D01*
X019295Y002709D01*
X019123Y002781D01*
X019195Y002811D01*
X019344Y002960D01*
X019425Y003155D01*
X019425Y003365D01*
X019344Y003560D01*
X019195Y003709D01*
X019123Y003739D01*
X019295Y003811D01*
X019444Y003960D01*
X019525Y004155D01*
X019525Y004365D01*
X019444Y004560D01*
X019295Y004709D01*
X019123Y004781D01*
X019195Y004811D01*
X019344Y004960D01*
X019425Y005155D01*
X019425Y005365D01*
X019344Y005560D01*
X019195Y005709D01*
X019123Y005739D01*
X019295Y005811D01*
X019444Y005960D01*
X019525Y006155D01*
X019525Y006365D01*
X019444Y006560D01*
X019295Y006709D01*
X019100Y006790D01*
X018890Y006790D01*
X018695Y006709D01*
X018546Y006560D01*
X018465Y006365D01*
X018465Y006155D01*
X018546Y005960D01*
X018695Y005811D01*
X018767Y005781D01*
X018595Y005709D01*
X018446Y005560D01*
X018365Y005365D01*
X018365Y005155D01*
X018446Y004960D01*
X018595Y004811D01*
X018767Y004739D01*
X018695Y004709D01*
X018546Y004560D01*
X018508Y004470D01*
X018041Y004470D01*
X018015Y004496D01*
X018015Y006676D01*
X017972Y006779D01*
X017894Y006857D01*
X016904Y007847D01*
X016801Y007890D01*
X016605Y007890D01*
X016605Y008136D01*
X016562Y008239D01*
X016484Y008317D01*
X016484Y008317D01*
X016683Y008317D01*
X016749Y008345D01*
X017121Y008345D01*
X017215Y008438D01*
X017215Y008500D01*
X017271Y008477D01*
X017409Y008477D01*
X017537Y008530D01*
X017635Y008628D01*
X017688Y008756D01*
X017688Y008894D01*
X017635Y009022D01*
X017625Y009032D01*
X017625Y009047D01*
X017626Y009099D01*
X017625Y009102D01*
X017625Y009171D01*
X017582Y009274D01*
X017504Y009352D01*
X017401Y009395D01*
X017215Y009395D01*
X017215Y009792D01*
X017121Y009885D01*
X016319Y009885D01*
X016225Y009792D01*
X016225Y009662D01*
X015935Y009372D01*
X015935Y010171D01*
X015835Y010271D01*
X015835Y010524D01*
X015875Y010564D01*
X015929Y010510D01*
X016302Y010510D01*
X016277Y010449D01*
X016277Y010311D01*
X016330Y010183D01*
X016428Y010085D01*
X016556Y010032D01*
X016694Y010032D01*
X016822Y010085D01*
X016920Y010183D01*
X016973Y010311D01*
X016973Y010449D01*
X016920Y010577D01*
X016907Y010590D01*
X016907Y010596D01*
X016915Y010604D01*
X016915Y011536D01*
X016821Y011630D01*
X016429Y011630D01*
X016375Y011576D01*
X016321Y011630D01*
X015929Y011630D01*
X015875Y011576D01*
X015821Y011630D01*
X015429Y011630D01*
X015375Y011576D01*
X015321Y011630D01*
X014929Y011630D01*
X014875Y011576D01*
X014821Y011630D01*
X014429Y011630D01*
X014375Y011576D01*
X014321Y011630D01*
X013929Y011630D01*
X013875Y011576D01*
X013821Y011630D01*
X013429Y011630D01*
X013375Y011576D01*
X013321Y011630D01*
X012929Y011630D01*
X012835Y011536D01*
X012835Y010604D01*
X012929Y010510D01*
X013046Y010510D01*
X013058Y010498D01*
X013058Y010298D01*
X012984Y010328D01*
X012846Y010328D01*
X012718Y010275D01*
X012620Y010177D01*
X012567Y010049D01*
X012567Y009911D01*
X012620Y009783D01*
X012713Y009690D01*
X012713Y009144D01*
X012806Y009050D01*
X014993Y009050D01*
X014920Y008977D01*
X014867Y008849D01*
X014867Y008711D01*
X014920Y008583D01*
X014983Y008520D01*
X014851Y008520D01*
X014576Y008795D01*
X014473Y008837D01*
X012805Y008837D01*
X012805Y009049D01*
X012711Y009142D01*
X012535Y009142D01*
X012563Y009211D01*
X012563Y009349D01*
X012510Y009477D01*
X012412Y009575D01*
X012284Y009628D01*
X012146Y009628D01*
X012018Y009575D01*
X011920Y009477D01*
X011905Y009442D01*
X009835Y011513D01*
X009835Y012235D01*
X009884Y012235D01*
X009884Y012071D01*
X009978Y011977D01*
X010347Y011977D01*
X010258Y011889D01*
X010258Y011205D01*
X010352Y011111D01*
X010878Y011111D01*
X010972Y011205D01*
X010972Y011227D01*
X011646Y011227D01*
X011763Y011276D01*
X012596Y012109D01*
X012686Y012199D01*
X012735Y012316D01*
X012735Y013798D01*
X012686Y013916D01*
X012596Y014006D01*
X012479Y014054D01*
X012035Y014054D01*
X012035Y015660D01*
X012885Y015660D01*
X013015Y015531D01*
X013210Y015450D01*
X013389Y015450D01*
X012888Y014949D01*
X012845Y014846D01*
X012845Y013966D01*
X012835Y013956D01*
X012835Y013024D01*
X012929Y012930D01*
X013321Y012930D01*
X013375Y012984D01*
X013429Y012930D01*
X013821Y012930D01*
X013875Y012984D01*
X013929Y012930D01*
X014321Y012930D01*
X014345Y012954D01*
X014345Y012414D01*
X014388Y012311D01*
X014878Y011821D01*
X014956Y011743D01*
X015059Y011700D01*
X018695Y011700D01*
X018715Y011681D01*
X018837Y011630D01*
X018715Y011579D01*
X018566Y011430D01*
X018485Y011235D01*
X018485Y011025D01*
X018566Y010830D01*
X018715Y010681D01*
X018910Y010600D01*
X019120Y010600D01*
X019315Y010681D01*
X019464Y010830D01*
X019545Y011025D01*
X019545Y011235D01*
X019464Y011430D01*
X019315Y011579D01*
X019193Y011630D01*
X019315Y011681D01*
X019464Y011830D01*
X019545Y012025D01*
X019545Y012235D01*
X019464Y012430D01*
X019315Y012579D01*
X019193Y012630D01*
X019315Y012681D01*
X019464Y012830D01*
X019545Y013025D01*
X019545Y013235D01*
X019464Y013430D01*
X019315Y013579D01*
X019193Y013630D01*
X019315Y013681D01*
X019464Y013830D01*
X019545Y014025D01*
X019545Y014235D01*
X019464Y014430D01*
X019315Y014579D01*
X019120Y014660D01*
X018910Y014660D01*
X018715Y014579D01*
X018695Y014560D01*
X015859Y014560D01*
X015756Y014517D01*
X015678Y014439D01*
X015388Y014149D01*
X015345Y014046D01*
X015345Y014026D01*
X015321Y014050D01*
X014929Y014050D01*
X014875Y013996D01*
X014821Y014050D01*
X014781Y014050D01*
X016189Y015458D01*
X016210Y015450D01*
X016420Y015450D01*
X016615Y015531D01*
X016764Y015680D01*
X016845Y015875D01*
X016845Y016085D01*
X016764Y016280D01*
X016615Y016429D01*
X016420Y016510D01*
X016210Y016510D01*
X016015Y016429D01*
X015866Y016280D01*
X015815Y016158D01*
X015764Y016280D01*
X015615Y016429D01*
X015420Y016510D01*
X015210Y016510D01*
X015015Y016429D01*
X014866Y016280D01*
X014815Y016158D01*
X014764Y016280D01*
X014615Y016429D01*
X014420Y016510D01*
X014210Y016510D01*
X014015Y016429D01*
X013866Y016280D01*
X013815Y016158D01*
X013764Y016280D01*
X013615Y016429D01*
X013420Y016510D01*
X013210Y016510D01*
X013015Y016429D01*
X012885Y016300D01*
X011145Y016300D01*
X011015Y016429D01*
X010820Y016510D01*
X010610Y016510D01*
X010415Y016429D01*
X010266Y016280D01*
X010215Y016158D01*
X010164Y016280D01*
X010015Y016429D01*
X009820Y016510D01*
X009610Y016510D01*
X009415Y016429D01*
X009266Y016280D01*
X009185Y016085D01*
X009185Y015875D01*
X009266Y015680D01*
X009415Y015531D01*
X009610Y015450D01*
X009820Y015450D01*
X010015Y015531D01*
X010164Y015680D01*
X010215Y015802D01*
X010266Y015680D01*
X010415Y015531D01*
X010610Y015450D01*
X010820Y015450D01*
X011015Y015531D01*
X011145Y015660D01*
X011395Y015660D01*
X011395Y015220D01*
X007970Y015220D01*
X007775Y015414D01*
X007775Y015853D01*
X007763Y015865D01*
X007775Y015877D01*
X007775Y016522D01*
X007682Y016616D01*
X006958Y016616D01*
X006877Y016535D01*
X006797Y016615D01*
X006193Y016615D01*
X006099Y016521D01*
X006099Y015916D01*
X006193Y015822D01*
X006797Y015822D01*
X006865Y015889D01*
X006865Y015877D01*
X006877Y015865D01*
X006865Y015853D01*
X006865Y015721D01*
X006797Y015788D01*
X006193Y015788D01*
X006099Y015694D01*
X006099Y015631D01*
X006069Y015643D01*
X005931Y015643D01*
X005803Y015590D01*
X005705Y015492D01*
X005652Y015364D01*
X005652Y015226D01*
X005705Y015098D01*
X005803Y015000D01*
X005931Y014947D01*
X006069Y014947D01*
X006191Y014997D01*
X006193Y014995D01*
X006797Y014995D01*
X006891Y015089D01*
X006891Y015182D01*
X006958Y015114D01*
X007396Y015114D01*
X007667Y014844D01*
X007734Y014777D01*
X007823Y014740D01*
X011395Y014740D01*
X011395Y014054D01*
X010851Y014054D01*
X010845Y014052D01*
X010613Y014052D01*
X010565Y014004D01*
X010535Y014034D01*
X010535Y014043D01*
X010563Y014111D01*
X010563Y014249D01*
X010510Y014377D01*
X010412Y014475D01*
X010284Y014528D01*
X010146Y014528D01*
X010018Y014475D01*
X009920Y014377D01*
X009867Y014249D01*
X009867Y014111D01*
X009895Y014043D01*
X009895Y014034D01*
X009819Y013958D01*
X009819Y013511D01*
X009913Y013417D01*
X010145Y013417D01*
X010151Y013414D01*
X010279Y013414D01*
X010285Y013417D01*
X010517Y013417D01*
X010565Y013464D01*
X010613Y013417D01*
X010845Y013417D01*
X010851Y013414D01*
X012095Y013414D01*
X012095Y013343D01*
X011885Y013343D01*
X011879Y013346D01*
X010851Y013346D01*
X010845Y013343D01*
X010613Y013343D01*
X010565Y013296D01*
X010517Y013343D01*
X010285Y013343D01*
X010279Y013346D01*
X010151Y013346D01*
X010145Y013343D01*
X009913Y013343D01*
X009819Y013249D01*
X009819Y012875D01*
X008960Y012875D01*
X008960Y012877D01*
X008867Y012971D01*
X008481Y012971D01*
X008467Y012976D01*
X007629Y012976D01*
X007640Y012987D01*
X007640Y013514D01*
X007546Y013607D01*
X007510Y013607D01*
X007510Y013658D01*
X007538Y013726D01*
X007538Y013864D01*
X007510Y013932D01*
X007510Y014019D01*
X007461Y014137D01*
X007371Y014227D01*
X007254Y014275D01*
X007081Y014275D01*
X007081Y014337D01*
X006987Y014430D01*
X006461Y014430D01*
X006431Y014400D01*
X006401Y014430D01*
X005874Y014430D01*
X005844Y014400D01*
X005814Y014430D01*
X005288Y014430D01*
X005258Y014400D01*
X005227Y014430D01*
X004701Y014430D01*
X004671Y014400D01*
X004641Y014430D01*
X004114Y014430D01*
X004084Y014400D01*
X004054Y014430D01*
X003528Y014430D01*
X003498Y014400D01*
X003467Y014430D01*
X002941Y014430D01*
X002911Y014400D01*
X002910Y014401D01*
X002958Y014516D01*
X002958Y014654D01*
X002905Y014782D01*
X002807Y014880D01*
X002679Y014933D01*
X002541Y014933D01*
X002413Y014880D01*
X002282Y014704D02*
X001678Y014704D01*
X001555Y014545D02*
X002262Y014545D01*
X002311Y014387D02*
X001555Y014387D01*
X001555Y014228D02*
X002261Y014228D01*
X002261Y014070D02*
X001555Y014070D01*
X001555Y013911D02*
X002121Y013911D01*
X001962Y013753D02*
X001555Y013753D01*
X001555Y013594D02*
X001770Y013594D01*
X001690Y013436D02*
X001555Y013436D01*
X001555Y013277D02*
X001690Y013277D01*
X001690Y013119D02*
X001555Y013119D01*
X001555Y012960D02*
X001717Y012960D01*
X001690Y012802D02*
X001555Y012802D01*
X001555Y012643D02*
X001690Y012643D01*
X001690Y012485D02*
X001555Y012485D01*
X001555Y012326D02*
X001690Y012326D01*
X001690Y012168D02*
X001555Y012168D01*
X001555Y012009D02*
X001690Y012009D01*
X001690Y011851D02*
X001555Y011851D01*
X001555Y011692D02*
X001690Y011692D01*
X001690Y011534D02*
X001555Y011534D01*
X001555Y011375D02*
X001690Y011375D01*
X001690Y011217D02*
X001555Y011217D01*
X001555Y011058D02*
X001690Y011058D01*
X001690Y010900D02*
X001555Y010900D01*
X001555Y010741D02*
X001690Y010741D01*
X001716Y010583D02*
X001555Y010583D01*
X001555Y010424D02*
X001690Y010424D01*
X001690Y010266D02*
X001555Y010266D01*
X001555Y010107D02*
X001690Y010107D01*
X001690Y009949D02*
X001555Y009949D01*
X001555Y009790D02*
X001690Y009790D01*
X001690Y009632D02*
X001555Y009632D01*
X001555Y009473D02*
X001690Y009473D01*
X001690Y009315D02*
X001555Y009315D01*
X001555Y009156D02*
X001690Y009156D01*
X001690Y008998D02*
X001555Y008998D01*
X001555Y008839D02*
X001701Y008839D01*
X001690Y008681D02*
X001555Y008681D01*
X001555Y008522D02*
X001690Y008522D01*
X001690Y008364D02*
X001555Y008364D01*
X001629Y008205D02*
X001700Y008205D01*
X001563Y007932D02*
X001315Y008180D01*
X001315Y014680D01*
X002015Y015380D01*
X003202Y015380D01*
X003598Y015338D02*
X003632Y015338D01*
X003632Y015496D02*
X003598Y015496D01*
X003598Y015655D02*
X003632Y015655D01*
X003632Y015682D02*
X003632Y015078D01*
X003726Y014984D01*
X004331Y014984D01*
X004399Y015051D01*
X004446Y015032D01*
X004584Y015032D01*
X004712Y015085D01*
X004810Y015183D01*
X004863Y015311D01*
X004863Y015449D01*
X004810Y015577D01*
X004712Y015675D01*
X004584Y015728D01*
X004446Y015728D01*
X004399Y015709D01*
X004331Y015776D01*
X003726Y015776D01*
X003632Y015682D01*
X003632Y015179D02*
X003598Y015179D01*
X003541Y015021D02*
X003689Y015021D01*
X004368Y015021D02*
X005782Y015021D01*
X005671Y015179D02*
X004806Y015179D01*
X004863Y015338D02*
X005652Y015338D01*
X005709Y015496D02*
X004844Y015496D01*
X004733Y015655D02*
X006099Y015655D01*
X006099Y015972D02*
X002075Y015972D01*
X002075Y016130D02*
X006099Y016130D01*
X006099Y016289D02*
X002030Y016289D01*
X001964Y016447D02*
X006099Y016447D01*
X006183Y016606D02*
X001832Y016606D01*
X002063Y015813D02*
X006865Y015813D01*
X007320Y015530D02*
X007870Y014980D01*
X011615Y014980D01*
X011632Y014978D01*
X011649Y014974D01*
X011665Y014967D01*
X011679Y014957D01*
X011692Y014944D01*
X011702Y014930D01*
X011709Y014914D01*
X011713Y014897D01*
X011715Y014880D01*
X011395Y014704D02*
X002938Y014704D01*
X002958Y014545D02*
X011395Y014545D01*
X011395Y014387D02*
X010501Y014387D01*
X010563Y014228D02*
X011395Y014228D01*
X011395Y014070D02*
X010546Y014070D01*
X009929Y014387D02*
X007031Y014387D01*
X007368Y014228D02*
X009867Y014228D01*
X009884Y014070D02*
X007489Y014070D01*
X007519Y013911D02*
X009819Y013911D01*
X009819Y013753D02*
X007538Y013753D01*
X007560Y013594D02*
X009819Y013594D01*
X009894Y013436D02*
X007640Y013436D01*
X007640Y013277D02*
X009846Y013277D01*
X009819Y013119D02*
X007640Y013119D01*
X006717Y012960D02*
X002613Y012960D01*
X002640Y012802D02*
X006690Y012802D01*
X006690Y012643D02*
X002640Y012643D01*
X002640Y012485D02*
X006690Y012485D01*
X006690Y012326D02*
X002640Y012326D01*
X002640Y012168D02*
X006690Y012168D01*
X007633Y012336D02*
X008050Y012336D01*
X008050Y012306D01*
X007640Y012306D01*
X007640Y012329D01*
X007633Y012336D01*
X007640Y012326D02*
X008050Y012326D01*
X008050Y011692D02*
X007640Y011692D01*
X007640Y011534D02*
X008079Y011534D01*
X008877Y012960D02*
X009819Y012960D01*
X010598Y012723D02*
X010613Y012708D01*
X010632Y012708D01*
X010632Y012071D01*
X010721Y011983D01*
X010509Y011983D01*
X010598Y012071D01*
X010598Y012723D01*
X010598Y012643D02*
X010632Y012643D01*
X010632Y012485D02*
X010598Y012485D01*
X010598Y012326D02*
X010632Y012326D01*
X010632Y012168D02*
X010598Y012168D01*
X010536Y012009D02*
X010694Y012009D01*
X010883Y011977D02*
X011252Y011977D01*
X011346Y012071D01*
X011346Y012093D01*
X011512Y012093D01*
X011629Y012142D01*
X011644Y012157D01*
X011712Y012185D01*
X011810Y012283D01*
X011863Y012411D01*
X011863Y012549D01*
X011810Y012677D01*
X011782Y012706D01*
X011879Y012706D01*
X011885Y012708D01*
X012095Y012708D01*
X012095Y012513D01*
X011449Y011867D01*
X010972Y011867D01*
X010972Y011889D01*
X010883Y011977D01*
X011284Y012009D02*
X011591Y012009D01*
X011670Y012168D02*
X011750Y012168D01*
X011828Y012326D02*
X011908Y012326D01*
X011863Y012485D02*
X012067Y012485D01*
X012095Y012643D02*
X011824Y012643D01*
X012497Y012009D02*
X014690Y012009D01*
X014849Y011851D02*
X012338Y011851D01*
X012180Y011692D02*
X018703Y011692D01*
X018669Y011534D02*
X016915Y011534D01*
X016915Y011375D02*
X018543Y011375D01*
X018485Y011217D02*
X016915Y011217D01*
X016915Y011058D02*
X018485Y011058D01*
X018537Y010900D02*
X016915Y010900D01*
X016915Y010741D02*
X018654Y010741D01*
X019376Y010741D02*
X019665Y010741D01*
X019665Y010583D02*
X016915Y010583D01*
X016973Y010424D02*
X019665Y010424D01*
X019665Y010266D02*
X016954Y010266D01*
X016844Y010107D02*
X019665Y010107D01*
X019665Y009949D02*
X015935Y009949D01*
X015935Y010107D02*
X016406Y010107D01*
X016296Y010266D02*
X015841Y010266D01*
X015835Y010424D02*
X016277Y010424D01*
X016225Y009790D02*
X015935Y009790D01*
X015935Y009632D02*
X016195Y009632D01*
X016036Y009473D02*
X015935Y009473D01*
X015495Y009473D02*
X015457Y009473D01*
X015495Y009471D02*
X015495Y009989D01*
X015427Y010057D01*
X015427Y009806D01*
X015457Y009776D01*
X015457Y009433D01*
X015495Y009471D01*
X015495Y009632D02*
X015457Y009632D01*
X015444Y009790D02*
X015495Y009790D01*
X015495Y009949D02*
X015427Y009949D01*
X015187Y009460D02*
X015187Y011008D01*
X015125Y011070D01*
X014625Y011070D02*
X014615Y011060D01*
X014615Y010480D01*
X014872Y010223D01*
X014872Y009460D01*
X014940Y008998D02*
X012805Y008998D01*
X012805Y008839D02*
X014867Y008839D01*
X014879Y008681D02*
X014690Y008681D01*
X014849Y008522D02*
X014981Y008522D01*
X014673Y007963D02*
X014583Y007925D01*
X014485Y007827D01*
X014432Y007699D01*
X014432Y007561D01*
X014485Y007433D01*
X014583Y007335D01*
X014711Y007282D01*
X014840Y007282D01*
X015066Y007108D01*
X015082Y007090D01*
X015103Y007080D01*
X015122Y007065D01*
X015146Y007059D01*
X015168Y007048D01*
X015192Y007047D01*
X015214Y007041D01*
X015239Y007044D01*
X015261Y007043D01*
X015267Y007040D01*
X015308Y007040D01*
X015349Y007038D01*
X015355Y007040D01*
X015365Y007040D01*
X015365Y006995D01*
X015284Y007028D01*
X015146Y007028D01*
X015018Y006975D01*
X014920Y006877D01*
X014867Y006749D01*
X014867Y006611D01*
X014917Y006490D01*
X013825Y006490D01*
X013825Y006491D01*
X013825Y006551D01*
X013801Y006575D01*
X013785Y006631D01*
X013785Y007455D01*
X013882Y007495D01*
X013980Y007593D01*
X014033Y007721D01*
X014033Y007859D01*
X013980Y007987D01*
X013882Y008085D01*
X013754Y008138D01*
X013616Y008138D01*
X013488Y008085D01*
X013390Y007987D01*
X013375Y007951D01*
X013049Y008277D01*
X014302Y008277D01*
X014498Y008081D01*
X014576Y008003D01*
X014673Y007963D01*
X014546Y007888D02*
X014021Y007888D01*
X014033Y007730D02*
X014444Y007730D01*
X014432Y007571D02*
X013958Y007571D01*
X013785Y007413D02*
X014505Y007413D01*
X014780Y007630D02*
X015230Y007285D01*
X015315Y007280D01*
X015793Y007280D01*
X015775Y007298D01*
X016185Y007330D02*
X016629Y007330D01*
X017455Y006504D01*
X017455Y004597D01*
X016305Y005747D01*
X016182Y005870D01*
X015907Y005870D01*
X015910Y005873D01*
X015963Y006001D01*
X015963Y006139D01*
X015910Y006267D01*
X015812Y006365D01*
X015734Y006398D01*
X016091Y006398D01*
X016185Y006491D01*
X016185Y007330D01*
X016185Y007254D02*
X016705Y007254D01*
X016864Y007096D02*
X016185Y007096D01*
X016185Y006937D02*
X017022Y006937D01*
X017181Y006779D02*
X016185Y006779D01*
X016185Y006620D02*
X017339Y006620D01*
X017455Y006462D02*
X016155Y006462D01*
X015874Y006303D02*
X017455Y006303D01*
X017455Y006145D02*
X015961Y006145D01*
X015957Y005986D02*
X017455Y005986D01*
X017455Y005828D02*
X016224Y005828D01*
X016383Y005669D02*
X017455Y005669D01*
X017455Y005511D02*
X016541Y005511D01*
X016700Y005352D02*
X017455Y005352D01*
X017455Y005194D02*
X016858Y005194D01*
X017017Y005035D02*
X017455Y005035D01*
X017455Y004877D02*
X017175Y004877D01*
X017334Y004718D02*
X017455Y004718D01*
X018015Y004718D02*
X018716Y004718D01*
X018545Y004560D02*
X018015Y004560D01*
X018015Y004877D02*
X018529Y004877D01*
X018415Y005035D02*
X018015Y005035D01*
X018015Y005194D02*
X018365Y005194D01*
X018365Y005352D02*
X018015Y005352D01*
X018015Y005511D02*
X018425Y005511D01*
X018554Y005669D02*
X018015Y005669D01*
X018015Y005828D02*
X018678Y005828D01*
X018535Y005986D02*
X018015Y005986D01*
X018015Y006145D02*
X018469Y006145D01*
X018465Y006303D02*
X018015Y006303D01*
X018015Y006462D02*
X018505Y006462D01*
X018605Y006620D02*
X018015Y006620D01*
X017972Y006779D02*
X018862Y006779D01*
X019128Y006779D02*
X019665Y006779D01*
X019665Y006937D02*
X017814Y006937D01*
X017655Y007096D02*
X019665Y007096D01*
X019665Y007254D02*
X017497Y007254D01*
X017338Y007413D02*
X019665Y007413D01*
X019665Y007571D02*
X017180Y007571D01*
X017021Y007730D02*
X018742Y007730D01*
X018715Y007741D02*
X018910Y007660D01*
X019120Y007660D01*
X019315Y007741D01*
X019464Y007890D01*
X019545Y008085D01*
X019545Y008295D01*
X019464Y008490D01*
X019315Y008639D01*
X019193Y008690D01*
X019315Y008741D01*
X019464Y008890D01*
X019545Y009085D01*
X019545Y009295D01*
X019464Y009490D01*
X019315Y009639D01*
X019120Y009720D01*
X018910Y009720D01*
X018715Y009639D01*
X018566Y009490D01*
X018485Y009295D01*
X018485Y009085D01*
X018566Y008890D01*
X018715Y008741D01*
X018837Y008690D01*
X018715Y008639D01*
X018566Y008490D01*
X018485Y008295D01*
X018485Y008085D01*
X018566Y007890D01*
X018715Y007741D01*
X018567Y007888D02*
X016805Y007888D01*
X016605Y008047D02*
X018501Y008047D01*
X018485Y008205D02*
X016576Y008205D01*
X016635Y008557D02*
X016720Y008643D01*
X016635Y008557D02*
X015775Y008557D01*
X015775Y008872D02*
X016490Y009587D01*
X016720Y009587D01*
X017215Y009632D02*
X018707Y009632D01*
X018559Y009473D02*
X017215Y009473D01*
X017541Y009315D02*
X018493Y009315D01*
X018485Y009156D02*
X017625Y009156D01*
X017645Y008998D02*
X018521Y008998D01*
X018616Y008839D02*
X017688Y008839D01*
X017657Y008681D02*
X018814Y008681D01*
X018597Y008522D02*
X017518Y008522D01*
X017140Y008364D02*
X018513Y008364D01*
X019216Y008681D02*
X019665Y008681D01*
X019665Y008839D02*
X019414Y008839D01*
X019509Y008998D02*
X019665Y008998D01*
X019665Y009156D02*
X019545Y009156D01*
X019537Y009315D02*
X019665Y009315D01*
X019665Y009473D02*
X019471Y009473D01*
X019323Y009632D02*
X019665Y009632D01*
X019665Y009790D02*
X017215Y009790D01*
X016225Y008983D02*
X016225Y008911D01*
X016258Y008879D01*
X016225Y008847D01*
X016225Y008797D01*
X016185Y008797D01*
X016185Y008943D01*
X016225Y008983D01*
X016225Y008839D02*
X016185Y008839D01*
X015775Y007927D02*
X015233Y007927D01*
X014780Y007630D01*
X014876Y007254D02*
X013785Y007254D01*
X013785Y007096D02*
X015077Y007096D01*
X014980Y006937D02*
X013785Y006937D01*
X013785Y006779D02*
X014879Y006779D01*
X014867Y006620D02*
X013788Y006620D01*
X013364Y006490D02*
X013220Y006490D01*
X013342Y006580D01*
X013345Y006569D01*
X013345Y006509D01*
X013364Y006490D01*
X013085Y006937D02*
X012805Y006937D01*
X012805Y006844D02*
X012805Y006731D01*
X013145Y006981D01*
X013145Y007233D01*
X013137Y007225D01*
X013009Y007172D01*
X012871Y007172D01*
X012805Y007199D01*
X012805Y006844D01*
X012805Y006779D02*
X012870Y006779D01*
X012805Y007096D02*
X013145Y007096D01*
X012940Y007520D02*
X012808Y007613D01*
X012395Y007613D01*
X011985Y007647D02*
X011985Y007502D01*
X011912Y007575D01*
X011862Y007596D01*
X011879Y007613D01*
X011914Y007647D01*
X011985Y007647D01*
X011985Y007571D02*
X011916Y007571D01*
X011985Y008207D02*
X011985Y008277D01*
X011985Y008207D01*
X011985Y008207D01*
X011985Y008277D02*
X011985Y008277D01*
X012805Y007899D02*
X012846Y007858D01*
X012833Y007853D01*
X012813Y007857D01*
X012805Y007856D01*
X012805Y007899D01*
X012805Y007888D02*
X012816Y007888D01*
X013121Y008205D02*
X014374Y008205D01*
X014533Y008047D02*
X013921Y008047D01*
X013449Y008047D02*
X013280Y008047D01*
X012713Y009156D02*
X012540Y009156D01*
X012563Y009315D02*
X012713Y009315D01*
X012713Y009473D02*
X012512Y009473D01*
X012713Y009632D02*
X011716Y009632D01*
X011558Y009790D02*
X012617Y009790D01*
X012567Y009949D02*
X011399Y009949D01*
X011241Y010107D02*
X012591Y010107D01*
X012708Y010266D02*
X011082Y010266D01*
X010924Y010424D02*
X013058Y010424D01*
X012856Y010583D02*
X010765Y010583D01*
X010607Y010741D02*
X012835Y010741D01*
X012835Y010900D02*
X010448Y010900D01*
X010290Y011058D02*
X012835Y011058D01*
X012835Y011217D02*
X010972Y011217D01*
X010258Y011217D02*
X010131Y011217D01*
X010258Y011375D02*
X009973Y011375D01*
X009835Y011534D02*
X010258Y011534D01*
X010258Y011692D02*
X009835Y011692D01*
X009835Y011851D02*
X010258Y011851D01*
X009946Y012009D02*
X009835Y012009D01*
X009835Y012168D02*
X009884Y012168D01*
X010536Y013436D02*
X010594Y013436D01*
X012035Y014070D02*
X012845Y014070D01*
X012845Y014228D02*
X012035Y014228D01*
X012035Y014387D02*
X012845Y014387D01*
X012845Y014545D02*
X012035Y014545D01*
X012035Y014704D02*
X012845Y014704D01*
X012852Y014862D02*
X012035Y014862D01*
X012035Y015021D02*
X012960Y015021D01*
X013118Y015179D02*
X012035Y015179D01*
X012035Y015338D02*
X013277Y015338D01*
X013098Y015496D02*
X012035Y015496D01*
X012035Y015655D02*
X012891Y015655D01*
X013593Y014862D02*
X013801Y014862D01*
X013752Y015021D02*
X013960Y015021D01*
X013910Y015179D02*
X014118Y015179D01*
X014069Y015338D02*
X014277Y015338D01*
X014210Y015450D02*
X014189Y015458D01*
X013405Y014674D01*
X013405Y014466D01*
X014389Y015450D01*
X014210Y015450D01*
X014752Y015021D02*
X014960Y015021D01*
X014910Y015179D02*
X015118Y015179D01*
X015069Y015338D02*
X015277Y015338D01*
X015210Y015450D02*
X015189Y015458D01*
X014291Y014560D01*
X014499Y014560D01*
X015389Y015450D01*
X015210Y015450D01*
X015752Y015021D02*
X019665Y015021D01*
X019665Y015179D02*
X019140Y015179D01*
X019455Y015338D02*
X019665Y015338D01*
X019665Y015496D02*
X019613Y015496D01*
X019646Y015529D02*
X019646Y015529D01*
X019665Y014862D02*
X015593Y014862D01*
X015435Y014704D02*
X019665Y014704D01*
X019665Y014545D02*
X019350Y014545D01*
X019482Y014387D02*
X019665Y014387D01*
X019665Y014228D02*
X019545Y014228D01*
X019545Y014070D02*
X019665Y014070D01*
X019665Y013911D02*
X019498Y013911D01*
X019387Y013753D02*
X019665Y013753D01*
X019665Y013594D02*
X019280Y013594D01*
X019459Y013436D02*
X019665Y013436D01*
X019665Y013277D02*
X019528Y013277D01*
X019545Y013119D02*
X019665Y013119D01*
X019665Y012960D02*
X019518Y012960D01*
X019436Y012802D02*
X019665Y012802D01*
X019665Y012643D02*
X019224Y012643D01*
X019410Y012485D02*
X019665Y012485D01*
X019665Y012326D02*
X019507Y012326D01*
X019545Y012168D02*
X019665Y012168D01*
X019665Y012009D02*
X019539Y012009D01*
X019473Y011851D02*
X019665Y011851D01*
X019665Y011692D02*
X019327Y011692D01*
X019361Y011534D02*
X019665Y011534D01*
X019665Y011375D02*
X019487Y011375D01*
X019545Y011217D02*
X019665Y011217D01*
X019665Y011058D02*
X019545Y011058D01*
X019493Y010900D02*
X019665Y010900D01*
X018495Y012260D02*
X015231Y012260D01*
X014905Y012586D01*
X014905Y012594D01*
X014978Y012521D01*
X015056Y012443D01*
X015159Y012400D01*
X018553Y012400D01*
X018495Y012260D01*
X018523Y012326D02*
X015165Y012326D01*
X015015Y012485D02*
X015006Y012485D01*
X014532Y012168D02*
X012655Y012168D01*
X012735Y012326D02*
X014382Y012326D01*
X014345Y012485D02*
X012735Y012485D01*
X012735Y012643D02*
X014345Y012643D01*
X014345Y012802D02*
X012735Y012802D01*
X012735Y012960D02*
X012899Y012960D01*
X012835Y013119D02*
X012735Y013119D01*
X012735Y013277D02*
X012835Y013277D01*
X012835Y013436D02*
X012735Y013436D01*
X012735Y013594D02*
X012835Y013594D01*
X012835Y013753D02*
X012735Y013753D01*
X012688Y013911D02*
X012835Y013911D01*
X013405Y014545D02*
X013484Y014545D01*
X013435Y014704D02*
X013643Y014704D01*
X014435Y014704D02*
X014643Y014704D01*
X014593Y014862D02*
X014801Y014862D01*
X015276Y014545D02*
X015823Y014545D01*
X015626Y014387D02*
X015118Y014387D01*
X014959Y014228D02*
X015467Y014228D01*
X015355Y014070D02*
X014800Y014070D01*
X013899Y012960D02*
X013851Y012960D01*
X013399Y012960D02*
X013351Y012960D01*
X012835Y011534D02*
X012021Y011534D01*
X011863Y011375D02*
X012835Y011375D01*
X013125Y011070D02*
X013115Y011060D01*
X013115Y010780D01*
X013298Y010597D01*
X013298Y009460D01*
X013613Y009460D02*
X013613Y011058D01*
X013625Y011070D01*
X014115Y011060D02*
X014125Y011070D01*
X014115Y011060D02*
X014115Y010680D01*
X013928Y010493D01*
X013928Y009460D01*
X014168Y010296D02*
X014168Y010393D01*
X014251Y010477D01*
X014284Y010510D01*
X014321Y010510D01*
X014375Y010564D01*
X014375Y010564D01*
X014375Y010432D01*
X014412Y010344D01*
X014458Y010298D01*
X014384Y010328D01*
X014246Y010328D01*
X014168Y010296D01*
X014198Y010424D02*
X014378Y010424D01*
X014873Y010562D02*
X014947Y010487D01*
X014947Y010510D01*
X014929Y010510D01*
X014875Y010564D01*
X014873Y010562D01*
X015851Y012960D02*
X015875Y012984D01*
X015899Y012960D01*
X015851Y012960D01*
X015899Y012960D01*
X016351Y012960D02*
X016375Y012984D01*
X016399Y012960D01*
X016351Y012960D01*
X016399Y012960D01*
X016851Y012960D02*
X016915Y013024D01*
X016915Y013956D01*
X016871Y014000D01*
X018495Y014000D01*
X018566Y013830D01*
X018715Y013681D01*
X018837Y013630D01*
X018715Y013579D01*
X018566Y013430D01*
X018485Y013235D01*
X018485Y013025D01*
X018493Y013004D01*
X018449Y012960D01*
X016851Y012960D01*
X018449Y012960D01*
X018485Y013119D02*
X016915Y013119D01*
X016915Y013277D02*
X018502Y013277D01*
X018571Y013436D02*
X016915Y013436D01*
X016915Y013594D02*
X018750Y013594D01*
X018643Y013753D02*
X016915Y013753D01*
X016915Y013911D02*
X018532Y013911D01*
X018710Y015179D02*
X015910Y015179D01*
X016069Y015338D02*
X018395Y015338D01*
X018444Y015289D02*
X018444Y015289D01*
X018444Y015289D01*
X018237Y015496D02*
X016532Y015496D01*
X016739Y015655D02*
X018152Y015655D01*
X018204Y015529D02*
X018204Y015529D01*
X018087Y015813D02*
X016820Y015813D01*
X016845Y015972D02*
X018075Y015972D01*
X018075Y016130D02*
X016827Y016130D01*
X016756Y016289D02*
X018120Y016289D01*
X018186Y016447D02*
X016572Y016447D01*
X016058Y016447D02*
X015572Y016447D01*
X015756Y016289D02*
X015874Y016289D01*
X015058Y016447D02*
X014572Y016447D01*
X014756Y016289D02*
X014874Y016289D01*
X014058Y016447D02*
X013572Y016447D01*
X013756Y016289D02*
X013874Y016289D01*
X013058Y016447D02*
X010972Y016447D01*
X010458Y016447D02*
X009972Y016447D01*
X010156Y016289D02*
X010274Y016289D01*
X010291Y015655D02*
X010139Y015655D01*
X009932Y015496D02*
X010498Y015496D01*
X010932Y015496D02*
X011395Y015496D01*
X011395Y015338D02*
X007852Y015338D01*
X007775Y015496D02*
X009498Y015496D01*
X009291Y015655D02*
X007775Y015655D01*
X007775Y015813D02*
X009210Y015813D01*
X009185Y015972D02*
X007775Y015972D01*
X007775Y016130D02*
X009203Y016130D01*
X009274Y016289D02*
X007775Y016289D01*
X007775Y016447D02*
X009458Y016447D01*
X007692Y016606D02*
X018318Y016606D01*
X019491Y016646D02*
X019665Y016646D01*
X019665Y016444D01*
X019646Y016491D01*
X019646Y016491D01*
X019491Y016646D01*
X019532Y016606D02*
X019665Y016606D01*
X019664Y016447D02*
X019665Y016447D01*
X016379Y014000D02*
X016375Y013996D01*
X016371Y014000D01*
X016379Y014000D01*
X011395Y015655D02*
X011139Y015655D01*
X007649Y014862D02*
X002825Y014862D01*
X002862Y015021D02*
X001995Y015021D01*
X001998Y015655D02*
X002805Y015655D01*
X001010Y015179D02*
X000545Y015179D01*
X000545Y015338D02*
X000695Y015338D01*
X000744Y015289D02*
X000744Y015289D01*
X000545Y016532D02*
X000545Y016646D01*
X000659Y016646D01*
X000545Y016532D01*
X000545Y016606D02*
X000618Y016606D01*
X002640Y013436D02*
X006690Y013436D01*
X006690Y013277D02*
X002640Y013277D01*
X002640Y013119D02*
X006690Y013119D01*
X006724Y013955D02*
X006690Y013955D01*
X006823Y015021D02*
X007490Y015021D01*
X006894Y015179D02*
X006891Y015179D01*
X006948Y016606D02*
X006807Y016606D01*
X011875Y009473D02*
X011918Y009473D01*
X009567Y007888D02*
X007640Y007888D01*
X007640Y007730D02*
X009601Y007730D01*
X009751Y007571D02*
X007640Y007571D01*
X008341Y006303D02*
X011135Y006303D01*
X011135Y006145D02*
X008363Y006145D01*
X008696Y004950D02*
X008685Y004939D01*
X008685Y002989D01*
X008345Y002649D01*
X008345Y001733D01*
X008425Y001699D01*
X008574Y001550D01*
X008655Y001355D01*
X008655Y001145D01*
X008574Y000950D01*
X008465Y000840D01*
X008968Y000840D01*
X010068Y001940D01*
X011147Y001940D01*
X011367Y002160D01*
X011395Y002160D01*
X011395Y002271D01*
X011424Y002300D01*
X011367Y002300D01*
X011115Y002552D01*
X011115Y002908D01*
X011367Y003160D01*
X011395Y003160D01*
X011395Y004771D01*
X011574Y004950D01*
X008696Y004950D01*
X008685Y004877D02*
X011500Y004877D01*
X011395Y004718D02*
X008685Y004718D01*
X008685Y004560D02*
X011395Y004560D01*
X011395Y004401D02*
X008685Y004401D01*
X008685Y004243D02*
X011395Y004243D01*
X011395Y004084D02*
X008685Y004084D01*
X008685Y003926D02*
X011395Y003926D01*
X011395Y003767D02*
X008685Y003767D01*
X008685Y003609D02*
X011395Y003609D01*
X011395Y003450D02*
X008685Y003450D01*
X008685Y003292D02*
X011395Y003292D01*
X011340Y003133D02*
X008685Y003133D01*
X008671Y002975D02*
X011181Y002975D01*
X011115Y002816D02*
X008512Y002816D01*
X008354Y002658D02*
X011115Y002658D01*
X011168Y002499D02*
X008345Y002499D01*
X008345Y002341D02*
X011326Y002341D01*
X011395Y002182D02*
X008345Y002182D01*
X008345Y002024D02*
X011230Y002024D01*
X011860Y002024D02*
X012230Y002024D01*
X012115Y001908D02*
X012367Y002160D01*
X012723Y002160D01*
X012975Y001908D01*
X012975Y001552D01*
X012723Y001300D01*
X012367Y001300D01*
X012115Y001552D01*
X012115Y001908D01*
X012115Y001865D02*
X011975Y001865D01*
X011975Y001707D02*
X012115Y001707D01*
X012119Y001548D02*
X011971Y001548D01*
X011813Y001390D02*
X012277Y001390D01*
X012813Y001390D02*
X013277Y001390D01*
X013367Y001300D02*
X013115Y001552D01*
X013115Y001908D01*
X013367Y002160D01*
X013723Y002160D01*
X013975Y001908D01*
X013975Y001552D01*
X013723Y001300D01*
X013367Y001300D01*
X013119Y001548D02*
X012971Y001548D01*
X012975Y001707D02*
X013115Y001707D01*
X013115Y001865D02*
X012975Y001865D01*
X012860Y002024D02*
X013230Y002024D01*
X013367Y002300D02*
X013723Y002300D01*
X013975Y002552D01*
X013975Y002908D01*
X013723Y003160D01*
X013367Y003160D01*
X013115Y002908D01*
X013115Y002552D01*
X013367Y002300D01*
X013326Y002341D02*
X012764Y002341D01*
X012922Y002499D02*
X013168Y002499D01*
X013115Y002658D02*
X012975Y002658D01*
X012975Y002816D02*
X013115Y002816D01*
X013181Y002975D02*
X012909Y002975D01*
X012750Y003133D02*
X013340Y003133D01*
X013750Y003133D02*
X017955Y003133D01*
X017955Y002975D02*
X013909Y002975D01*
X013975Y002816D02*
X017955Y002816D01*
X017955Y002658D02*
X013975Y002658D01*
X013922Y002499D02*
X018025Y002499D01*
X018183Y002341D02*
X013764Y002341D01*
X013860Y002024D02*
X016161Y002024D01*
X015998Y001865D02*
X013975Y001865D01*
X013975Y001707D02*
X015883Y001707D01*
X015914Y001781D02*
X015914Y001781D01*
X015818Y001548D02*
X013971Y001548D01*
X013813Y001390D02*
X015785Y001390D01*
X015785Y001231D02*
X009953Y001231D01*
X010111Y001390D02*
X011277Y001390D01*
X011928Y002182D02*
X018235Y002182D01*
X018235Y002024D02*
X017109Y002024D01*
X017116Y002021D02*
X017116Y002021D01*
X017272Y001865D02*
X018235Y001865D01*
X018235Y001707D02*
X017387Y001707D01*
X017452Y001548D02*
X018326Y001548D01*
X018375Y001390D02*
X017485Y001390D01*
X017485Y001231D02*
X018365Y001231D01*
X018399Y001073D02*
X017461Y001073D01*
X017395Y000914D02*
X018491Y000914D01*
X018728Y000756D02*
X017293Y000756D01*
X017356Y000819D02*
X017356Y000819D01*
X017134Y000597D02*
X019665Y000597D01*
X019665Y000756D02*
X019062Y000756D01*
X019299Y000914D02*
X019665Y000914D01*
X019665Y001073D02*
X019391Y001073D01*
X019425Y001231D02*
X019665Y001231D01*
X019665Y001390D02*
X019415Y001390D01*
X019349Y001548D02*
X019665Y001548D01*
X019665Y001707D02*
X019198Y001707D01*
X019350Y001865D02*
X019665Y001865D01*
X019665Y002024D02*
X019471Y002024D01*
X019525Y002182D02*
X019665Y002182D01*
X019665Y002341D02*
X019525Y002341D01*
X019470Y002499D02*
X019665Y002499D01*
X019665Y002658D02*
X019347Y002658D01*
X019201Y002816D02*
X019665Y002816D01*
X019665Y002975D02*
X019350Y002975D01*
X019416Y003133D02*
X019665Y003133D01*
X019665Y003292D02*
X019425Y003292D01*
X019390Y003450D02*
X019665Y003450D01*
X019665Y003609D02*
X019296Y003609D01*
X019190Y003767D02*
X019665Y003767D01*
X019665Y003926D02*
X019410Y003926D01*
X019496Y004084D02*
X019665Y004084D01*
X019665Y004243D02*
X019525Y004243D01*
X019510Y004401D02*
X019665Y004401D01*
X019665Y004560D02*
X019445Y004560D01*
X019274Y004718D02*
X019665Y004718D01*
X019665Y004877D02*
X019261Y004877D01*
X019375Y005035D02*
X019665Y005035D01*
X019665Y005194D02*
X019425Y005194D01*
X019425Y005352D02*
X019665Y005352D01*
X019665Y005511D02*
X019365Y005511D01*
X019236Y005669D02*
X019665Y005669D01*
X019665Y005828D02*
X019312Y005828D01*
X019455Y005986D02*
X019665Y005986D01*
X019665Y006145D02*
X019521Y006145D01*
X019525Y006303D02*
X019665Y006303D01*
X019665Y006462D02*
X019485Y006462D01*
X019385Y006620D02*
X019665Y006620D01*
X019665Y007730D02*
X019288Y007730D01*
X019463Y007888D02*
X019665Y007888D01*
X019665Y008047D02*
X019529Y008047D01*
X019545Y008205D02*
X019665Y008205D01*
X019665Y008364D02*
X019517Y008364D01*
X019433Y008522D02*
X019665Y008522D01*
X015879Y005035D02*
X015457Y005035D01*
X015457Y004877D02*
X016037Y004877D01*
X016196Y004718D02*
X015457Y004718D01*
X015369Y004560D02*
X016354Y004560D01*
X016513Y004401D02*
X012035Y004401D01*
X012035Y004243D02*
X016671Y004243D01*
X016830Y004084D02*
X012035Y004084D01*
X012035Y003926D02*
X016988Y003926D01*
X017147Y003767D02*
X012035Y003767D01*
X012035Y003609D02*
X017305Y003609D01*
X017464Y003450D02*
X012035Y003450D01*
X012035Y003292D02*
X017955Y003292D01*
X018575Y002830D02*
X018595Y002811D01*
X018767Y002739D01*
X018695Y002709D01*
X018694Y002708D01*
X018575Y002827D01*
X018575Y002830D01*
X018586Y002816D02*
X018589Y002816D01*
X018699Y003753D02*
X018542Y003910D01*
X018595Y003910D01*
X018695Y003811D01*
X018767Y003781D01*
X018699Y003753D01*
X018685Y003767D02*
X018734Y003767D01*
X018675Y001830D02*
X018695Y001811D01*
X018767Y001781D01*
X018731Y001766D01*
X018675Y001821D01*
X018675Y001830D01*
X016154Y000579D02*
X016154Y000579D01*
X016136Y000597D02*
X009319Y000597D01*
X009477Y000756D02*
X015977Y000756D01*
X015914Y000819D02*
X015914Y000819D01*
X015875Y000914D02*
X009636Y000914D01*
X009794Y001073D02*
X015809Y001073D01*
X012326Y002341D02*
X012087Y002341D01*
X012073Y003133D02*
X012340Y003133D01*
X012106Y004560D02*
X012623Y004560D01*
X012594Y004718D02*
X012264Y004718D01*
X012423Y004877D02*
X012594Y004877D01*
X012581Y005035D02*
X012594Y005035D01*
X013251Y005405D02*
X013406Y005560D01*
X013406Y005560D01*
X013488Y005642D01*
X013487Y005639D01*
X013487Y005501D01*
X013526Y005405D01*
X013357Y005405D01*
X013345Y005393D01*
X013333Y005405D01*
X013251Y005405D01*
X013357Y005511D02*
X013487Y005511D01*
X013680Y004950D02*
X014431Y004950D01*
X014292Y005148D01*
X014275Y005710D01*
X014242Y006080D01*
X014526Y005352D02*
X014696Y005352D01*
X014748Y005194D02*
X014822Y005194D01*
X014822Y005035D02*
X014748Y005035D01*
X014748Y004877D02*
X014822Y004877D01*
X014822Y004718D02*
X014748Y004718D01*
X014660Y004560D02*
X014910Y004560D01*
X014201Y004560D02*
X014067Y004560D01*
X012258Y005944D02*
X012145Y005831D01*
X012145Y006389D01*
X012154Y006398D01*
X012220Y006398D01*
X012210Y006387D01*
X012157Y006259D01*
X012157Y006121D01*
X012210Y005993D01*
X012258Y005944D01*
X012217Y005986D02*
X012145Y005986D01*
X012145Y006145D02*
X012157Y006145D01*
X012145Y006303D02*
X012175Y006303D01*
X015194Y007615D02*
X015318Y007520D01*
X015322Y007520D01*
X015365Y007520D01*
X015365Y007687D01*
X015304Y007687D01*
X015194Y007615D01*
X015251Y007571D02*
X015365Y007571D01*
X015442Y006415D02*
X015459Y006398D01*
X015496Y006398D01*
X015457Y006381D01*
X015457Y006396D01*
X015440Y006413D01*
X015442Y006415D01*
X009993Y001865D02*
X008345Y001865D01*
X008408Y001707D02*
X009835Y001707D01*
X009676Y001548D02*
X008575Y001548D01*
X008641Y001390D02*
X009518Y001390D01*
X009359Y001231D02*
X008655Y001231D01*
X008625Y001073D02*
X009201Y001073D01*
X009042Y000914D02*
X008539Y000914D01*
X007785Y000840D02*
X007465Y000840D01*
X007574Y000950D01*
X007625Y001072D01*
X007676Y000950D01*
X007785Y000840D01*
X007711Y000914D02*
X007539Y000914D01*
X007625Y001428D02*
X007574Y001550D01*
X007425Y001699D01*
X007345Y001733D01*
X007345Y001939D01*
X007905Y002499D01*
X007905Y001733D01*
X007825Y001699D01*
X007676Y001550D01*
X007625Y001428D01*
X007575Y001548D02*
X007675Y001548D01*
X007842Y001707D02*
X007408Y001707D01*
X007345Y001865D02*
X007905Y001865D01*
X007905Y002024D02*
X007430Y002024D01*
X007588Y002182D02*
X007905Y002182D01*
X007905Y002341D02*
X007747Y002341D01*
X006905Y001789D02*
X006905Y001733D01*
X006825Y001699D01*
X006676Y001550D01*
X006625Y001428D01*
X006601Y001485D01*
X006905Y001789D01*
X006842Y001707D02*
X006823Y001707D01*
X006675Y001548D02*
X006664Y001548D01*
X006625Y001072D02*
X006676Y000950D01*
X006785Y000840D01*
X006465Y000840D01*
X006574Y000950D01*
X006625Y001072D01*
X006539Y000914D02*
X006711Y000914D01*
X005785Y000840D02*
X004782Y000840D01*
X004568Y001054D01*
X004605Y001145D01*
X004605Y001355D01*
X004572Y001436D01*
X004706Y001570D01*
X005695Y001570D01*
X005676Y001550D01*
X005595Y001355D01*
X005595Y001145D01*
X005676Y000950D01*
X005785Y000840D01*
X005711Y000914D02*
X004708Y000914D01*
X004575Y001073D02*
X005625Y001073D01*
X005595Y001231D02*
X004605Y001231D01*
X004591Y001390D02*
X005609Y001390D01*
X005675Y001548D02*
X004684Y001548D01*
X002165Y007932D02*
X001563Y007932D01*
D27*
X007165Y012656D02*
X008404Y012656D01*
X008505Y012555D01*
X009515Y012555D01*
X009515Y011380D01*
X011698Y009197D01*
X011698Y008557D01*
X010515Y009280D02*
X010028Y009280D01*
X010615Y011547D02*
X011582Y011547D01*
X012415Y012380D01*
X012415Y013734D01*
X011815Y013734D01*
X011715Y013834D01*
X011715Y014880D01*
X011715Y015980D01*
X010715Y015980D01*
X011715Y015980D02*
X013315Y015980D01*
X011815Y013734D02*
X010915Y013734D01*
X010215Y013734D02*
X010215Y014180D01*
X010215Y013026D02*
X010215Y012555D01*
X010241Y012529D01*
X010241Y012413D01*
X010215Y012555D02*
X009515Y012555D01*
X010915Y013026D02*
X011115Y013026D01*
X010989Y012900D01*
X010989Y012413D01*
X011448Y012413D01*
X011515Y012480D01*
X011815Y013026D02*
X011115Y013026D01*
X007190Y013251D02*
X007190Y013795D01*
X007190Y013955D01*
X006724Y013955D01*
X007165Y013251D02*
X007190Y013251D01*
X004515Y015380D02*
X004028Y015380D01*
X002618Y013955D02*
X002165Y013503D01*
X002165Y013251D01*
D28*
X006495Y016218D02*
X007301Y016218D01*
X007320Y016200D01*
X012915Y009980D02*
X013015Y009880D01*
X013015Y009480D01*
X012983Y009460D01*
X012395Y008872D02*
X012315Y008880D01*
X012215Y008880D01*
X012215Y009280D01*
X012395Y008242D02*
X012395Y008240D01*
X012775Y008240D01*
X013365Y007650D01*
X013365Y006870D01*
X012605Y006310D01*
X012505Y006190D01*
X012395Y005770D02*
X011795Y005170D01*
X008605Y005170D01*
X008465Y005030D01*
X008465Y003080D01*
X008125Y002740D01*
X008125Y001250D01*
X007125Y001250D02*
X007125Y002030D01*
X008265Y003170D01*
X008265Y005120D01*
X008515Y005370D01*
X011445Y005370D01*
X011925Y005850D01*
X011925Y006480D01*
X012115Y006670D01*
X012395Y006670D01*
X012395Y006668D01*
X012372Y006960D02*
X012395Y006983D01*
X012372Y006960D02*
X011875Y006960D01*
X011725Y006810D01*
X011725Y005940D01*
X011355Y005570D01*
X008425Y005570D01*
X008065Y005210D01*
X008065Y003260D01*
X006125Y001320D01*
X006125Y001250D01*
X006305Y001790D02*
X004615Y001790D01*
X004075Y001250D01*
X006305Y001790D02*
X007865Y003350D01*
X007865Y005300D01*
X008335Y005770D01*
X011095Y005770D01*
X011355Y006030D01*
X011355Y007400D01*
X011788Y007833D01*
X011788Y007927D01*
X011715Y007280D02*
X012315Y007280D01*
X012395Y007298D01*
X013565Y007570D02*
X013565Y006600D01*
X013605Y006460D01*
X013605Y006370D01*
X013615Y006360D01*
X013615Y006080D01*
X013613Y006080D01*
X013925Y006080D02*
X013925Y006000D01*
X013935Y005890D01*
X013835Y005570D01*
X013925Y006080D02*
X013928Y006080D01*
X013315Y006080D02*
X013315Y005780D01*
X013015Y005480D01*
X012415Y005480D01*
X011615Y004680D01*
X011615Y002780D01*
X011545Y002730D01*
X011815Y003080D02*
X012015Y002880D01*
X012015Y002580D01*
X011615Y002180D01*
X011615Y001780D01*
X011545Y001730D01*
X011815Y003080D02*
X011815Y004580D01*
X012515Y005280D01*
X013015Y005280D01*
X013015Y004980D01*
X013010Y004950D01*
X012955Y005770D02*
X012395Y005770D01*
X012955Y005770D02*
X012985Y005800D01*
X012985Y006080D01*
X012983Y006080D01*
X013298Y006080D02*
X013315Y006080D01*
X013565Y007570D02*
X013685Y007790D01*
X015215Y008780D02*
X015315Y008880D01*
X015315Y008980D01*
X015715Y009380D01*
X015715Y010080D01*
X015615Y010180D01*
X015615Y010780D01*
X015625Y011070D01*
X015625Y010790D01*
X015635Y010780D01*
X014315Y009980D02*
X014215Y009880D01*
X014215Y009480D01*
X014242Y009460D01*
X015215Y006680D02*
X015715Y006680D01*
X015775Y006668D01*
X015615Y006070D02*
X015615Y006000D01*
X015465Y005950D01*
X015185Y005950D01*
X015185Y006080D01*
X015187Y006080D01*
X015055Y005290D02*
X015055Y005040D01*
X015139Y004950D01*
X015055Y005290D02*
X015935Y005290D01*
X017655Y003570D01*
X018055Y003570D01*
X018175Y003450D01*
X018175Y002660D01*
X018455Y002380D01*
X018455Y001730D01*
X018895Y001290D01*
X018895Y001260D01*
X009915Y007880D02*
X009915Y008380D01*
X009870Y008470D01*
X008015Y006780D02*
X007215Y006780D01*
X007165Y006751D01*
X007215Y006180D02*
X007165Y006160D01*
X007215Y006180D02*
X008015Y006180D01*
D29*
X010155Y001730D02*
X009055Y000630D01*
X004695Y000630D01*
X004075Y001250D01*
X010155Y001730D02*
X011545Y001730D01*
X014865Y005480D02*
X014675Y005670D01*
X014615Y005670D01*
X014565Y005720D01*
X014565Y005790D01*
X014555Y005800D01*
X014555Y006040D01*
X014557Y006080D01*
X014872Y006080D02*
X014875Y006030D01*
X014875Y005800D01*
X014885Y005790D01*
X014885Y005720D01*
X014945Y005660D01*
X016095Y005660D01*
X017815Y003940D01*
X018215Y003940D01*
X018895Y003260D01*
X018365Y003530D02*
X018365Y002740D01*
X018845Y002260D01*
X018995Y002260D01*
X018365Y003530D02*
X018135Y003760D01*
X017735Y003760D01*
X016015Y005480D01*
X014865Y005480D01*
X007320Y016200D02*
X007320Y016240D01*
M02*
