%
M48
M72
T01C0.0236
T02C0.0360
T03C0.0400
T04C0.1200
%
T01
X8015Y6180
X8015Y6780
X9915Y7880
X10515Y9280
X12215Y9280
X12915Y9980
X14315Y9980
X15215Y8780
X14780Y7630
X15215Y6680
X15615Y6070
X13835Y5570
X12505Y6190
X11715Y7280
X12940Y7520
X13685Y7790
X16625Y10380
X17340Y8825
X11515Y12480
X10215Y14180
X7190Y13795
X6000Y15295
X4515Y15380
X2610Y14585
T02
X11545Y2730
X11545Y1730
X12545Y1730
X12545Y2730
X13545Y2730
X13545Y1730
T03
X18895Y1260
X18995Y2260
X18895Y3260
X18995Y4260
X18895Y5260
X18995Y6260
X19015Y8190
X19015Y9190
X19015Y11130
X19015Y12130
X19015Y13130
X19015Y14130
X16315Y15980
X15315Y15980
X14315Y15980
X13315Y15980
X10715Y15980
X9715Y15980
X8125Y1250
X7125Y1250
X6125Y1250
X4075Y1250
X3075Y1250
T04
X1225Y1300
X16635Y1300
X18925Y16010
X1225Y16010
M30
