G75*
G70*
%OFA0B0*%
%FSLAX24Y24*%
%IPPOS*%
%LPD*%
%AMOC8*
5,1,8,0,0,1.08239X$1,22.5*
%
%ADD10C,0.0000*%
%ADD11C,0.0320*%
%ADD12C,0.0100*%
%ADD13C,0.0060*%
%ADD14C,0.0080*%
%ADD15C,0.0050*%
%ADD16C,0.0030*%
%ADD17R,0.0551X0.0256*%
%ADD18C,0.0020*%
%ADD19R,0.0200X0.0200*%
%ADD20C,0.0040*%
D10*
X000250Y000273D02*
X000250Y006673D01*
X014050Y006673D01*
X014198Y006669D01*
X014345Y006659D01*
X014491Y006641D01*
X014637Y006617D01*
X014781Y006586D01*
X014923Y006547D01*
X015064Y006503D01*
X015202Y006451D01*
X015338Y006393D01*
X015471Y006328D01*
X015600Y006258D01*
X015726Y006181D01*
X015848Y006098D01*
X015966Y006010D01*
X016080Y005916D01*
X016189Y005817D01*
X016294Y005712D01*
X016393Y005603D01*
X016487Y005489D01*
X016575Y005371D01*
X016658Y005249D01*
X016735Y005123D01*
X016805Y004994D01*
X016870Y004861D01*
X016928Y004725D01*
X016980Y004587D01*
X017024Y004446D01*
X017063Y004304D01*
X017094Y004160D01*
X017118Y004014D01*
X017136Y003868D01*
X017146Y003721D01*
X017150Y003573D01*
X017150Y003473D01*
X017146Y003321D01*
X017136Y003169D01*
X017117Y003018D01*
X017092Y002867D01*
X017060Y002719D01*
X017020Y002571D01*
X016974Y002426D01*
X016921Y002284D01*
X016861Y002144D01*
X016794Y002007D01*
X016721Y001873D01*
X016642Y001743D01*
X016557Y001617D01*
X016465Y001495D01*
X016368Y001377D01*
X016266Y001265D01*
X016158Y001157D01*
X016046Y001055D01*
X015928Y000958D01*
X015806Y000866D01*
X015680Y000781D01*
X015550Y000702D01*
X015416Y000629D01*
X015279Y000562D01*
X015139Y000502D01*
X014997Y000449D01*
X014852Y000403D01*
X014704Y000363D01*
X014556Y000331D01*
X014405Y000306D01*
X014254Y000287D01*
X014102Y000277D01*
X013950Y000273D01*
X000250Y000273D01*
D11*
X000350Y000373D02*
X000350Y006573D01*
X014050Y006573D01*
X014193Y006570D01*
X014335Y006559D01*
X014477Y006542D01*
X014618Y006519D01*
X014757Y006488D01*
X014895Y006451D01*
X015031Y006408D01*
X015165Y006358D01*
X015296Y006302D01*
X015425Y006240D01*
X015550Y006171D01*
X015672Y006097D01*
X015790Y006017D01*
X015904Y005931D01*
X016015Y005840D01*
X016120Y005744D01*
X016221Y005643D01*
X016317Y005538D01*
X016408Y005427D01*
X016494Y005313D01*
X016574Y005195D01*
X016648Y005073D01*
X016717Y004948D01*
X016779Y004819D01*
X016835Y004688D01*
X016885Y004554D01*
X016928Y004418D01*
X016965Y004280D01*
X016996Y004141D01*
X017019Y004000D01*
X017036Y003858D01*
X017047Y003716D01*
X017050Y003573D01*
X017050Y003473D02*
X017046Y003325D01*
X017036Y003178D01*
X017018Y003032D01*
X016994Y002886D01*
X016963Y002742D01*
X016924Y002600D01*
X016880Y002459D01*
X016828Y002321D01*
X016770Y002185D01*
X016705Y002052D01*
X016635Y001923D01*
X016558Y001797D01*
X016475Y001675D01*
X016387Y001557D01*
X016293Y001443D01*
X016194Y001334D01*
X016089Y001229D01*
X015980Y001130D01*
X015866Y001036D01*
X015748Y000948D01*
X015626Y000865D01*
X015500Y000788D01*
X015371Y000718D01*
X015238Y000653D01*
X015102Y000595D01*
X014964Y000543D01*
X014823Y000499D01*
X014681Y000460D01*
X014537Y000429D01*
X014391Y000405D01*
X014245Y000387D01*
X014098Y000377D01*
X013950Y000373D01*
X000350Y000373D01*
D12*
X004550Y001573D02*
X004550Y003223D01*
X004552Y003246D01*
X004557Y003269D01*
X004566Y003291D01*
X004579Y003311D01*
X004594Y003329D01*
X004612Y003344D01*
X004632Y003357D01*
X004654Y003366D01*
X004677Y003371D01*
X004700Y003373D01*
X009250Y003373D01*
X009275Y003368D01*
X009298Y003359D01*
X009321Y003347D01*
X009341Y003332D01*
X009359Y003314D01*
X009374Y003294D01*
X009386Y003272D01*
X009395Y003248D01*
X009400Y003223D01*
X009402Y003198D01*
X009400Y003173D01*
X009400Y001573D01*
X009398Y001550D01*
X009393Y001527D01*
X009384Y001505D01*
X009371Y001485D01*
X009356Y001467D01*
X009338Y001452D01*
X009318Y001439D01*
X009296Y001430D01*
X009273Y001425D01*
X009250Y001423D01*
X004700Y001423D01*
X004677Y001425D01*
X004654Y001430D01*
X004632Y001439D01*
X004612Y001452D01*
X004594Y001467D01*
X004579Y001485D01*
X004566Y001505D01*
X004557Y001527D01*
X004552Y001550D01*
X004550Y001573D01*
X009550Y003673D02*
X009576Y003671D01*
X009602Y003666D01*
X009627Y003658D01*
X009650Y003646D01*
X009672Y003632D01*
X009691Y003614D01*
X009709Y003595D01*
X009723Y003573D01*
X009735Y003550D01*
X009743Y003525D01*
X009748Y003499D01*
X009750Y003473D01*
X009750Y001673D01*
X009752Y001643D01*
X009757Y001613D01*
X009766Y001584D01*
X009779Y001557D01*
X009794Y001531D01*
X009813Y001507D01*
X009834Y001486D01*
X009858Y001467D01*
X009884Y001452D01*
X009911Y001439D01*
X009940Y001430D01*
X009970Y001425D01*
X010000Y001423D01*
X014300Y001423D01*
X016350Y003573D02*
X016346Y003671D01*
X016336Y003768D01*
X016322Y003864D01*
X016304Y003960D01*
X016281Y004055D01*
X016253Y004149D01*
X016221Y004241D01*
X016185Y004331D01*
X016144Y004420D01*
X016100Y004507D01*
X016051Y004592D01*
X015998Y004674D01*
X015941Y004753D01*
X015881Y004830D01*
X015817Y004904D01*
X015749Y004974D01*
X015679Y005041D01*
X015605Y005105D01*
X015528Y005166D01*
X015449Y005222D01*
X015366Y005275D01*
X015282Y005324D01*
X015195Y005368D01*
X015106Y005409D01*
X015016Y005445D01*
X014923Y005477D01*
X014830Y005504D01*
X014735Y005527D01*
X014639Y005546D01*
X014542Y005560D01*
X014445Y005569D01*
X014348Y005573D01*
X014250Y005573D01*
X008800Y005573D01*
X008250Y005373D02*
X008250Y003823D01*
X008248Y003797D01*
X008243Y003771D01*
X008235Y003746D01*
X008223Y003723D01*
X008209Y003701D01*
X008191Y003682D01*
X008172Y003664D01*
X008150Y003650D01*
X008127Y003638D01*
X008102Y003630D01*
X008076Y003625D01*
X008050Y003623D01*
X004850Y003623D01*
X004831Y003629D01*
X004813Y003637D01*
X004796Y003648D01*
X004782Y003662D01*
X004769Y003678D01*
X004760Y003695D01*
X004753Y003714D01*
X004749Y003733D01*
X004748Y003753D01*
X004750Y003773D01*
X004750Y005423D01*
X004748Y005443D01*
X004749Y005463D01*
X004753Y005482D01*
X004760Y005501D01*
X004769Y005518D01*
X004782Y005534D01*
X004796Y005548D01*
X004813Y005559D01*
X004831Y005567D01*
X004850Y005573D01*
X008100Y005573D01*
X008125Y005568D01*
X008148Y005559D01*
X008171Y005547D01*
X008191Y005532D01*
X008209Y005514D01*
X008224Y005494D01*
X008236Y005472D01*
X008245Y005448D01*
X008250Y005423D01*
X008252Y005398D01*
X008250Y005373D01*
X008550Y005323D02*
X008550Y003873D01*
X008552Y003847D01*
X008557Y003821D01*
X008565Y003796D01*
X008577Y003773D01*
X008591Y003751D01*
X008609Y003732D01*
X008628Y003714D01*
X008650Y003700D01*
X008673Y003688D01*
X008698Y003680D01*
X008724Y003675D01*
X008750Y003673D01*
X009550Y003673D01*
X008550Y005323D02*
X008552Y005353D01*
X008557Y005383D01*
X008566Y005412D01*
X008579Y005439D01*
X008594Y005465D01*
X008613Y005489D01*
X008634Y005510D01*
X008658Y005529D01*
X008684Y005544D01*
X008711Y005557D01*
X008740Y005566D01*
X008770Y005571D01*
X008800Y005573D01*
X014300Y001423D02*
X014400Y001427D01*
X014499Y001437D01*
X014598Y001451D01*
X014697Y001470D01*
X014794Y001494D01*
X014890Y001522D01*
X014984Y001554D01*
X015077Y001592D01*
X015168Y001633D01*
X015257Y001679D01*
X015344Y001729D01*
X015428Y001783D01*
X015509Y001841D01*
X015588Y001903D01*
X015663Y001968D01*
X015736Y002037D01*
X015805Y002110D01*
X015870Y002185D01*
X015932Y002264D01*
X015990Y002345D01*
X016044Y002430D01*
X016094Y002516D01*
X016140Y002605D01*
X016181Y002696D01*
X016219Y002789D01*
X016251Y002883D01*
X016279Y002979D01*
X016303Y003076D01*
X016322Y003175D01*
X016336Y003274D01*
X016346Y003373D01*
X016350Y003473D01*
X016350Y003573D01*
X017050Y003573D02*
X017050Y003473D01*
D13*
X014920Y003512D02*
X014920Y003298D01*
X014920Y003405D02*
X014279Y003405D01*
X014279Y003298D02*
X014279Y003512D01*
X014386Y003728D02*
X014813Y003728D01*
X014920Y003834D01*
X014920Y004048D01*
X014813Y004155D01*
X014386Y004155D02*
X014279Y004048D01*
X014279Y003834D01*
X014386Y003728D01*
X014279Y003080D02*
X014920Y003080D01*
X014493Y002867D02*
X014279Y003080D01*
X014493Y002867D02*
X014279Y002653D01*
X014920Y002653D01*
X012000Y002435D02*
X012000Y002112D01*
X011500Y002112D02*
X011500Y002435D01*
X011000Y002435D02*
X011000Y002112D01*
X010500Y002112D02*
X010500Y002435D01*
X007710Y003863D02*
X007190Y003863D01*
X007190Y004983D01*
X007710Y004983D01*
X007710Y003863D01*
X009164Y004455D02*
X009164Y004692D01*
X009636Y004692D02*
X009636Y004455D01*
X010000Y004312D02*
X010000Y004635D01*
X010500Y004635D02*
X010500Y004312D01*
X010940Y004263D02*
X012060Y004263D01*
X012060Y004783D01*
X010940Y004783D01*
X010940Y004263D01*
X006350Y002385D02*
X006350Y002062D01*
X005850Y002062D02*
X005850Y002385D01*
X004000Y002523D02*
X003950Y002523D01*
X003950Y002023D01*
X004000Y002023D01*
X004000Y000523D01*
X000500Y000523D01*
X000500Y001023D01*
X000400Y001023D01*
X000400Y001523D01*
X000500Y001523D01*
X000500Y003273D01*
X000400Y003273D01*
X000400Y003773D01*
X000500Y003773D01*
X000500Y005523D01*
X000400Y005523D01*
X000400Y006023D01*
X000500Y006023D01*
X000500Y006523D01*
X004000Y006523D01*
X004000Y004323D01*
X003600Y004323D01*
X003500Y004323D01*
X003500Y006023D01*
X001000Y006023D01*
X001000Y001023D01*
X003500Y001023D01*
X003500Y002723D01*
X003600Y002723D01*
X004000Y002723D01*
X004000Y002523D01*
X004000Y002723D02*
X004000Y004323D01*
X003500Y004323D02*
X003200Y004323D01*
X003200Y002723D01*
X003500Y002723D01*
X005464Y004305D02*
X005464Y004542D01*
X005936Y004542D02*
X005936Y004305D01*
D14*
X007411Y003872D02*
X007726Y003872D01*
X007726Y004108D01*
X007726Y004738D02*
X007726Y004975D01*
X007411Y004975D01*
X007440Y005813D02*
X007547Y005813D01*
X007600Y005867D01*
X007600Y006134D01*
X007755Y006134D02*
X007915Y006134D01*
X007968Y006080D01*
X007968Y005974D01*
X007915Y005920D01*
X007755Y005920D01*
X007862Y005920D02*
X007968Y005813D01*
X008123Y005813D02*
X008337Y005813D01*
X008123Y005813D02*
X008123Y006134D01*
X008337Y006134D01*
X008230Y005974D02*
X008123Y005974D01*
X007755Y005813D02*
X007755Y006134D01*
X007387Y006134D02*
X007387Y005867D01*
X007440Y005813D01*
X007125Y005813D02*
X007125Y006134D01*
X007018Y006134D02*
X007232Y006134D01*
X006863Y006027D02*
X006863Y005813D01*
X006650Y005813D02*
X006650Y006027D01*
X006757Y006134D01*
X006863Y006027D01*
X006863Y005974D02*
X006650Y005974D01*
X006495Y005974D02*
X006442Y005920D01*
X006282Y005920D01*
X006388Y005920D02*
X006495Y005813D01*
X006282Y005813D02*
X006282Y006134D01*
X006442Y006134D01*
X006495Y006080D01*
X006495Y005974D01*
X006127Y006134D02*
X005913Y006134D01*
X005913Y005813D01*
X006127Y005813D01*
X006020Y005974D02*
X005913Y005974D01*
X005758Y005974D02*
X005705Y005920D01*
X005545Y005920D01*
X005545Y005813D02*
X005545Y006134D01*
X005705Y006134D01*
X005758Y006080D01*
X005758Y005974D01*
X005390Y006134D02*
X005390Y005813D01*
X005177Y005813D02*
X005177Y006134D01*
X005283Y006027D01*
X005390Y006134D01*
X005022Y006134D02*
X004808Y006134D01*
X004808Y005813D01*
X005022Y005813D01*
X004547Y005813D02*
X004547Y006134D01*
X004440Y006134D02*
X004654Y006134D01*
X004808Y005974D02*
X004915Y005974D01*
X010949Y004563D02*
X010949Y004248D01*
X011185Y004248D01*
X011815Y004248D02*
X012051Y004248D01*
X012051Y004563D01*
X012341Y003523D02*
X012343Y003617D01*
X012350Y003710D01*
X012362Y003803D01*
X012378Y003895D01*
X012398Y003987D01*
X012423Y004077D01*
X012453Y004166D01*
X012486Y004254D01*
X012524Y004339D01*
X012566Y004423D01*
X012613Y004504D01*
X012663Y004584D01*
X012717Y004660D01*
X012774Y004734D01*
X012836Y004805D01*
X012900Y004873D01*
X012968Y004937D01*
X013039Y004999D01*
X013113Y005056D01*
X013189Y005110D01*
X013269Y005160D01*
X013350Y005207D01*
X013434Y005249D01*
X013519Y005287D01*
X013607Y005320D01*
X013696Y005350D01*
X013786Y005375D01*
X013878Y005395D01*
X013970Y005411D01*
X014063Y005423D01*
X014156Y005430D01*
X014250Y005432D01*
X014344Y005430D01*
X014437Y005423D01*
X014530Y005411D01*
X014622Y005395D01*
X014714Y005375D01*
X014804Y005350D01*
X014893Y005320D01*
X014981Y005287D01*
X015066Y005249D01*
X015150Y005207D01*
X015231Y005160D01*
X015311Y005110D01*
X015387Y005056D01*
X015461Y004999D01*
X015532Y004937D01*
X015600Y004873D01*
X015664Y004805D01*
X015726Y004734D01*
X015783Y004660D01*
X015837Y004584D01*
X015887Y004504D01*
X015934Y004423D01*
X015976Y004339D01*
X016014Y004254D01*
X016047Y004166D01*
X016077Y004077D01*
X016102Y003987D01*
X016122Y003895D01*
X016138Y003803D01*
X016150Y003710D01*
X016157Y003617D01*
X016159Y003523D01*
X016157Y003429D01*
X016150Y003336D01*
X016138Y003243D01*
X016122Y003151D01*
X016102Y003059D01*
X016077Y002969D01*
X016047Y002880D01*
X016014Y002792D01*
X015976Y002707D01*
X015934Y002623D01*
X015887Y002542D01*
X015837Y002462D01*
X015783Y002386D01*
X015726Y002312D01*
X015664Y002241D01*
X015600Y002173D01*
X015532Y002109D01*
X015461Y002047D01*
X015387Y001990D01*
X015311Y001936D01*
X015231Y001886D01*
X015150Y001839D01*
X015066Y001797D01*
X014981Y001759D01*
X014893Y001726D01*
X014804Y001696D01*
X014714Y001671D01*
X014622Y001651D01*
X014530Y001635D01*
X014437Y001623D01*
X014344Y001616D01*
X014250Y001614D01*
X014156Y001616D01*
X014063Y001623D01*
X013970Y001635D01*
X013878Y001651D01*
X013786Y001671D01*
X013696Y001696D01*
X013607Y001726D01*
X013519Y001759D01*
X013434Y001797D01*
X013350Y001839D01*
X013269Y001886D01*
X013189Y001936D01*
X013113Y001990D01*
X013039Y002047D01*
X012968Y002109D01*
X012900Y002173D01*
X012836Y002241D01*
X012774Y002312D01*
X012717Y002386D01*
X012663Y002462D01*
X012613Y002542D01*
X012566Y002623D01*
X012524Y002707D01*
X012486Y002792D01*
X012453Y002880D01*
X012423Y002969D01*
X012398Y003059D01*
X012378Y003151D01*
X012362Y003243D01*
X012350Y003336D01*
X012343Y003429D01*
X012341Y003523D01*
X007104Y001284D02*
X006890Y001284D01*
X006997Y001284D02*
X006997Y000963D01*
X006736Y000963D02*
X006736Y001284D01*
X006522Y001284D02*
X006522Y000963D01*
X006367Y001017D02*
X006367Y001124D01*
X006261Y001124D01*
X006367Y001230D02*
X006314Y001284D01*
X006207Y001284D01*
X006154Y001230D01*
X006154Y001017D01*
X006207Y000963D01*
X006314Y000963D01*
X006367Y001017D01*
X006522Y001124D02*
X006736Y001124D01*
X006015Y001284D02*
X005908Y001284D01*
X005962Y001284D02*
X005962Y000963D01*
X006015Y000963D02*
X005908Y000963D01*
X005754Y000963D02*
X005540Y000963D01*
X005540Y001284D01*
X011090Y005867D02*
X011143Y005813D01*
X011250Y005813D01*
X011304Y005867D01*
X011304Y005920D01*
X011250Y005974D01*
X011143Y005974D01*
X011090Y006027D01*
X011090Y006080D01*
X011143Y006134D01*
X011250Y006134D01*
X011304Y006080D01*
X011458Y006080D02*
X011458Y005867D01*
X011512Y005813D01*
X011618Y005813D01*
X011672Y005867D01*
X011672Y006080D01*
X011618Y006134D01*
X011512Y006134D01*
X011458Y006080D01*
X011827Y006134D02*
X011827Y005867D01*
X011880Y005813D01*
X011987Y005813D01*
X012040Y005867D01*
X012040Y006134D01*
X012195Y006134D02*
X012408Y005813D01*
X012408Y006134D01*
X012563Y006134D02*
X012723Y006134D01*
X012777Y006080D01*
X012777Y005867D01*
X012723Y005813D01*
X012563Y005813D01*
X012563Y006134D01*
X012195Y006134D02*
X012195Y005813D01*
D15*
X009037Y002505D02*
X007872Y002505D01*
X007467Y002155D02*
X007467Y002096D01*
X007860Y001734D02*
X009037Y001734D01*
X009037Y001824D01*
X009037Y002423D02*
X009037Y002505D01*
X003825Y003474D02*
X003750Y003398D01*
X003600Y003398D01*
X003600Y003624D01*
X003675Y003699D01*
X003750Y003699D01*
X003825Y003624D01*
X003825Y003474D01*
X003600Y003398D02*
X003450Y003549D01*
X003375Y003699D01*
X002975Y001849D02*
X002975Y001548D01*
X002975Y001699D02*
X002525Y001699D01*
X002675Y001548D01*
X001975Y001548D02*
X001975Y001849D01*
X001675Y001849D02*
X001600Y001849D01*
X001525Y001774D01*
X001525Y001624D01*
X001600Y001548D01*
X001675Y001849D02*
X001975Y001548D01*
D16*
X006465Y002588D02*
X006465Y002879D01*
X006610Y002879D01*
X006658Y002830D01*
X006658Y002734D01*
X006610Y002685D01*
X006465Y002685D01*
X006562Y002685D02*
X006658Y002588D01*
X006760Y002588D02*
X006953Y002588D01*
X006856Y002588D02*
X006856Y002879D01*
X006760Y002782D01*
X008015Y002687D02*
X008063Y002638D01*
X008160Y002638D01*
X008208Y002687D01*
X008208Y002880D01*
X008160Y002929D01*
X008063Y002929D01*
X008015Y002880D01*
X008015Y002687D01*
X008112Y002735D02*
X008208Y002638D01*
X008310Y002638D02*
X008503Y002832D01*
X008503Y002880D01*
X008455Y002929D01*
X008358Y002929D01*
X008310Y002880D01*
X008310Y002638D02*
X008503Y002638D01*
X010065Y002089D02*
X010113Y002137D01*
X010162Y002137D01*
X010210Y002089D01*
X010258Y002137D01*
X010307Y002137D01*
X010355Y002089D01*
X010355Y001992D01*
X010307Y001944D01*
X010210Y002041D02*
X010210Y002089D01*
X010065Y002089D02*
X010065Y001992D01*
X010113Y001944D01*
X010113Y001843D02*
X010210Y001843D01*
X010258Y001794D01*
X010258Y001649D01*
X010355Y001649D02*
X010065Y001649D01*
X010065Y001794D01*
X010113Y001843D01*
X010258Y001746D02*
X010355Y001843D01*
X012115Y001849D02*
X012115Y001994D01*
X012163Y002043D01*
X012260Y002043D01*
X012308Y001994D01*
X012308Y001849D01*
X012405Y001849D02*
X012115Y001849D01*
X012308Y001946D02*
X012405Y002043D01*
X012405Y002144D02*
X012212Y002337D01*
X012163Y002337D01*
X012115Y002289D01*
X012115Y002192D01*
X012163Y002144D01*
X012405Y002144D02*
X012405Y002337D01*
X009060Y004387D02*
X009012Y004338D01*
X008818Y004338D01*
X008770Y004387D01*
X008770Y004484D01*
X008818Y004532D01*
X008818Y004633D02*
X008770Y004681D01*
X008770Y004778D01*
X008818Y004827D01*
X008867Y004827D01*
X008915Y004778D01*
X008963Y004827D01*
X009012Y004827D01*
X009060Y004778D01*
X009060Y004681D01*
X009012Y004633D01*
X009012Y004532D02*
X009060Y004484D01*
X009060Y004387D01*
X008915Y004730D02*
X008915Y004778D01*
X009976Y005168D02*
X009976Y005459D01*
X010121Y005459D01*
X010169Y005410D01*
X010169Y005314D01*
X010121Y005265D01*
X009976Y005265D01*
X010072Y005265D02*
X010169Y005168D01*
X010415Y005168D02*
X010415Y005459D01*
X010270Y005314D01*
X010464Y005314D01*
X011201Y005217D02*
X011201Y005410D01*
X011249Y005459D01*
X011346Y005459D01*
X011394Y005410D01*
X011394Y005217D01*
X011346Y005168D01*
X011249Y005168D01*
X011201Y005217D01*
X011297Y005265D02*
X011394Y005168D01*
X011495Y005168D02*
X011689Y005168D01*
X011592Y005168D02*
X011592Y005459D01*
X011495Y005362D01*
X007689Y005118D02*
X007495Y005118D01*
X007592Y005118D02*
X007592Y005409D01*
X007495Y005312D01*
X007394Y005360D02*
X007346Y005409D01*
X007249Y005409D01*
X007201Y005360D01*
X007201Y005167D01*
X007249Y005118D01*
X007346Y005118D01*
X007394Y005167D01*
X007101Y005118D02*
X007004Y005118D01*
X007053Y005118D02*
X007053Y005409D01*
X007101Y005409D02*
X007004Y005409D01*
X005305Y004687D02*
X005305Y004494D01*
X005257Y004393D02*
X005305Y004344D01*
X005305Y004248D01*
X005257Y004199D01*
X005063Y004199D01*
X005015Y004248D01*
X005015Y004344D01*
X005063Y004393D01*
X005112Y004494D02*
X005015Y004591D01*
X005305Y004591D01*
D17*
X010249Y004761D03*
X010249Y004181D03*
X010751Y002565D03*
X011751Y002565D03*
X011751Y001985D03*
X010751Y001985D03*
X006101Y001935D03*
X006101Y002515D03*
D18*
X003600Y002723D02*
X003600Y000923D01*
X000900Y000923D01*
X000900Y006123D01*
X003600Y006123D01*
X003600Y004323D01*
D19*
X002750Y004523D03*
X001750Y004523D03*
X001750Y003523D03*
X002750Y003523D03*
X002750Y002523D03*
X001750Y002523D03*
D20*
X013724Y002620D02*
X014031Y002620D01*
M02*
