G75*
G70*
%OFA0B0*%
%FSLAX24Y24*%
%IPPOS*%
%LPD*%
%AMOC8*
5,1,8,0,0,1.08239X$1,22.5*
%
%ADD10R,0.0433X0.0315*%
%ADD11R,0.0433X0.0394*%
%ADD12R,0.0591X0.0512*%
%ADD13R,0.0354X0.0315*%
%ADD14R,0.0472X0.0315*%
%ADD15OC8,0.0540*%
%ADD16R,0.0315X0.0354*%
%ADD17C,0.0660*%
%ADD18C,0.0240*%
%ADD19C,0.0100*%
%ADD20C,0.0376*%
%ADD21C,0.0320*%
%ADD22C,0.0160*%
%ADD23C,0.0120*%
D10*
X007514Y001868D03*
X007514Y002379D03*
D11*
X008982Y002127D03*
D12*
X010750Y001939D03*
X011750Y001939D03*
X011750Y002608D03*
X010750Y002608D03*
X010250Y004139D03*
X010250Y004808D03*
X006100Y002558D03*
X006100Y001889D03*
D13*
X007056Y004049D03*
X007883Y004423D03*
X007056Y004797D03*
D14*
X005700Y004778D03*
X005700Y004069D03*
X009400Y004219D03*
X009400Y004928D03*
D15*
X002750Y004523D03*
X001750Y004523D03*
X001750Y003523D03*
X002750Y003523D03*
X002750Y002523D03*
X001750Y002523D03*
D16*
X011126Y004917D03*
X011874Y004917D03*
X011500Y004090D03*
D17*
X013463Y004023D03*
X013463Y003023D03*
D18*
X011750Y001939D02*
X010750Y001939D01*
X009221Y001939D01*
X008982Y002127D01*
X007514Y002379D02*
X006956Y002379D01*
X006550Y001973D01*
X006185Y001973D01*
X006100Y001889D01*
X002385Y001889D01*
X001750Y002523D01*
D19*
X000450Y000473D02*
X000450Y006473D01*
X014050Y006473D01*
X014334Y006459D01*
X014892Y006349D01*
X015417Y006131D01*
X015890Y005815D01*
X016292Y005413D01*
X016608Y004940D01*
X016825Y004415D01*
X016936Y003858D01*
X016950Y003573D01*
X016950Y003473D01*
X016936Y003179D01*
X016821Y002603D01*
X016596Y002059D01*
X016269Y001570D01*
X015853Y001154D01*
X015364Y000828D01*
X014821Y000603D01*
X014244Y000488D01*
X013950Y000473D01*
X000450Y000473D01*
X000450Y000569D02*
X014652Y000569D01*
X014977Y000667D02*
X000450Y000667D01*
X000450Y000766D02*
X015215Y000766D01*
X015419Y000864D02*
X000450Y000864D01*
X000450Y000963D02*
X001892Y000963D01*
X001921Y000933D02*
X009979Y000933D01*
X010171Y001125D01*
X010259Y001125D01*
X010369Y001171D01*
X010453Y001255D01*
X010498Y001364D01*
X010498Y001483D01*
X010461Y001573D01*
X011091Y001573D01*
X011155Y001637D01*
X011155Y001709D01*
X011345Y001709D01*
X011345Y001637D01*
X011409Y001573D01*
X012091Y001573D01*
X012155Y001637D01*
X012155Y002240D01*
X012122Y002273D01*
X012155Y002307D01*
X012155Y002903D01*
X013036Y002903D01*
X013090Y002774D01*
X013213Y002650D01*
X013375Y002583D01*
X013550Y002583D01*
X013712Y002650D01*
X013836Y002774D01*
X013903Y002936D01*
X013903Y003111D01*
X013836Y003273D01*
X013712Y003396D01*
X013550Y003463D01*
X013375Y003463D01*
X013213Y003396D01*
X013090Y003273D01*
X013077Y003243D01*
X012044Y003243D01*
X012044Y004630D01*
X012077Y004630D01*
X012141Y004694D01*
X012141Y005140D01*
X012077Y005204D01*
X011671Y005204D01*
X011607Y005140D01*
X011607Y004694D01*
X011671Y004630D01*
X011704Y004630D01*
X011704Y004377D01*
X011703Y004378D01*
X011297Y004378D01*
X011233Y004313D01*
X011233Y004063D01*
X010680Y003510D01*
X010580Y003411D01*
X010580Y002974D01*
X010409Y002974D01*
X010345Y002910D01*
X010345Y002836D01*
X010259Y002872D01*
X010141Y002872D01*
X010031Y002826D01*
X009947Y002742D01*
X009902Y002633D01*
X009902Y002514D01*
X009947Y002405D01*
X010031Y002321D01*
X010141Y002275D01*
X010259Y002275D01*
X010345Y002311D01*
X010345Y002307D01*
X010378Y002273D01*
X010345Y002240D01*
X010345Y002169D01*
X009309Y002169D01*
X009309Y002370D01*
X009244Y002434D01*
X008856Y002434D01*
X007640Y003214D01*
X007640Y004131D01*
X007648Y004126D01*
X007686Y004116D01*
X007854Y004116D01*
X007854Y004395D01*
X007912Y004395D01*
X007912Y004452D01*
X008210Y004452D01*
X008210Y004601D01*
X008200Y004639D01*
X008180Y004673D01*
X008152Y004701D01*
X008118Y004721D01*
X008080Y004731D01*
X007912Y004731D01*
X007912Y004452D01*
X007854Y004452D01*
X007854Y004731D01*
X007686Y004731D01*
X007648Y004721D01*
X007614Y004701D01*
X007586Y004673D01*
X007566Y004639D01*
X007556Y004601D01*
X007556Y004586D01*
X007529Y004613D01*
X007343Y004799D01*
X007343Y005001D01*
X009054Y005001D01*
X009054Y005100D02*
X006922Y005100D01*
X006907Y005065D02*
X006948Y005164D01*
X006948Y005283D01*
X006903Y005392D01*
X006819Y005476D01*
X006709Y005522D01*
X006591Y005522D01*
X006481Y005476D01*
X006418Y005413D01*
X002521Y005413D01*
X002060Y004952D01*
X002060Y004751D01*
X001907Y004903D01*
X001593Y004903D01*
X001370Y004681D01*
X001370Y004462D01*
X001121Y004213D01*
X001010Y004102D01*
X001010Y001845D01*
X001810Y001045D01*
X001921Y000933D01*
X001793Y001061D02*
X000450Y001061D01*
X000450Y001160D02*
X001695Y001160D01*
X001596Y001258D02*
X000450Y001258D01*
X000450Y001357D02*
X001498Y001357D01*
X001399Y001455D02*
X000450Y001455D01*
X000450Y001554D02*
X001301Y001554D01*
X001202Y001652D02*
X000450Y001652D01*
X000450Y001751D02*
X001104Y001751D01*
X001010Y001849D02*
X000450Y001849D01*
X000450Y001948D02*
X001010Y001948D01*
X001010Y002046D02*
X000450Y002046D01*
X000450Y002145D02*
X001010Y002145D01*
X001010Y002243D02*
X000450Y002243D01*
X000450Y002342D02*
X001010Y002342D01*
X001010Y002440D02*
X000450Y002440D01*
X000450Y002539D02*
X001010Y002539D01*
X001010Y002637D02*
X000450Y002637D01*
X000450Y002736D02*
X001010Y002736D01*
X001010Y002834D02*
X000450Y002834D01*
X000450Y002933D02*
X001010Y002933D01*
X001010Y003031D02*
X000450Y003031D01*
X000450Y003130D02*
X001010Y003130D01*
X001010Y003228D02*
X000450Y003228D01*
X000450Y003327D02*
X001010Y003327D01*
X001010Y003425D02*
X000450Y003425D01*
X000450Y003524D02*
X001010Y003524D01*
X001010Y003622D02*
X000450Y003622D01*
X000450Y003721D02*
X001010Y003721D01*
X001010Y003819D02*
X000450Y003819D01*
X000450Y003918D02*
X001010Y003918D01*
X001010Y004016D02*
X000450Y004016D01*
X000450Y004115D02*
X001023Y004115D01*
X001121Y004213D02*
X000450Y004213D01*
X000450Y004312D02*
X001220Y004312D01*
X001318Y004410D02*
X000450Y004410D01*
X000450Y004509D02*
X001370Y004509D01*
X001370Y004607D02*
X000450Y004607D01*
X000450Y004706D02*
X001395Y004706D01*
X001494Y004804D02*
X000450Y004804D01*
X000450Y004903D02*
X001592Y004903D01*
X001908Y004903D02*
X002060Y004903D01*
X002060Y004804D02*
X002006Y004804D01*
X002109Y005001D02*
X000450Y005001D01*
X000450Y005100D02*
X002208Y005100D01*
X002306Y005198D02*
X000450Y005198D01*
X000450Y005297D02*
X002405Y005297D01*
X002503Y005395D02*
X000450Y005395D01*
X000450Y005494D02*
X006524Y005494D01*
X006776Y005494D02*
X016211Y005494D01*
X016112Y005592D02*
X000450Y005592D01*
X000450Y005691D02*
X016014Y005691D01*
X015915Y005789D02*
X000450Y005789D01*
X000450Y005888D02*
X015781Y005888D01*
X015633Y005986D02*
X000450Y005986D01*
X000450Y006085D02*
X015486Y006085D01*
X015290Y006183D02*
X000450Y006183D01*
X000450Y006282D02*
X015053Y006282D01*
X014732Y006380D02*
X000450Y006380D01*
X003130Y004588D02*
X003160Y004588D01*
X003160Y003707D01*
X002924Y003943D01*
X002790Y003943D01*
X002790Y003563D01*
X002710Y003563D01*
X002710Y003483D01*
X002790Y003483D01*
X002790Y003103D01*
X002924Y003103D01*
X003160Y003339D01*
X003160Y003202D01*
X002861Y002903D01*
X002593Y002903D01*
X002370Y002681D01*
X002370Y002366D01*
X002593Y002143D01*
X002907Y002143D01*
X003130Y002366D01*
X003130Y002635D01*
X003429Y002933D01*
X003540Y003045D01*
X003540Y004588D01*
X005354Y004588D01*
X005354Y004575D01*
X005418Y004510D01*
X005982Y004510D01*
X006046Y004575D01*
X006046Y004607D01*
X006462Y004607D01*
X006397Y004542D01*
X006352Y004433D01*
X006352Y004314D01*
X006397Y004205D01*
X006481Y004121D01*
X006591Y004075D01*
X006679Y004075D01*
X006769Y003986D01*
X006769Y003846D01*
X006834Y003782D01*
X007260Y003782D01*
X007260Y003165D01*
X007248Y003146D01*
X007260Y003089D01*
X007260Y003031D01*
X007276Y003015D01*
X007281Y002992D01*
X007330Y002961D01*
X007371Y002920D01*
X007394Y002920D01*
X008656Y002111D01*
X008656Y001885D01*
X008720Y001821D01*
X009000Y001821D01*
X009068Y001767D01*
X009126Y001709D01*
X009141Y001709D01*
X009153Y001699D01*
X009234Y001709D01*
X010110Y001709D01*
X010031Y001676D01*
X009947Y001592D01*
X009902Y001483D01*
X009902Y001394D01*
X009821Y001313D01*
X002079Y001313D01*
X001390Y002002D01*
X001390Y002346D01*
X001593Y002143D01*
X001805Y002143D01*
X002289Y001659D01*
X005695Y001659D01*
X005695Y001587D01*
X005759Y001523D01*
X006441Y001523D01*
X006505Y001587D01*
X006505Y001743D01*
X006645Y001743D01*
X006780Y001878D01*
X007051Y002149D01*
X007214Y002149D01*
X007240Y002123D01*
X007187Y002071D01*
X007187Y001664D01*
X007252Y001600D01*
X007776Y001600D01*
X007840Y001664D01*
X007840Y002071D01*
X007787Y002123D01*
X007840Y002176D01*
X007840Y002582D01*
X007776Y002647D01*
X007252Y002647D01*
X007214Y002609D01*
X006861Y002609D01*
X006545Y002294D01*
X006545Y002508D01*
X006150Y002508D01*
X006150Y002608D01*
X006545Y002608D01*
X006545Y002834D01*
X006535Y002872D01*
X006515Y002906D01*
X006487Y002934D01*
X006453Y002954D01*
X006415Y002964D01*
X006150Y002964D01*
X006150Y002608D01*
X006050Y002608D01*
X006050Y002508D01*
X005655Y002508D01*
X005655Y002282D01*
X005665Y002244D01*
X005685Y002210D01*
X005700Y002195D01*
X005695Y002190D01*
X005695Y002119D01*
X002480Y002119D01*
X002130Y002469D01*
X002130Y002681D01*
X001907Y002903D01*
X001593Y002903D01*
X001390Y002701D01*
X001390Y003346D01*
X001593Y003143D01*
X001907Y003143D01*
X002130Y003366D01*
X002130Y003635D01*
X002440Y003945D01*
X002440Y004296D01*
X002593Y004143D01*
X002907Y004143D01*
X003130Y004366D01*
X003130Y004588D01*
X003130Y004509D02*
X003160Y004509D01*
X003160Y004410D02*
X003130Y004410D01*
X003160Y004312D02*
X003076Y004312D01*
X003160Y004213D02*
X002977Y004213D01*
X003160Y004115D02*
X002440Y004115D01*
X002440Y004213D02*
X002523Y004213D01*
X002440Y004016D02*
X003160Y004016D01*
X003160Y003918D02*
X002949Y003918D01*
X003048Y003819D02*
X003160Y003819D01*
X003146Y003721D02*
X003160Y003721D01*
X002790Y003721D02*
X002710Y003721D01*
X002710Y003622D02*
X002790Y003622D01*
X002710Y003563D02*
X002710Y003943D01*
X002576Y003943D01*
X002330Y003697D01*
X002330Y003563D01*
X002710Y003563D01*
X002710Y003524D02*
X002130Y003524D01*
X002130Y003425D02*
X002330Y003425D01*
X002330Y003483D02*
X002330Y003349D01*
X002576Y003103D01*
X002710Y003103D01*
X002710Y003483D01*
X002330Y003483D01*
X002330Y003622D02*
X002130Y003622D01*
X002216Y003721D02*
X002354Y003721D01*
X002315Y003819D02*
X002452Y003819D01*
X002413Y003918D02*
X002551Y003918D01*
X002710Y003918D02*
X002790Y003918D01*
X002790Y003819D02*
X002710Y003819D01*
X003540Y003819D02*
X005344Y003819D01*
X005344Y003820D02*
X005372Y003792D01*
X005406Y003772D01*
X005444Y003762D01*
X005671Y003762D01*
X005671Y004040D01*
X005729Y004040D01*
X005729Y003762D01*
X005956Y003762D01*
X005994Y003772D01*
X006028Y003792D01*
X006056Y003820D01*
X006076Y003854D01*
X006086Y003892D01*
X006086Y004040D01*
X005729Y004040D01*
X005729Y004098D01*
X006086Y004098D01*
X006086Y004246D01*
X006076Y004284D01*
X006056Y004319D01*
X006028Y004347D01*
X005994Y004366D01*
X005956Y004377D01*
X005729Y004377D01*
X005729Y004098D01*
X005671Y004098D01*
X005671Y004040D01*
X005314Y004040D01*
X005314Y003892D01*
X005324Y003854D01*
X005344Y003820D01*
X005314Y003918D02*
X003540Y003918D01*
X003540Y004016D02*
X005314Y004016D01*
X005314Y004098D02*
X005671Y004098D01*
X005671Y004377D01*
X005444Y004377D01*
X005406Y004366D01*
X005372Y004347D01*
X005344Y004319D01*
X005324Y004284D01*
X005314Y004246D01*
X005314Y004098D01*
X005314Y004115D02*
X003540Y004115D01*
X003540Y004213D02*
X005314Y004213D01*
X005340Y004312D02*
X003540Y004312D01*
X003540Y004410D02*
X006352Y004410D01*
X006353Y004312D02*
X006060Y004312D01*
X006086Y004213D02*
X006394Y004213D01*
X006495Y004115D02*
X006086Y004115D01*
X006086Y004016D02*
X006738Y004016D01*
X006769Y003918D02*
X006086Y003918D01*
X006056Y003819D02*
X006796Y003819D01*
X007260Y003721D02*
X003540Y003721D01*
X003540Y003622D02*
X007260Y003622D01*
X007260Y003524D02*
X003540Y003524D01*
X003540Y003425D02*
X007260Y003425D01*
X007260Y003327D02*
X003540Y003327D01*
X003540Y003228D02*
X007260Y003228D01*
X007251Y003130D02*
X003540Y003130D01*
X003527Y003031D02*
X007260Y003031D01*
X007358Y002933D02*
X006488Y002933D01*
X006545Y002834D02*
X007527Y002834D01*
X007681Y002736D02*
X006545Y002736D01*
X006545Y002637D02*
X007242Y002637D01*
X006790Y002539D02*
X006150Y002539D01*
X006050Y002539D02*
X003130Y002539D01*
X003130Y002440D02*
X005655Y002440D01*
X005655Y002342D02*
X003106Y002342D01*
X003007Y002243D02*
X005665Y002243D01*
X005695Y002145D02*
X002909Y002145D01*
X002591Y002145D02*
X002454Y002145D01*
X002493Y002243D02*
X002355Y002243D01*
X002394Y002342D02*
X002257Y002342D01*
X002158Y002440D02*
X002370Y002440D01*
X002370Y002539D02*
X002130Y002539D01*
X002130Y002637D02*
X002370Y002637D01*
X002425Y002736D02*
X002075Y002736D01*
X001976Y002834D02*
X002524Y002834D01*
X002891Y002933D02*
X001390Y002933D01*
X001390Y003031D02*
X002989Y003031D01*
X002950Y003130D02*
X003088Y003130D01*
X003049Y003228D02*
X003160Y003228D01*
X003147Y003327D02*
X003160Y003327D01*
X002790Y003327D02*
X002710Y003327D01*
X002710Y003425D02*
X002790Y003425D01*
X002790Y003228D02*
X002710Y003228D01*
X002710Y003130D02*
X002790Y003130D01*
X002550Y003130D02*
X001390Y003130D01*
X001390Y003228D02*
X001508Y003228D01*
X001409Y003327D02*
X001390Y003327D01*
X001992Y003228D02*
X002451Y003228D01*
X002353Y003327D02*
X002091Y003327D01*
X003428Y002933D02*
X005712Y002933D01*
X005713Y002934D02*
X005685Y002906D01*
X005665Y002872D01*
X005655Y002834D01*
X005655Y002608D01*
X006050Y002608D01*
X006050Y002964D01*
X005785Y002964D01*
X005747Y002954D01*
X005713Y002934D01*
X005655Y002834D02*
X003330Y002834D01*
X003231Y002736D02*
X005655Y002736D01*
X005655Y002637D02*
X003133Y002637D01*
X001902Y002046D02*
X001390Y002046D01*
X001390Y002145D02*
X001591Y002145D01*
X001493Y002243D02*
X001390Y002243D01*
X001390Y002342D02*
X001394Y002342D01*
X001444Y001948D02*
X002000Y001948D01*
X002099Y001849D02*
X001543Y001849D01*
X001641Y001751D02*
X002197Y001751D01*
X001838Y001554D02*
X005728Y001554D01*
X005695Y001652D02*
X001740Y001652D01*
X001937Y001455D02*
X009902Y001455D01*
X009931Y001554D02*
X006472Y001554D01*
X006505Y001652D02*
X007199Y001652D01*
X007187Y001751D02*
X006653Y001751D01*
X006751Y001849D02*
X007187Y001849D01*
X007187Y001948D02*
X006850Y001948D01*
X006948Y002046D02*
X007187Y002046D01*
X007219Y002145D02*
X007047Y002145D01*
X006593Y002342D02*
X006545Y002342D01*
X006545Y002440D02*
X006692Y002440D01*
X006150Y002637D02*
X006050Y002637D01*
X006050Y002736D02*
X006150Y002736D01*
X006150Y002834D02*
X006050Y002834D01*
X006050Y002933D02*
X006150Y002933D01*
X007640Y003228D02*
X010580Y003228D01*
X010580Y003130D02*
X007770Y003130D01*
X007924Y003031D02*
X010580Y003031D01*
X010368Y002933D02*
X008078Y002933D01*
X008231Y002834D02*
X010051Y002834D01*
X009945Y002736D02*
X008385Y002736D01*
X008539Y002637D02*
X009904Y002637D01*
X009902Y002539D02*
X008692Y002539D01*
X008846Y002440D02*
X009932Y002440D01*
X010010Y002342D02*
X009309Y002342D01*
X009309Y002243D02*
X010348Y002243D01*
X009083Y001751D02*
X007840Y001751D01*
X007840Y001849D02*
X008691Y001849D01*
X008656Y001948D02*
X007840Y001948D01*
X007840Y002046D02*
X008656Y002046D01*
X008603Y002145D02*
X007809Y002145D01*
X007840Y002243D02*
X008449Y002243D01*
X008296Y002342D02*
X007840Y002342D01*
X007840Y002440D02*
X008142Y002440D01*
X007988Y002539D02*
X007840Y002539D01*
X007835Y002637D02*
X007785Y002637D01*
X007640Y003327D02*
X010580Y003327D01*
X010595Y003425D02*
X007640Y003425D01*
X007640Y003524D02*
X010693Y003524D01*
X010792Y003622D02*
X007640Y003622D01*
X007640Y003721D02*
X010890Y003721D01*
X010685Y003825D02*
X010665Y003791D01*
X010637Y003763D01*
X010603Y003743D01*
X010565Y003733D01*
X010300Y003733D01*
X010300Y004089D01*
X010300Y004189D01*
X010695Y004189D01*
X010695Y004414D01*
X010685Y004453D01*
X010665Y004487D01*
X010650Y004502D01*
X010655Y004507D01*
X010655Y004638D01*
X010915Y004638D01*
X010923Y004630D01*
X011329Y004630D01*
X011393Y004694D01*
X011393Y005140D01*
X011329Y005204D01*
X010923Y005204D01*
X010859Y005140D01*
X010859Y004978D01*
X010655Y004978D01*
X010655Y005110D01*
X010591Y005174D01*
X009909Y005174D01*
X009845Y005110D01*
X009845Y005098D01*
X009746Y005098D01*
X009746Y005131D01*
X009682Y005195D01*
X009118Y005195D01*
X009054Y005131D01*
X009054Y004725D01*
X009118Y004660D01*
X009682Y004660D01*
X009746Y004725D01*
X009746Y004758D01*
X009845Y004758D01*
X009845Y004507D01*
X009850Y004502D01*
X009835Y004487D01*
X009815Y004453D01*
X009805Y004414D01*
X009805Y004189D01*
X010200Y004189D01*
X010200Y004089D01*
X009805Y004089D01*
X009805Y003863D01*
X009815Y003825D01*
X009835Y003791D01*
X009863Y003763D01*
X009897Y003743D01*
X009935Y003733D01*
X010200Y003733D01*
X010200Y004089D01*
X010300Y004089D01*
X010695Y004089D01*
X010695Y003863D01*
X010685Y003825D01*
X010682Y003819D02*
X010989Y003819D01*
X011087Y003918D02*
X010695Y003918D01*
X010695Y004016D02*
X011186Y004016D01*
X011233Y004115D02*
X010300Y004115D01*
X010300Y004016D02*
X010200Y004016D01*
X010200Y004115D02*
X009786Y004115D01*
X009786Y004042D02*
X009786Y004190D01*
X009429Y004190D01*
X009429Y003912D01*
X009656Y003912D01*
X009694Y003922D01*
X009728Y003942D01*
X009756Y003970D01*
X009776Y004004D01*
X009786Y004042D01*
X009779Y004016D02*
X009805Y004016D01*
X009805Y003918D02*
X009680Y003918D01*
X009818Y003819D02*
X007640Y003819D01*
X007640Y003918D02*
X009120Y003918D01*
X009106Y003922D02*
X009144Y003912D01*
X009371Y003912D01*
X009371Y004190D01*
X009429Y004190D01*
X009429Y004248D01*
X009786Y004248D01*
X009786Y004396D01*
X009776Y004434D01*
X009756Y004469D01*
X009728Y004497D01*
X009694Y004516D01*
X009656Y004527D01*
X009429Y004527D01*
X009429Y004248D01*
X009371Y004248D01*
X009371Y004190D01*
X009014Y004190D01*
X009014Y004042D01*
X009024Y004004D01*
X009044Y003970D01*
X009072Y003942D01*
X009106Y003922D01*
X009371Y003918D02*
X009429Y003918D01*
X009429Y004016D02*
X009371Y004016D01*
X009371Y004115D02*
X009429Y004115D01*
X009429Y004213D02*
X009805Y004213D01*
X009805Y004312D02*
X009786Y004312D01*
X009782Y004410D02*
X009805Y004410D01*
X009845Y004509D02*
X009707Y004509D01*
X009845Y004607D02*
X008208Y004607D01*
X008210Y004509D02*
X009093Y004509D01*
X009106Y004516D02*
X009072Y004497D01*
X009044Y004469D01*
X009024Y004434D01*
X009014Y004396D01*
X009014Y004248D01*
X009371Y004248D01*
X009371Y004527D01*
X009144Y004527D01*
X009106Y004516D01*
X009371Y004509D02*
X009429Y004509D01*
X009429Y004410D02*
X009371Y004410D01*
X009371Y004312D02*
X009429Y004312D01*
X009371Y004213D02*
X008201Y004213D01*
X008200Y004208D02*
X008210Y004246D01*
X008210Y004395D01*
X007912Y004395D01*
X007912Y004116D01*
X008080Y004116D01*
X008118Y004126D01*
X008152Y004146D01*
X008180Y004174D01*
X008200Y004208D01*
X008210Y004312D02*
X009014Y004312D01*
X009018Y004410D02*
X007912Y004410D01*
X007912Y004312D02*
X007854Y004312D01*
X007854Y004213D02*
X007912Y004213D01*
X007640Y004115D02*
X009014Y004115D01*
X009021Y004016D02*
X007640Y004016D01*
X007854Y004509D02*
X007912Y004509D01*
X007912Y004607D02*
X007854Y004607D01*
X007854Y004706D02*
X007912Y004706D01*
X008144Y004706D02*
X009073Y004706D01*
X009054Y004804D02*
X007343Y004804D01*
X007343Y004903D02*
X009054Y004903D01*
X009727Y004706D02*
X009845Y004706D01*
X010655Y004607D02*
X011704Y004607D01*
X011704Y004509D02*
X010655Y004509D01*
X010695Y004410D02*
X011704Y004410D01*
X012044Y004410D02*
X013179Y004410D01*
X013150Y004390D02*
X013096Y004336D01*
X013052Y004275D01*
X013018Y004208D01*
X012994Y004136D01*
X012983Y004061D01*
X012983Y004052D01*
X013434Y004052D01*
X013434Y003995D01*
X012983Y003995D01*
X012983Y003986D01*
X012994Y003911D01*
X013018Y003839D01*
X013052Y003772D01*
X013096Y003711D01*
X013150Y003657D01*
X013211Y003613D01*
X013278Y003579D01*
X013350Y003555D01*
X013425Y003543D01*
X013434Y003543D01*
X013434Y003995D01*
X013491Y003995D01*
X013491Y003543D01*
X013500Y003543D01*
X013575Y003555D01*
X013647Y003579D01*
X013714Y003613D01*
X013775Y003657D01*
X013829Y003711D01*
X013873Y003772D01*
X013907Y003839D01*
X013931Y003911D01*
X013943Y003986D01*
X013943Y003995D01*
X013491Y003995D01*
X013491Y004052D01*
X013434Y004052D01*
X013434Y004503D01*
X013425Y004503D01*
X013350Y004492D01*
X013278Y004468D01*
X013211Y004434D01*
X013150Y004390D01*
X013079Y004312D02*
X012044Y004312D01*
X012044Y004213D02*
X013021Y004213D01*
X012991Y004115D02*
X012044Y004115D01*
X012044Y004016D02*
X013434Y004016D01*
X013491Y004016D02*
X016904Y004016D01*
X016885Y004115D02*
X013934Y004115D01*
X013931Y004136D02*
X013907Y004208D01*
X013873Y004275D01*
X013829Y004336D01*
X013775Y004390D01*
X013714Y004434D01*
X013647Y004468D01*
X013575Y004492D01*
X013500Y004503D01*
X013491Y004503D01*
X013491Y004052D01*
X013943Y004052D01*
X013943Y004061D01*
X013931Y004136D01*
X013904Y004213D02*
X016865Y004213D01*
X016846Y004312D02*
X013846Y004312D01*
X013747Y004410D02*
X016826Y004410D01*
X016786Y004509D02*
X012044Y004509D01*
X012044Y004607D02*
X016746Y004607D01*
X016705Y004706D02*
X012141Y004706D01*
X012141Y004804D02*
X016664Y004804D01*
X016623Y004903D02*
X012141Y004903D01*
X012141Y005001D02*
X016567Y005001D01*
X016501Y005100D02*
X012141Y005100D01*
X012083Y005198D02*
X016435Y005198D01*
X016369Y005297D02*
X006942Y005297D01*
X006948Y005198D02*
X010917Y005198D01*
X010859Y005100D02*
X010655Y005100D01*
X010655Y005001D02*
X010859Y005001D01*
X011335Y005198D02*
X011665Y005198D01*
X011607Y005100D02*
X011393Y005100D01*
X011393Y005001D02*
X011607Y005001D01*
X011607Y004903D02*
X011393Y004903D01*
X011393Y004804D02*
X011607Y004804D01*
X011607Y004706D02*
X011393Y004706D01*
X011233Y004312D02*
X010695Y004312D01*
X010695Y004213D02*
X011233Y004213D01*
X012044Y003918D02*
X012993Y003918D01*
X013028Y003819D02*
X012044Y003819D01*
X012044Y003721D02*
X013089Y003721D01*
X013198Y003622D02*
X012044Y003622D01*
X012044Y003524D02*
X016950Y003524D01*
X016948Y003425D02*
X013642Y003425D01*
X013781Y003327D02*
X016943Y003327D01*
X016938Y003228D02*
X013854Y003228D01*
X013895Y003130D02*
X016926Y003130D01*
X016906Y003031D02*
X013903Y003031D01*
X013901Y002933D02*
X016887Y002933D01*
X016867Y002834D02*
X013861Y002834D01*
X013797Y002736D02*
X016847Y002736D01*
X016828Y002637D02*
X013681Y002637D01*
X013245Y002637D02*
X012155Y002637D01*
X012155Y002736D02*
X013128Y002736D01*
X013065Y002834D02*
X012155Y002834D01*
X012155Y002539D02*
X016794Y002539D01*
X016754Y002440D02*
X012155Y002440D01*
X012155Y002342D02*
X016713Y002342D01*
X016672Y002243D02*
X012152Y002243D01*
X012155Y002145D02*
X016631Y002145D01*
X016587Y002046D02*
X012155Y002046D01*
X012155Y001948D02*
X016521Y001948D01*
X016456Y001849D02*
X012155Y001849D01*
X012155Y001751D02*
X016390Y001751D01*
X016324Y001652D02*
X012155Y001652D01*
X011345Y001652D02*
X011155Y001652D01*
X010498Y001455D02*
X016154Y001455D01*
X016253Y001554D02*
X010469Y001554D01*
X010495Y001357D02*
X016056Y001357D01*
X015957Y001258D02*
X010454Y001258D01*
X010343Y001160D02*
X015859Y001160D01*
X015714Y001061D02*
X010107Y001061D01*
X010008Y000963D02*
X015567Y000963D01*
X010007Y001652D02*
X007828Y001652D01*
X009865Y001357D02*
X002035Y001357D01*
X001425Y002736D02*
X001390Y002736D01*
X001390Y002834D02*
X001524Y002834D01*
X005671Y003819D02*
X005729Y003819D01*
X005729Y003918D02*
X005671Y003918D01*
X005671Y004016D02*
X005729Y004016D01*
X005729Y004115D02*
X005671Y004115D01*
X005671Y004213D02*
X005729Y004213D01*
X005729Y004312D02*
X005671Y004312D01*
X006046Y004607D02*
X006462Y004607D01*
X006383Y004509D02*
X003540Y004509D01*
X006907Y005065D02*
X007279Y005065D01*
X007343Y005001D01*
X007436Y004706D02*
X007622Y004706D01*
X007558Y004607D02*
X007535Y004607D01*
X006900Y005395D02*
X016304Y005395D01*
X013491Y004410D02*
X013434Y004410D01*
X013434Y004312D02*
X013491Y004312D01*
X013491Y004213D02*
X013434Y004213D01*
X013434Y004115D02*
X013491Y004115D01*
X013491Y003918D02*
X013434Y003918D01*
X013434Y003819D02*
X013491Y003819D01*
X013491Y003721D02*
X013434Y003721D01*
X013434Y003622D02*
X013491Y003622D01*
X013727Y003622D02*
X016948Y003622D01*
X016943Y003721D02*
X013836Y003721D01*
X013897Y003819D02*
X016938Y003819D01*
X016924Y003918D02*
X013932Y003918D01*
X013283Y003425D02*
X012044Y003425D01*
X012044Y003327D02*
X013144Y003327D01*
X010300Y003819D02*
X010200Y003819D01*
X010200Y003918D02*
X010300Y003918D01*
X009845Y005100D02*
X009746Y005100D01*
D20*
X006650Y005223D03*
X006650Y004373D03*
X006250Y003973D03*
X010200Y002573D03*
X010200Y001423D03*
D21*
X006250Y003973D02*
X006200Y004073D01*
X005700Y004069D01*
D22*
X006650Y004373D02*
X006974Y004049D01*
X007056Y004049D01*
X007450Y004423D02*
X007450Y003110D01*
X008982Y002127D01*
X010200Y002573D02*
X010715Y002573D01*
X010750Y002608D01*
X010200Y001423D02*
X009900Y001123D01*
X002000Y001123D01*
X001200Y001923D01*
X001200Y004023D01*
X001700Y004523D01*
X001750Y004523D01*
X002250Y004873D02*
X002250Y004023D01*
X001750Y003523D01*
X002750Y002523D02*
X003350Y003123D01*
X003350Y004778D01*
X003050Y004778D01*
X002750Y004523D01*
X003350Y004778D02*
X005700Y004778D01*
X005720Y004797D01*
X007056Y004797D01*
X007076Y004797D01*
X007450Y004423D01*
X006650Y005223D02*
X002600Y005223D01*
X002250Y004873D01*
D23*
X009400Y004928D02*
X010250Y004928D01*
X010250Y004808D01*
X011126Y004808D01*
X011126Y004917D01*
X011874Y004917D02*
X011874Y003073D01*
X013413Y003073D01*
X013463Y003023D01*
X011874Y003073D02*
X011874Y002732D01*
X011750Y002608D01*
X010750Y002608D02*
X010750Y003340D01*
X011500Y004090D01*
M02*
