G75*
G70*
%OFA0B0*%
%FSLAX24Y24*%
%IPPOS*%
%LPD*%
%AMOC8*
5,1,8,0,0,1.08239X$1,22.5*
%
%ADD10C,0.0000*%
%ADD11C,0.0320*%
%ADD12C,0.0100*%
%ADD13C,0.0220*%
%ADD14C,0.0050*%
%ADD15C,0.0030*%
%ADD16C,0.0070*%
%ADD17C,0.0040*%
D10*
X000250Y000273D02*
X000250Y006673D01*
X014050Y006673D01*
X014198Y006669D01*
X014345Y006659D01*
X014491Y006641D01*
X014637Y006617D01*
X014781Y006586D01*
X014923Y006547D01*
X015064Y006503D01*
X015202Y006451D01*
X015338Y006393D01*
X015471Y006328D01*
X015600Y006258D01*
X015726Y006181D01*
X015848Y006098D01*
X015966Y006010D01*
X016080Y005916D01*
X016189Y005817D01*
X016294Y005712D01*
X016393Y005603D01*
X016487Y005489D01*
X016575Y005371D01*
X016658Y005249D01*
X016735Y005123D01*
X016805Y004994D01*
X016870Y004861D01*
X016928Y004725D01*
X016980Y004587D01*
X017024Y004446D01*
X017063Y004304D01*
X017094Y004160D01*
X017118Y004014D01*
X017136Y003868D01*
X017146Y003721D01*
X017150Y003573D01*
X017150Y003473D01*
X017146Y003321D01*
X017136Y003169D01*
X017117Y003018D01*
X017092Y002867D01*
X017060Y002719D01*
X017020Y002571D01*
X016974Y002426D01*
X016921Y002284D01*
X016861Y002144D01*
X016794Y002007D01*
X016721Y001873D01*
X016642Y001743D01*
X016557Y001617D01*
X016465Y001495D01*
X016368Y001377D01*
X016266Y001265D01*
X016158Y001157D01*
X016046Y001055D01*
X015928Y000958D01*
X015806Y000866D01*
X015680Y000781D01*
X015550Y000702D01*
X015416Y000629D01*
X015279Y000562D01*
X015139Y000502D01*
X014997Y000449D01*
X014852Y000403D01*
X014704Y000363D01*
X014556Y000331D01*
X014405Y000306D01*
X014254Y000287D01*
X014102Y000277D01*
X013950Y000273D01*
X000250Y000273D01*
D11*
X000350Y000373D02*
X000350Y006573D01*
X014050Y006573D01*
X014193Y006570D01*
X014335Y006559D01*
X014477Y006542D01*
X014618Y006519D01*
X014757Y006488D01*
X014895Y006451D01*
X015031Y006408D01*
X015165Y006358D01*
X015296Y006302D01*
X015425Y006240D01*
X015550Y006171D01*
X015672Y006097D01*
X015790Y006017D01*
X015904Y005931D01*
X016015Y005840D01*
X016120Y005744D01*
X016221Y005643D01*
X016317Y005538D01*
X016408Y005427D01*
X016494Y005313D01*
X016574Y005195D01*
X016648Y005073D01*
X016717Y004948D01*
X016779Y004819D01*
X016835Y004688D01*
X016885Y004554D01*
X016928Y004418D01*
X016965Y004280D01*
X016996Y004141D01*
X017019Y004000D01*
X017036Y003858D01*
X017047Y003716D01*
X017050Y003573D01*
X017050Y003473D02*
X017046Y003325D01*
X017036Y003178D01*
X017018Y003032D01*
X016994Y002886D01*
X016963Y002742D01*
X016924Y002600D01*
X016880Y002459D01*
X016828Y002321D01*
X016770Y002185D01*
X016705Y002052D01*
X016635Y001923D01*
X016558Y001797D01*
X016475Y001675D01*
X016387Y001557D01*
X016293Y001443D01*
X016194Y001334D01*
X016089Y001229D01*
X015980Y001130D01*
X015866Y001036D01*
X015748Y000948D01*
X015626Y000865D01*
X015500Y000788D01*
X015371Y000718D01*
X015238Y000653D01*
X015102Y000595D01*
X014964Y000543D01*
X014823Y000499D01*
X014681Y000460D01*
X014537Y000429D01*
X014391Y000405D01*
X014245Y000387D01*
X014098Y000377D01*
X013950Y000373D01*
X000350Y000373D01*
D12*
X017050Y003473D02*
X017050Y003573D01*
D13*
X012240Y003833D02*
X011653Y003833D01*
X011227Y003980D02*
X011080Y003833D01*
X010787Y003833D01*
X010640Y003980D01*
X010640Y004714D01*
X010214Y004714D02*
X009921Y004421D01*
X009627Y004714D01*
X009627Y003833D01*
X009201Y003833D02*
X008908Y003833D01*
X009055Y003833D02*
X009055Y004714D01*
X009201Y004714D02*
X008908Y004714D01*
X008526Y004714D02*
X008086Y004714D01*
X007939Y004567D01*
X007939Y004421D01*
X008086Y004274D01*
X008526Y004274D01*
X008086Y004274D02*
X007939Y004127D01*
X007939Y003980D01*
X008086Y003833D01*
X008526Y003833D01*
X008526Y004714D01*
X007513Y004567D02*
X007513Y003980D01*
X007367Y003833D01*
X007073Y003833D01*
X006926Y003980D01*
X006926Y004567D01*
X007073Y004714D01*
X007367Y004714D01*
X007513Y004567D01*
X006500Y004421D02*
X006207Y004714D01*
X005913Y004421D01*
X005913Y003833D01*
X005488Y003833D02*
X005488Y004714D01*
X005047Y004714D01*
X004900Y004567D01*
X004900Y004274D01*
X005047Y004127D01*
X005488Y004127D01*
X005194Y004127D02*
X004900Y003833D01*
X004475Y003833D02*
X004034Y003833D01*
X003888Y003980D01*
X003888Y004567D01*
X004034Y004714D01*
X004475Y004714D01*
X004475Y003833D01*
X005913Y004274D02*
X006500Y004274D01*
X006500Y004421D02*
X006500Y003833D01*
X010214Y003833D02*
X010214Y004714D01*
X011227Y004714D02*
X011227Y003980D01*
X012240Y003833D02*
X012240Y004714D01*
D14*
X012233Y003399D02*
X012050Y003399D01*
X011958Y003307D01*
X012050Y003124D02*
X011958Y003032D01*
X011958Y002940D01*
X012050Y002848D01*
X012233Y002848D01*
X012325Y002940D01*
X012233Y003124D02*
X012050Y003124D01*
X012233Y003124D02*
X012325Y003215D01*
X012325Y003307D01*
X012233Y003399D01*
X011773Y003399D02*
X011773Y002848D01*
X011406Y002848D01*
X011220Y002848D02*
X011220Y003399D01*
X010853Y002848D01*
X010853Y003399D01*
X010668Y003307D02*
X010668Y003215D01*
X010576Y003124D01*
X010392Y003124D01*
X010301Y003032D01*
X010301Y002940D01*
X010392Y002848D01*
X010576Y002848D01*
X010668Y002940D01*
X010115Y002940D02*
X010023Y002848D01*
X009840Y002848D01*
X009748Y002940D01*
X009748Y003307D01*
X009840Y003399D01*
X010023Y003399D01*
X010115Y003307D01*
X010115Y002940D01*
X009563Y002848D02*
X009563Y003399D01*
X009287Y003399D01*
X009196Y003307D01*
X009196Y003124D01*
X009287Y003032D01*
X009563Y003032D01*
X009379Y003032D02*
X009196Y002848D01*
X008458Y002848D02*
X008182Y002848D01*
X008091Y002940D01*
X008091Y003032D01*
X008182Y003124D01*
X008458Y003124D01*
X008182Y003124D02*
X008091Y003215D01*
X008091Y003307D01*
X008182Y003399D01*
X008458Y003399D01*
X008458Y002848D01*
X007905Y002940D02*
X007813Y002848D01*
X007630Y002848D01*
X007538Y002940D01*
X007538Y003307D01*
X007630Y003399D01*
X007813Y003399D01*
X007905Y003307D01*
X007905Y002940D01*
X007353Y002848D02*
X007353Y003215D01*
X007169Y003399D01*
X006986Y003215D01*
X006986Y002848D01*
X006800Y002848D02*
X006800Y003399D01*
X006525Y003399D01*
X006433Y003307D01*
X006433Y003124D01*
X006525Y003032D01*
X006800Y003032D01*
X006617Y003032D02*
X006433Y002848D01*
X006248Y002848D02*
X005973Y002848D01*
X005881Y002940D01*
X005881Y003307D01*
X005973Y003399D01*
X006248Y003399D01*
X006248Y002848D01*
X006986Y003124D02*
X007353Y003124D01*
X010301Y003307D02*
X010392Y003399D01*
X010576Y003399D01*
X010668Y003307D01*
X011406Y003399D02*
X011773Y003399D01*
X011773Y003124D02*
X011589Y003124D01*
D15*
X011578Y002207D02*
X011578Y002169D01*
X011578Y002092D02*
X011578Y001938D01*
X011540Y001938D02*
X011617Y001938D01*
X011703Y001977D02*
X011741Y002015D01*
X011818Y002015D01*
X011856Y002054D01*
X011818Y002092D01*
X011703Y002092D01*
X011617Y002092D02*
X011578Y002092D01*
X011457Y002054D02*
X011457Y001977D01*
X011419Y001938D01*
X011304Y001938D01*
X011304Y001900D02*
X011304Y002092D01*
X011419Y002092D01*
X011457Y002054D01*
X011218Y002092D02*
X011103Y002092D01*
X011064Y002054D01*
X011064Y001938D01*
X010978Y001977D02*
X010978Y002054D01*
X010940Y002092D01*
X010863Y002092D01*
X010825Y002054D01*
X010825Y002015D01*
X010978Y002015D01*
X010978Y001977D02*
X010940Y001938D01*
X010863Y001938D01*
X010739Y001977D02*
X010739Y002054D01*
X010701Y002092D01*
X010586Y002092D01*
X010586Y002169D02*
X010586Y001938D01*
X010701Y001938D01*
X010739Y001977D01*
X011218Y001938D02*
X011218Y002092D01*
X011304Y001900D02*
X011342Y001862D01*
X011380Y001862D01*
X011703Y001977D02*
X011741Y001938D01*
X011856Y001938D01*
X011980Y001938D02*
X012057Y001938D01*
X012096Y001977D01*
X012096Y002054D01*
X012057Y002092D01*
X011980Y002092D01*
X011942Y002054D01*
X011942Y002015D01*
X012096Y002015D01*
X012182Y001977D02*
X012182Y002130D01*
X012220Y002169D01*
X012335Y002169D01*
X012335Y001938D01*
X012220Y001938D01*
X012182Y001977D01*
X010260Y001938D02*
X010145Y001938D01*
X010107Y001977D01*
X010107Y002054D01*
X010145Y002092D01*
X010260Y002092D01*
X010260Y002169D02*
X010260Y001938D01*
X010021Y001977D02*
X009982Y001938D01*
X009867Y001938D01*
X009867Y001900D02*
X009906Y001862D01*
X009944Y001862D01*
X009867Y001900D02*
X009867Y002092D01*
X010021Y002092D02*
X010021Y001977D01*
X009542Y001977D02*
X009504Y001938D01*
X009465Y001938D01*
X009427Y001977D01*
X009427Y002169D01*
X009465Y002169D02*
X009388Y002169D01*
X009264Y002092D02*
X009187Y002092D01*
X009149Y002054D01*
X009149Y001938D01*
X009264Y001938D01*
X009303Y001977D01*
X009264Y002015D01*
X009149Y002015D01*
X009063Y002054D02*
X009025Y002092D01*
X008910Y002092D01*
X008948Y002015D02*
X009025Y002015D01*
X009063Y002054D01*
X008948Y002015D02*
X008910Y001977D01*
X008948Y001938D01*
X009063Y001938D01*
X008824Y001977D02*
X008824Y002054D01*
X008785Y002092D01*
X008709Y002092D01*
X008670Y002054D01*
X008670Y001977D01*
X008709Y001938D01*
X008785Y001938D01*
X008824Y001977D01*
X008584Y001938D02*
X008584Y002092D01*
X008469Y002092D01*
X008431Y002054D01*
X008431Y001938D01*
X008106Y001938D02*
X008029Y002015D01*
X007952Y001938D01*
X007952Y002169D01*
X007866Y002054D02*
X007828Y002092D01*
X007751Y002092D01*
X007713Y002054D01*
X007713Y002015D01*
X007866Y002015D01*
X007866Y001977D02*
X007866Y002054D01*
X007866Y001977D02*
X007828Y001938D01*
X007751Y001938D01*
X007627Y001938D02*
X007512Y001938D01*
X007473Y001977D01*
X007473Y002054D01*
X007512Y002092D01*
X007627Y002092D01*
X007627Y002169D02*
X007627Y001938D01*
X007387Y001938D02*
X007272Y001938D01*
X007234Y001977D01*
X007234Y002054D01*
X007272Y002092D01*
X007387Y002092D01*
X007387Y002169D02*
X007387Y001938D01*
X008106Y001938D02*
X008106Y002169D01*
D16*
X004550Y002523D02*
X012600Y002523D01*
D17*
X015070Y002593D02*
X015430Y002593D01*
X015430Y002774D01*
X015370Y002834D01*
X015250Y002834D01*
X015190Y002774D01*
X015190Y002593D01*
X015190Y002714D02*
X015070Y002834D01*
X015070Y002962D02*
X015070Y003202D01*
X015190Y003330D02*
X015070Y003450D01*
X015190Y003570D01*
X015430Y003570D01*
X015430Y003330D02*
X015190Y003330D01*
X015430Y003202D02*
X015430Y002962D01*
X015070Y002962D01*
X015250Y002962D02*
X015250Y003082D01*
X015250Y004067D02*
X015250Y004307D01*
X015310Y004307D02*
X015070Y004307D01*
X015310Y004307D02*
X015430Y004187D01*
X015310Y004067D01*
X015070Y004067D01*
M02*
