G75*
G70*
%OFA0B0*%
%FSLAX24Y24*%
%IPPOS*%
%LPD*%
%AMOC8*
5,1,8,0,0,1.08239X$1,22.5*
%
%ADD10C,0.0000*%
D10*
X000250Y000273D02*
X000250Y006673D01*
X014050Y006673D01*
X014198Y006669D01*
X014345Y006659D01*
X014491Y006641D01*
X014637Y006617D01*
X014781Y006586D01*
X014923Y006547D01*
X015064Y006503D01*
X015202Y006451D01*
X015338Y006393D01*
X015471Y006328D01*
X015600Y006258D01*
X015726Y006181D01*
X015848Y006098D01*
X015966Y006010D01*
X016080Y005916D01*
X016189Y005817D01*
X016294Y005712D01*
X016393Y005603D01*
X016487Y005489D01*
X016575Y005371D01*
X016658Y005249D01*
X016735Y005123D01*
X016805Y004994D01*
X016870Y004861D01*
X016928Y004725D01*
X016980Y004587D01*
X017024Y004446D01*
X017063Y004304D01*
X017094Y004160D01*
X017118Y004014D01*
X017136Y003868D01*
X017146Y003721D01*
X017150Y003573D01*
X017150Y003473D01*
X017146Y003321D01*
X017136Y003169D01*
X017117Y003018D01*
X017092Y002867D01*
X017060Y002719D01*
X017020Y002571D01*
X016974Y002426D01*
X016921Y002284D01*
X016861Y002144D01*
X016794Y002007D01*
X016721Y001873D01*
X016642Y001743D01*
X016557Y001617D01*
X016465Y001495D01*
X016368Y001377D01*
X016266Y001265D01*
X016158Y001157D01*
X016046Y001055D01*
X015928Y000958D01*
X015806Y000866D01*
X015680Y000781D01*
X015550Y000702D01*
X015416Y000629D01*
X015279Y000562D01*
X015139Y000502D01*
X014997Y000449D01*
X014852Y000403D01*
X014704Y000363D01*
X014556Y000331D01*
X014405Y000306D01*
X014254Y000287D01*
X014102Y000277D01*
X013950Y000273D01*
X000250Y000273D01*
M02*
