G75*
G70*
%OFA0B0*%
%FSLAX24Y24*%
%IPPOS*%
%LPD*%
%AMOC8*
5,1,8,0,0,1.08239X$1,22.5*
%
%ADD10C,0.0110*%
%ADD11C,0.0000*%
%ADD12C,0.0030*%
%ADD13C,0.0320*%
%ADD14C,0.0060*%
%ADD15C,0.0300*%
%ADD16R,0.0550X0.0300*%
%ADD17C,0.0080*%
%ADD18R,0.0200X0.0200*%
D10*
X004006Y002605D02*
X004301Y002605D01*
X004400Y002703D01*
X004400Y002802D01*
X004301Y002900D01*
X004006Y002900D01*
X004006Y002605D02*
X004006Y003196D01*
X004301Y003196D01*
X004400Y003097D01*
X004400Y002999D01*
X004301Y002900D01*
X004650Y002605D02*
X005044Y002605D01*
X005295Y002703D02*
X005393Y002605D01*
X005590Y002605D01*
X005689Y002703D01*
X005689Y003196D01*
X005940Y003196D02*
X005940Y002605D01*
X006333Y002605D01*
X006136Y002900D02*
X005940Y002900D01*
X005940Y003196D02*
X006333Y003196D01*
X005295Y003196D02*
X005295Y002703D01*
X004650Y002605D02*
X004650Y003196D01*
X004744Y004405D02*
X004547Y004602D01*
X004646Y004602D02*
X004350Y004602D01*
X004350Y004405D02*
X004350Y004996D01*
X004646Y004996D01*
X004744Y004897D01*
X004744Y004700D01*
X004646Y004602D01*
X004995Y004700D02*
X005192Y004700D01*
X004995Y004405D02*
X005389Y004405D01*
X005640Y004405D02*
X006033Y004405D01*
X006284Y004405D02*
X006284Y004996D01*
X006678Y004405D01*
X006678Y004996D01*
X006033Y004996D02*
X005640Y004996D01*
X005640Y004405D01*
X005640Y004700D02*
X005836Y004700D01*
X005389Y004996D02*
X004995Y004996D01*
X004995Y004405D01*
X004100Y004503D02*
X004100Y004700D01*
X003903Y004700D01*
X004100Y004503D02*
X004001Y004405D01*
X003804Y004405D01*
X003706Y004503D01*
X003706Y004897D01*
X003804Y004996D01*
X004001Y004996D01*
X004100Y004897D01*
X004306Y006205D02*
X004306Y006796D01*
X004601Y006796D01*
X004700Y006697D01*
X004700Y006500D01*
X004601Y006402D01*
X004306Y006402D01*
X004503Y006402D02*
X004700Y006205D01*
X004950Y006205D02*
X005344Y006205D01*
X005595Y006205D02*
X005890Y006205D01*
X005989Y006303D01*
X005989Y006697D01*
X005890Y006796D01*
X005595Y006796D01*
X005595Y006205D01*
X005147Y006500D02*
X004950Y006500D01*
X004950Y006205D02*
X004950Y006796D01*
X005344Y006796D01*
D11*
X008851Y000250D02*
X001451Y000250D01*
X000801Y001450D02*
X000803Y001500D01*
X000809Y001550D01*
X000819Y001600D01*
X000832Y001648D01*
X000849Y001696D01*
X000870Y001742D01*
X000894Y001786D01*
X000922Y001828D01*
X000953Y001868D01*
X000987Y001905D01*
X001024Y001940D01*
X001063Y001971D01*
X001104Y002000D01*
X001148Y002025D01*
X001194Y002047D01*
X001241Y002065D01*
X001289Y002079D01*
X001338Y002090D01*
X001388Y002097D01*
X001438Y002100D01*
X001489Y002099D01*
X001539Y002094D01*
X001589Y002085D01*
X001637Y002073D01*
X001685Y002056D01*
X001731Y002036D01*
X001776Y002013D01*
X001819Y001986D01*
X001859Y001956D01*
X001897Y001923D01*
X001932Y001887D01*
X001965Y001848D01*
X001994Y001807D01*
X002020Y001764D01*
X002043Y001719D01*
X002062Y001672D01*
X002077Y001624D01*
X002089Y001575D01*
X002097Y001525D01*
X002101Y001475D01*
X002101Y001425D01*
X002097Y001375D01*
X002089Y001325D01*
X002077Y001276D01*
X002062Y001228D01*
X002043Y001181D01*
X002020Y001136D01*
X001994Y001093D01*
X001965Y001052D01*
X001932Y001013D01*
X001897Y000977D01*
X001859Y000944D01*
X001819Y000914D01*
X001776Y000887D01*
X001731Y000864D01*
X001685Y000844D01*
X001637Y000827D01*
X001589Y000815D01*
X001539Y000806D01*
X001489Y000801D01*
X001438Y000800D01*
X001388Y000803D01*
X001338Y000810D01*
X001289Y000821D01*
X001241Y000835D01*
X001194Y000853D01*
X001148Y000875D01*
X001104Y000900D01*
X001063Y000929D01*
X001024Y000960D01*
X000987Y000995D01*
X000953Y001032D01*
X000922Y001072D01*
X000894Y001114D01*
X000870Y001158D01*
X000849Y001204D01*
X000832Y001252D01*
X000819Y001300D01*
X000809Y001350D01*
X000803Y001400D01*
X000801Y001450D01*
X000251Y001450D02*
X000251Y007750D01*
X000801Y007850D02*
X000803Y007900D01*
X000809Y007950D01*
X000819Y008000D01*
X000832Y008048D01*
X000849Y008096D01*
X000870Y008142D01*
X000894Y008186D01*
X000922Y008228D01*
X000953Y008268D01*
X000987Y008305D01*
X001024Y008340D01*
X001063Y008371D01*
X001104Y008400D01*
X001148Y008425D01*
X001194Y008447D01*
X001241Y008465D01*
X001289Y008479D01*
X001338Y008490D01*
X001388Y008497D01*
X001438Y008500D01*
X001489Y008499D01*
X001539Y008494D01*
X001589Y008485D01*
X001637Y008473D01*
X001685Y008456D01*
X001731Y008436D01*
X001776Y008413D01*
X001819Y008386D01*
X001859Y008356D01*
X001897Y008323D01*
X001932Y008287D01*
X001965Y008248D01*
X001994Y008207D01*
X002020Y008164D01*
X002043Y008119D01*
X002062Y008072D01*
X002077Y008024D01*
X002089Y007975D01*
X002097Y007925D01*
X002101Y007875D01*
X002101Y007825D01*
X002097Y007775D01*
X002089Y007725D01*
X002077Y007676D01*
X002062Y007628D01*
X002043Y007581D01*
X002020Y007536D01*
X001994Y007493D01*
X001965Y007452D01*
X001932Y007413D01*
X001897Y007377D01*
X001859Y007344D01*
X001819Y007314D01*
X001776Y007287D01*
X001731Y007264D01*
X001685Y007244D01*
X001637Y007227D01*
X001589Y007215D01*
X001539Y007206D01*
X001489Y007201D01*
X001438Y007200D01*
X001388Y007203D01*
X001338Y007210D01*
X001289Y007221D01*
X001241Y007235D01*
X001194Y007253D01*
X001148Y007275D01*
X001104Y007300D01*
X001063Y007329D01*
X001024Y007360D01*
X000987Y007395D01*
X000953Y007432D01*
X000922Y007472D01*
X000894Y007514D01*
X000870Y007558D01*
X000849Y007604D01*
X000832Y007652D01*
X000819Y007700D01*
X000809Y007750D01*
X000803Y007800D01*
X000801Y007850D01*
X000251Y007750D02*
X000247Y007817D01*
X000248Y007885D01*
X000251Y007952D01*
X000259Y008020D01*
X000270Y008086D01*
X000285Y008152D01*
X000304Y008217D01*
X000327Y008281D01*
X000353Y008343D01*
X000382Y008404D01*
X000415Y008463D01*
X000451Y008520D01*
X000490Y008575D01*
X000532Y008628D01*
X000577Y008678D01*
X000625Y008726D01*
X000675Y008771D01*
X000728Y008813D01*
X000783Y008852D01*
X000840Y008888D01*
X000899Y008920D01*
X000960Y008949D01*
X001023Y008975D01*
X001087Y008998D01*
X001151Y009016D01*
X001217Y009031D01*
X001284Y009042D01*
X001351Y009050D01*
X008751Y009050D01*
X008001Y007850D02*
X008003Y007900D01*
X008009Y007950D01*
X008019Y008000D01*
X008032Y008048D01*
X008049Y008096D01*
X008070Y008142D01*
X008094Y008186D01*
X008122Y008228D01*
X008153Y008268D01*
X008187Y008305D01*
X008224Y008340D01*
X008263Y008371D01*
X008304Y008400D01*
X008348Y008425D01*
X008394Y008447D01*
X008441Y008465D01*
X008489Y008479D01*
X008538Y008490D01*
X008588Y008497D01*
X008638Y008500D01*
X008689Y008499D01*
X008739Y008494D01*
X008789Y008485D01*
X008837Y008473D01*
X008885Y008456D01*
X008931Y008436D01*
X008976Y008413D01*
X009019Y008386D01*
X009059Y008356D01*
X009097Y008323D01*
X009132Y008287D01*
X009165Y008248D01*
X009194Y008207D01*
X009220Y008164D01*
X009243Y008119D01*
X009262Y008072D01*
X009277Y008024D01*
X009289Y007975D01*
X009297Y007925D01*
X009301Y007875D01*
X009301Y007825D01*
X009297Y007775D01*
X009289Y007725D01*
X009277Y007676D01*
X009262Y007628D01*
X009243Y007581D01*
X009220Y007536D01*
X009194Y007493D01*
X009165Y007452D01*
X009132Y007413D01*
X009097Y007377D01*
X009059Y007344D01*
X009019Y007314D01*
X008976Y007287D01*
X008931Y007264D01*
X008885Y007244D01*
X008837Y007227D01*
X008789Y007215D01*
X008739Y007206D01*
X008689Y007201D01*
X008638Y007200D01*
X008588Y007203D01*
X008538Y007210D01*
X008489Y007221D01*
X008441Y007235D01*
X008394Y007253D01*
X008348Y007275D01*
X008304Y007300D01*
X008263Y007329D01*
X008224Y007360D01*
X008187Y007395D01*
X008153Y007432D01*
X008122Y007472D01*
X008094Y007514D01*
X008070Y007558D01*
X008049Y007604D01*
X008032Y007652D01*
X008019Y007700D01*
X008009Y007750D01*
X008003Y007800D01*
X008001Y007850D01*
X008751Y009050D02*
X008818Y009042D01*
X008885Y009031D01*
X008951Y009016D01*
X009015Y008998D01*
X009079Y008975D01*
X009142Y008949D01*
X009203Y008920D01*
X009262Y008888D01*
X009319Y008852D01*
X009374Y008813D01*
X009427Y008771D01*
X009477Y008726D01*
X009525Y008678D01*
X009570Y008628D01*
X009612Y008575D01*
X009651Y008520D01*
X009687Y008463D01*
X009720Y008404D01*
X009749Y008343D01*
X009775Y008281D01*
X009798Y008217D01*
X009817Y008152D01*
X009832Y008086D01*
X009843Y008020D01*
X009851Y007952D01*
X009854Y007885D01*
X009855Y007817D01*
X009851Y007750D01*
X009851Y001450D01*
X009855Y001386D01*
X009856Y001322D01*
X009852Y001257D01*
X009845Y001194D01*
X009834Y001130D01*
X009819Y001068D01*
X009801Y001006D01*
X009779Y000946D01*
X009754Y000886D01*
X009725Y000829D01*
X009693Y000773D01*
X009658Y000719D01*
X009620Y000668D01*
X009579Y000618D01*
X009535Y000571D01*
X009488Y000527D01*
X009439Y000486D01*
X009388Y000447D01*
X009334Y000411D01*
X009279Y000379D01*
X009221Y000350D01*
X009162Y000324D01*
X009102Y000302D01*
X009041Y000284D01*
X008978Y000269D01*
X008915Y000257D01*
X008851Y000250D01*
X008001Y001450D02*
X008003Y001500D01*
X008009Y001550D01*
X008019Y001600D01*
X008032Y001648D01*
X008049Y001696D01*
X008070Y001742D01*
X008094Y001786D01*
X008122Y001828D01*
X008153Y001868D01*
X008187Y001905D01*
X008224Y001940D01*
X008263Y001971D01*
X008304Y002000D01*
X008348Y002025D01*
X008394Y002047D01*
X008441Y002065D01*
X008489Y002079D01*
X008538Y002090D01*
X008588Y002097D01*
X008638Y002100D01*
X008689Y002099D01*
X008739Y002094D01*
X008789Y002085D01*
X008837Y002073D01*
X008885Y002056D01*
X008931Y002036D01*
X008976Y002013D01*
X009019Y001986D01*
X009059Y001956D01*
X009097Y001923D01*
X009132Y001887D01*
X009165Y001848D01*
X009194Y001807D01*
X009220Y001764D01*
X009243Y001719D01*
X009262Y001672D01*
X009277Y001624D01*
X009289Y001575D01*
X009297Y001525D01*
X009301Y001475D01*
X009301Y001425D01*
X009297Y001375D01*
X009289Y001325D01*
X009277Y001276D01*
X009262Y001228D01*
X009243Y001181D01*
X009220Y001136D01*
X009194Y001093D01*
X009165Y001052D01*
X009132Y001013D01*
X009097Y000977D01*
X009059Y000944D01*
X009019Y000914D01*
X008976Y000887D01*
X008931Y000864D01*
X008885Y000844D01*
X008837Y000827D01*
X008789Y000815D01*
X008739Y000806D01*
X008689Y000801D01*
X008638Y000800D01*
X008588Y000803D01*
X008538Y000810D01*
X008489Y000821D01*
X008441Y000835D01*
X008394Y000853D01*
X008348Y000875D01*
X008304Y000900D01*
X008263Y000929D01*
X008224Y000960D01*
X008187Y000995D01*
X008153Y001032D01*
X008122Y001072D01*
X008094Y001114D01*
X008070Y001158D01*
X008049Y001204D01*
X008032Y001252D01*
X008019Y001300D01*
X008009Y001350D01*
X008003Y001400D01*
X008001Y001450D01*
X001451Y000250D02*
X001384Y000252D01*
X001317Y000258D01*
X001250Y000267D01*
X001184Y000280D01*
X001119Y000297D01*
X001055Y000317D01*
X000992Y000341D01*
X000930Y000369D01*
X000871Y000400D01*
X000813Y000434D01*
X000757Y000471D01*
X000703Y000512D01*
X000651Y000555D01*
X000602Y000601D01*
X000556Y000650D01*
X000513Y000702D01*
X000472Y000756D01*
X000435Y000812D01*
X000401Y000870D01*
X000370Y000929D01*
X000342Y000991D01*
X000318Y001054D01*
X000298Y001118D01*
X000281Y001183D01*
X000268Y001249D01*
X000259Y001316D01*
X000253Y001383D01*
X000251Y001450D01*
D12*
X003146Y002565D02*
X003146Y002710D01*
X003194Y002758D01*
X003291Y002758D01*
X003339Y002710D01*
X003339Y002565D01*
X003339Y002662D02*
X003436Y002758D01*
X003388Y002860D02*
X003436Y002908D01*
X003436Y003005D01*
X003388Y003053D01*
X003339Y003053D01*
X003291Y003005D01*
X003291Y002956D01*
X003291Y003005D02*
X003242Y003053D01*
X003194Y003053D01*
X003146Y003005D01*
X003146Y002908D01*
X003194Y002860D01*
X003146Y002565D02*
X003436Y002565D01*
X003436Y004365D02*
X003146Y004365D01*
X003146Y004510D01*
X003194Y004558D01*
X003291Y004558D01*
X003339Y004510D01*
X003339Y004365D01*
X003339Y004462D02*
X003436Y004558D01*
X003436Y004660D02*
X003242Y004853D01*
X003194Y004853D01*
X003146Y004805D01*
X003146Y004708D01*
X003194Y004660D01*
X003436Y004660D02*
X003436Y004853D01*
X003436Y006165D02*
X003146Y006165D01*
X003146Y006310D01*
X003194Y006358D01*
X003291Y006358D01*
X003339Y006310D01*
X003339Y006165D01*
X003339Y006262D02*
X003436Y006358D01*
X003436Y006460D02*
X003436Y006653D01*
X003436Y006556D02*
X003146Y006556D01*
X003242Y006460D01*
D13*
X001451Y008950D02*
X001388Y008951D01*
X001324Y008948D01*
X001261Y008942D01*
X001198Y008931D01*
X001136Y008917D01*
X001075Y008899D01*
X001016Y008878D01*
X000957Y008853D01*
X000901Y008824D01*
X000846Y008792D01*
X000793Y008757D01*
X000742Y008719D01*
X000694Y008678D01*
X000648Y008634D01*
X000605Y008587D01*
X000565Y008538D01*
X000528Y008486D01*
X000495Y008432D01*
X000464Y008376D01*
X000437Y008319D01*
X000414Y008260D01*
X000394Y008200D01*
X000377Y008138D01*
X000365Y008076D01*
X000356Y008013D01*
X000351Y007950D01*
X000351Y001450D01*
X000353Y001386D01*
X000358Y001322D01*
X000368Y001259D01*
X000381Y001196D01*
X000397Y001135D01*
X000417Y001074D01*
X000441Y001014D01*
X000468Y000956D01*
X000498Y000900D01*
X000532Y000846D01*
X000569Y000793D01*
X000608Y000743D01*
X000651Y000695D01*
X000696Y000650D01*
X000744Y000607D01*
X000794Y000568D01*
X000847Y000531D01*
X000901Y000497D01*
X000957Y000467D01*
X001015Y000440D01*
X001075Y000416D01*
X001136Y000396D01*
X001197Y000380D01*
X001260Y000367D01*
X001323Y000357D01*
X001387Y000352D01*
X001451Y000350D01*
X008851Y000350D01*
X008915Y000364D01*
X008977Y000381D01*
X009039Y000401D01*
X009099Y000426D01*
X009158Y000454D01*
X009215Y000485D01*
X009270Y000519D01*
X009323Y000557D01*
X009374Y000597D01*
X009423Y000641D01*
X009468Y000687D01*
X009511Y000736D01*
X009551Y000787D01*
X009588Y000841D01*
X009622Y000896D01*
X009653Y000954D01*
X009680Y001013D01*
X009704Y001073D01*
X009724Y001135D01*
X009740Y001198D01*
X009753Y001262D01*
X009762Y001326D01*
X009767Y001391D01*
X009769Y001456D01*
X009767Y001521D01*
X009761Y001586D01*
X009751Y001650D01*
X009751Y007750D01*
X009755Y007814D01*
X009756Y007878D01*
X009752Y007943D01*
X009745Y008006D01*
X009734Y008070D01*
X009719Y008132D01*
X009701Y008194D01*
X009679Y008254D01*
X009654Y008314D01*
X009625Y008371D01*
X009593Y008427D01*
X009558Y008481D01*
X009520Y008532D01*
X009479Y008582D01*
X009435Y008629D01*
X009388Y008673D01*
X009339Y008714D01*
X009288Y008753D01*
X009234Y008789D01*
X009179Y008821D01*
X009121Y008850D01*
X009062Y008876D01*
X009002Y008898D01*
X008941Y008916D01*
X008878Y008931D01*
X008815Y008943D01*
X008751Y008950D01*
X001451Y008950D01*
D14*
X003201Y007250D02*
X003451Y007250D01*
X003501Y007200D01*
X006601Y007200D01*
X006651Y007250D01*
X006901Y007250D01*
X006924Y007248D01*
X006947Y007243D01*
X006969Y007234D01*
X006989Y007221D01*
X007007Y007206D01*
X007022Y007188D01*
X007035Y007168D01*
X007044Y007146D01*
X007049Y007123D01*
X007051Y007100D01*
X007051Y005800D01*
X007049Y005777D01*
X007044Y005754D01*
X007035Y005732D01*
X007022Y005712D01*
X007007Y005694D01*
X006989Y005679D01*
X006969Y005666D01*
X006947Y005657D01*
X006924Y005652D01*
X006901Y005650D01*
X006651Y005650D01*
X006601Y005700D01*
X003501Y005700D01*
X003451Y005650D01*
X003201Y005650D01*
X003178Y005652D01*
X003155Y005657D01*
X003133Y005666D01*
X003113Y005679D01*
X003095Y005694D01*
X003080Y005712D01*
X003067Y005732D01*
X003058Y005754D01*
X003053Y005777D01*
X003051Y005800D01*
X003051Y007100D01*
X003053Y007123D01*
X003058Y007146D01*
X003067Y007168D01*
X003080Y007188D01*
X003095Y007206D01*
X003113Y007221D01*
X003133Y007234D01*
X003155Y007243D01*
X003178Y007248D01*
X003201Y007250D01*
X003201Y005450D02*
X003451Y005450D01*
X003501Y005400D01*
X006601Y005400D01*
X006651Y005450D01*
X006901Y005450D01*
X006924Y005448D01*
X006947Y005443D01*
X006969Y005434D01*
X006989Y005421D01*
X007007Y005406D01*
X007022Y005388D01*
X007035Y005368D01*
X007044Y005346D01*
X007049Y005323D01*
X007051Y005300D01*
X007051Y004000D01*
X007049Y003977D01*
X007044Y003954D01*
X007035Y003932D01*
X007022Y003912D01*
X007007Y003894D01*
X006989Y003879D01*
X006969Y003866D01*
X006947Y003857D01*
X006924Y003852D01*
X006901Y003850D01*
X006651Y003850D01*
X006601Y003900D01*
X003501Y003900D01*
X003451Y003850D01*
X003201Y003850D01*
X003178Y003852D01*
X003155Y003857D01*
X003133Y003866D01*
X003113Y003879D01*
X003095Y003894D01*
X003080Y003912D01*
X003067Y003932D01*
X003058Y003954D01*
X003053Y003977D01*
X003051Y004000D01*
X003051Y005300D01*
X003053Y005323D01*
X003058Y005346D01*
X003067Y005368D01*
X003080Y005388D01*
X003095Y005406D01*
X003113Y005421D01*
X003133Y005434D01*
X003155Y005443D01*
X003178Y005448D01*
X003201Y005450D01*
X003201Y003650D02*
X003451Y003650D01*
X003501Y003600D01*
X006601Y003600D01*
X006651Y003650D01*
X006901Y003650D01*
X006924Y003648D01*
X006947Y003643D01*
X006969Y003634D01*
X006989Y003621D01*
X007007Y003606D01*
X007022Y003588D01*
X007035Y003568D01*
X007044Y003546D01*
X007049Y003523D01*
X007051Y003500D01*
X007051Y002200D01*
X007049Y002177D01*
X007044Y002154D01*
X007035Y002132D01*
X007022Y002112D01*
X007007Y002094D01*
X006989Y002079D01*
X006969Y002066D01*
X006947Y002057D01*
X006924Y002052D01*
X006901Y002050D01*
X006651Y002050D01*
X006601Y002100D01*
X003501Y002100D01*
X003451Y002050D01*
X003201Y002050D01*
X003178Y002052D01*
X003155Y002057D01*
X003133Y002066D01*
X003113Y002079D01*
X003095Y002094D01*
X003080Y002112D01*
X003067Y002132D01*
X003058Y002154D01*
X003053Y002177D01*
X003051Y002200D01*
X003051Y003500D01*
X003053Y003523D01*
X003058Y003546D01*
X003067Y003568D01*
X003080Y003588D01*
X003095Y003606D01*
X003113Y003621D01*
X003133Y003634D01*
X003155Y003643D01*
X003178Y003648D01*
X003201Y003650D01*
D15*
X002551Y002850D02*
X002051Y002850D01*
X002051Y004650D02*
X002551Y004650D01*
X002551Y006450D02*
X002051Y006450D01*
X007551Y006450D02*
X008051Y006450D01*
X008051Y004650D02*
X007551Y004650D01*
X007551Y002850D02*
X008051Y002850D01*
D16*
X007326Y002850D03*
X007326Y004650D03*
X007326Y006450D03*
X002776Y006450D03*
X002776Y004650D03*
X002776Y002850D03*
D17*
X001551Y002900D02*
X001551Y003400D01*
X001301Y003650D01*
X001551Y003900D01*
X001551Y004400D01*
X001301Y004650D01*
X001551Y004900D01*
X001551Y005400D01*
X001301Y005650D01*
X001551Y005900D01*
X001551Y006400D01*
X001301Y006650D01*
X000801Y006650D01*
X000551Y006400D01*
X000551Y005900D01*
X000801Y005650D01*
X000551Y005400D01*
X000551Y004900D01*
X000801Y004650D01*
X000551Y004400D01*
X000551Y003900D01*
X000801Y003650D01*
X000551Y003400D01*
X000551Y002900D01*
X000801Y002650D01*
X001301Y002650D01*
X001551Y002900D01*
X008551Y002900D02*
X008551Y003400D01*
X008801Y003650D01*
X008551Y003900D01*
X008551Y004400D01*
X008801Y004650D01*
X008551Y004900D01*
X008551Y005400D01*
X008801Y005650D01*
X008551Y005900D01*
X008551Y006400D01*
X008801Y006650D01*
X009301Y006650D01*
X009551Y006400D01*
X009551Y005900D01*
X009301Y005650D01*
X009551Y005400D01*
X009551Y004900D01*
X009301Y004650D01*
X009551Y004400D01*
X009551Y003900D01*
X009301Y003650D01*
X009551Y003400D01*
X009551Y002900D01*
X009301Y002650D01*
X008801Y002650D01*
X008551Y002900D01*
D18*
X009051Y003150D03*
X009051Y004150D03*
X009051Y005150D03*
X009051Y006150D03*
X001051Y006150D03*
X001051Y005150D03*
X001051Y004150D03*
X001051Y003150D03*
M02*
