G75*
G70*
%OFA0B0*%
%FSLAX24Y24*%
%IPPOS*%
%LPD*%
%AMOC8*
5,1,8,0,0,1.08239X$1,22.5*
%
%ADD10OC8,0.0560*%
%ADD11R,0.0740X0.0740*%
%ADD12C,0.0740*%
%ADD13C,0.0400*%
%ADD14C,0.0100*%
D10*
X002051Y002850D03*
X002051Y004650D03*
X002051Y006450D03*
X008051Y006450D03*
X008051Y004650D03*
X008051Y002850D03*
D11*
X009051Y006150D03*
X001051Y003150D03*
D12*
X001051Y004150D03*
X001051Y005150D03*
X001051Y006150D03*
X009051Y005150D03*
X009051Y004150D03*
X009051Y003150D03*
D13*
X008351Y003150D01*
X008051Y002850D01*
X008551Y004150D02*
X008051Y004650D01*
X008551Y004150D02*
X009051Y004150D01*
X009051Y005150D02*
X008651Y005150D01*
X008051Y005750D01*
X008051Y006450D01*
X002051Y006450D02*
X002051Y005950D01*
X001251Y005150D01*
X001051Y005150D01*
X001551Y004150D02*
X002051Y004650D01*
X001551Y004150D02*
X001051Y004150D01*
X001051Y003150D02*
X001751Y003150D01*
X002051Y002850D01*
D14*
X002331Y000775D02*
X002257Y000700D01*
X007845Y000700D01*
X007771Y000775D01*
X007626Y001025D01*
X007551Y001305D01*
X007551Y001595D01*
X007626Y001875D01*
X007771Y002125D01*
X007976Y002330D01*
X008166Y002440D01*
X007881Y002440D01*
X007641Y002680D01*
X007641Y003020D01*
X007881Y003260D01*
X007994Y003260D01*
X008164Y003430D01*
X008285Y003480D01*
X008674Y003480D01*
X008768Y003574D01*
X008951Y003650D01*
X009150Y003650D01*
X009334Y003574D01*
X009401Y003507D01*
X009401Y003793D01*
X009334Y003726D01*
X009150Y003650D01*
X008951Y003650D01*
X008768Y003726D01*
X008674Y003820D01*
X008485Y003820D01*
X008364Y003870D01*
X007994Y004240D01*
X007881Y004240D01*
X007641Y004480D01*
X007641Y004820D01*
X007881Y005060D01*
X008221Y005060D01*
X008461Y004820D01*
X008461Y004707D01*
X008681Y004487D01*
X008768Y004574D01*
X008951Y004650D01*
X009150Y004650D01*
X009334Y004574D01*
X009401Y004507D01*
X009401Y004793D01*
X009334Y004726D01*
X009150Y004650D01*
X008951Y004650D01*
X008768Y004726D01*
X008674Y004820D01*
X008585Y004820D01*
X008464Y004870D01*
X007864Y005470D01*
X007771Y005563D01*
X007721Y005684D01*
X007721Y006200D01*
X007641Y006280D01*
X007641Y006620D01*
X007881Y006860D01*
X008166Y006860D01*
X007976Y006970D01*
X007771Y007175D01*
X007626Y007425D01*
X007551Y007705D01*
X007551Y007995D01*
X007626Y008275D01*
X007771Y008525D01*
X007845Y008600D01*
X002257Y008600D01*
X002331Y008525D01*
X002476Y008275D01*
X002551Y007995D01*
X002551Y007705D01*
X002476Y007425D01*
X002331Y007175D01*
X002126Y006970D01*
X001936Y006860D01*
X002221Y006860D01*
X002461Y006620D01*
X002461Y006280D01*
X002381Y006200D01*
X002381Y005884D01*
X002331Y005763D01*
X002238Y005670D01*
X001503Y004936D01*
X001475Y004867D01*
X001334Y004726D01*
X001150Y004650D01*
X000951Y004650D01*
X000768Y004726D01*
X000701Y004793D01*
X000701Y004507D01*
X000768Y004574D01*
X000951Y004650D01*
X001150Y004650D01*
X001334Y004574D01*
X001421Y004487D01*
X001641Y004707D01*
X001641Y004820D01*
X001881Y005060D01*
X002221Y005060D01*
X002461Y004820D01*
X002461Y004480D01*
X002221Y004240D01*
X002108Y004240D01*
X001738Y003870D01*
X001617Y003820D01*
X001428Y003820D01*
X001334Y003726D01*
X001150Y003650D01*
X000951Y003650D01*
X000768Y003726D01*
X000701Y003793D01*
X000701Y003650D01*
X001475Y003650D01*
X001551Y003574D01*
X001551Y003480D01*
X001817Y003480D01*
X001938Y003430D01*
X002108Y003260D01*
X002221Y003260D01*
X002461Y003020D01*
X002461Y002680D01*
X002221Y002440D01*
X001936Y002440D01*
X002126Y002330D01*
X002331Y002125D01*
X002476Y001875D01*
X002551Y001595D01*
X002551Y001305D01*
X002476Y001025D01*
X002331Y000775D01*
X002299Y000743D02*
X007803Y000743D01*
X007732Y000841D02*
X002369Y000841D01*
X002426Y000940D02*
X007675Y000940D01*
X007623Y001038D02*
X002479Y001038D01*
X002506Y001137D02*
X007596Y001137D01*
X007570Y001235D02*
X002532Y001235D01*
X002551Y001334D02*
X007551Y001334D01*
X007551Y001432D02*
X002551Y001432D01*
X002551Y001531D02*
X007551Y001531D01*
X007560Y001629D02*
X002542Y001629D01*
X002515Y001728D02*
X007586Y001728D01*
X007613Y001826D02*
X002489Y001826D01*
X002447Y001925D02*
X007655Y001925D01*
X007712Y002023D02*
X002390Y002023D01*
X002333Y002122D02*
X007768Y002122D01*
X007865Y002220D02*
X002237Y002220D01*
X002138Y002319D02*
X007964Y002319D01*
X008126Y002417D02*
X001976Y002417D01*
X001835Y002486D02*
X001596Y002550D01*
X001306Y002550D01*
X001026Y002475D01*
X000776Y002330D01*
X000701Y002256D01*
X000701Y002650D01*
X001475Y002650D01*
X001551Y002726D01*
X001551Y002820D01*
X001614Y002820D01*
X001641Y002793D01*
X001641Y002680D01*
X001835Y002486D01*
X001806Y002516D02*
X001724Y002516D01*
X001707Y002614D02*
X000701Y002614D01*
X000701Y002516D02*
X001177Y002516D01*
X000926Y002417D02*
X000701Y002417D01*
X000701Y002319D02*
X000764Y002319D01*
X001537Y002713D02*
X001641Y002713D01*
X001623Y002811D02*
X001551Y002811D01*
X002064Y003304D02*
X008038Y003304D01*
X008136Y003402D02*
X001966Y003402D01*
X002276Y003205D02*
X007826Y003205D01*
X007728Y003107D02*
X002374Y003107D01*
X002461Y003008D02*
X007641Y003008D01*
X007641Y002910D02*
X002461Y002910D01*
X002461Y002811D02*
X007641Y002811D01*
X007641Y002713D02*
X002461Y002713D01*
X002395Y002614D02*
X007707Y002614D01*
X007806Y002516D02*
X002296Y002516D01*
X001551Y003501D02*
X008694Y003501D01*
X008828Y003599D02*
X001526Y003599D01*
X001404Y003796D02*
X008698Y003796D01*
X008837Y003698D02*
X001265Y003698D01*
X000837Y003698D02*
X000701Y003698D01*
X000701Y004584D02*
X000792Y004584D01*
X000873Y004683D02*
X000701Y004683D01*
X000701Y004781D02*
X000713Y004781D01*
X001229Y004683D02*
X001617Y004683D01*
X001641Y004781D02*
X001389Y004781D01*
X001480Y004880D02*
X001701Y004880D01*
X001799Y004978D02*
X001546Y004978D01*
X001644Y005077D02*
X008258Y005077D01*
X008303Y004978D02*
X008356Y004978D01*
X008401Y004880D02*
X008455Y004880D01*
X008461Y004781D02*
X008713Y004781D01*
X008873Y004683D02*
X008485Y004683D01*
X008584Y004584D02*
X008792Y004584D01*
X009229Y004683D02*
X009401Y004683D01*
X009389Y004781D02*
X009401Y004781D01*
X009401Y004584D02*
X009310Y004584D01*
X009265Y003698D02*
X009401Y003698D01*
X009401Y003599D02*
X009273Y003599D01*
X009401Y002793D02*
X009401Y002256D01*
X009326Y002330D01*
X009076Y002475D01*
X008796Y002550D01*
X008506Y002550D01*
X008267Y002486D01*
X008461Y002680D01*
X008461Y002793D01*
X008488Y002820D01*
X008674Y002820D01*
X008768Y002726D01*
X008951Y002650D01*
X009150Y002650D01*
X009334Y002726D01*
X009401Y002793D01*
X009401Y002713D02*
X009301Y002713D01*
X009401Y002614D02*
X008395Y002614D01*
X008377Y002516D02*
X008296Y002516D01*
X008461Y002713D02*
X008801Y002713D01*
X008683Y002811D02*
X008479Y002811D01*
X008924Y002516D02*
X009401Y002516D01*
X009401Y002417D02*
X009176Y002417D01*
X009338Y002319D02*
X009401Y002319D01*
X008340Y003895D02*
X001762Y003895D01*
X001861Y003993D02*
X008241Y003993D01*
X008143Y004092D02*
X001959Y004092D01*
X002058Y004190D02*
X008044Y004190D01*
X007833Y004289D02*
X002269Y004289D01*
X002368Y004387D02*
X007734Y004387D01*
X007641Y004486D02*
X002461Y004486D01*
X002461Y004584D02*
X007641Y004584D01*
X007641Y004683D02*
X002461Y004683D01*
X002461Y004781D02*
X007641Y004781D01*
X007701Y004880D02*
X002401Y004880D01*
X002303Y004978D02*
X007799Y004978D01*
X008061Y005274D02*
X001841Y005274D01*
X001940Y005372D02*
X007962Y005372D01*
X007864Y005471D02*
X002038Y005471D01*
X002137Y005569D02*
X007769Y005569D01*
X007728Y005668D02*
X002235Y005668D01*
X002332Y005766D02*
X007721Y005766D01*
X007721Y005865D02*
X002373Y005865D01*
X002381Y005963D02*
X007721Y005963D01*
X007721Y006062D02*
X002381Y006062D01*
X002381Y006160D02*
X007721Y006160D01*
X007663Y006259D02*
X002439Y006259D01*
X002461Y006357D02*
X007641Y006357D01*
X007641Y006456D02*
X002461Y006456D01*
X002461Y006554D02*
X007641Y006554D01*
X007674Y006653D02*
X002428Y006653D01*
X002330Y006751D02*
X007772Y006751D01*
X007871Y006850D02*
X002231Y006850D01*
X002089Y006948D02*
X008013Y006948D01*
X007899Y007047D02*
X002203Y007047D01*
X002302Y007145D02*
X007800Y007145D01*
X007731Y007244D02*
X002371Y007244D01*
X002428Y007342D02*
X007674Y007342D01*
X007622Y007441D02*
X002480Y007441D01*
X002506Y007539D02*
X007595Y007539D01*
X007569Y007638D02*
X002533Y007638D01*
X002551Y007736D02*
X007551Y007736D01*
X007551Y007835D02*
X002551Y007835D01*
X002551Y007933D02*
X007551Y007933D01*
X007561Y008032D02*
X002541Y008032D01*
X002515Y008130D02*
X007587Y008130D01*
X007614Y008229D02*
X002488Y008229D01*
X002446Y008327D02*
X007656Y008327D01*
X007713Y008426D02*
X002389Y008426D01*
X002332Y008524D02*
X007770Y008524D01*
X009326Y006970D02*
X009401Y007044D01*
X009401Y006650D01*
X008627Y006650D01*
X008551Y006574D01*
X008551Y005726D01*
X008627Y005650D01*
X009401Y005650D01*
X009401Y005507D01*
X009334Y005574D01*
X009150Y005650D01*
X008951Y005650D01*
X008768Y005574D01*
X008731Y005537D01*
X008381Y005887D01*
X008381Y006200D01*
X008461Y006280D01*
X008461Y006620D01*
X008267Y006814D01*
X008506Y006750D01*
X008796Y006750D01*
X009076Y006825D01*
X009326Y006970D01*
X009289Y006948D02*
X009401Y006948D01*
X009401Y006850D02*
X009118Y006850D01*
X009401Y006751D02*
X008800Y006751D01*
X008502Y006751D02*
X008330Y006751D01*
X008428Y006653D02*
X009401Y006653D01*
X008551Y006554D02*
X008461Y006554D01*
X008461Y006456D02*
X008551Y006456D01*
X008551Y006357D02*
X008461Y006357D01*
X008439Y006259D02*
X008551Y006259D01*
X008551Y006160D02*
X008381Y006160D01*
X008381Y006062D02*
X008551Y006062D01*
X008551Y005963D02*
X008381Y005963D01*
X008403Y005865D02*
X008551Y005865D01*
X008551Y005766D02*
X008502Y005766D01*
X008600Y005668D02*
X008610Y005668D01*
X008699Y005569D02*
X008763Y005569D01*
X009339Y005569D02*
X009401Y005569D01*
X008159Y005175D02*
X001743Y005175D01*
X001302Y005668D02*
X001193Y005668D01*
X001150Y005650D02*
X001334Y005726D01*
X001475Y005867D01*
X001551Y006051D01*
X001551Y006249D01*
X001475Y006433D01*
X001334Y006574D01*
X001150Y006650D01*
X000951Y006650D01*
X000768Y006574D01*
X000701Y006507D01*
X000701Y007044D01*
X000776Y006970D01*
X001026Y006825D01*
X001306Y006750D01*
X001596Y006750D01*
X001835Y006814D01*
X001641Y006620D01*
X001641Y006280D01*
X001721Y006200D01*
X001721Y006087D01*
X001245Y005611D01*
X001150Y005650D01*
X000951Y005650D01*
X000768Y005726D01*
X000701Y005793D01*
X000701Y005507D01*
X000768Y005574D01*
X000951Y005650D01*
X001150Y005650D01*
X001374Y005766D02*
X001400Y005766D01*
X001473Y005865D02*
X001499Y005865D01*
X001515Y005963D02*
X001597Y005963D01*
X001551Y006062D02*
X001696Y006062D01*
X001721Y006160D02*
X001551Y006160D01*
X001547Y006259D02*
X001663Y006259D01*
X001641Y006357D02*
X001506Y006357D01*
X001453Y006456D02*
X001641Y006456D01*
X001641Y006554D02*
X001354Y006554D01*
X001302Y006751D02*
X000701Y006751D01*
X000701Y006653D02*
X001674Y006653D01*
X001600Y006751D02*
X001772Y006751D01*
X000984Y006850D02*
X000701Y006850D01*
X000701Y006948D02*
X000813Y006948D01*
X000748Y006554D02*
X000701Y006554D01*
X000701Y005766D02*
X000728Y005766D01*
X000701Y005668D02*
X000909Y005668D01*
X000763Y005569D02*
X000701Y005569D01*
X001310Y004584D02*
X001518Y004584D01*
M02*
