G75*
G70*
%OFA0B0*%
%FSLAX24Y24*%
%IPPOS*%
%LPD*%
%AMOC8*
5,1,8,0,0,1.08239X$1,22.5*
%
%ADD10C,0.0000*%
%ADD11C,0.0170*%
%ADD12C,0.0050*%
%ADD13C,0.0160*%
D10*
X001451Y000250D02*
X008851Y000250D01*
X008915Y000257D01*
X008978Y000269D01*
X009041Y000284D01*
X009102Y000302D01*
X009162Y000324D01*
X009221Y000350D01*
X009279Y000379D01*
X009334Y000411D01*
X009388Y000447D01*
X009439Y000486D01*
X009488Y000527D01*
X009535Y000571D01*
X009579Y000618D01*
X009620Y000668D01*
X009658Y000719D01*
X009693Y000773D01*
X009725Y000829D01*
X009754Y000886D01*
X009779Y000946D01*
X009801Y001006D01*
X009819Y001068D01*
X009834Y001130D01*
X009845Y001194D01*
X009852Y001257D01*
X009856Y001322D01*
X009855Y001386D01*
X009851Y001450D01*
X009851Y007750D01*
X008001Y007850D02*
X008003Y007900D01*
X008009Y007950D01*
X008019Y008000D01*
X008032Y008048D01*
X008049Y008096D01*
X008070Y008142D01*
X008094Y008186D01*
X008122Y008228D01*
X008153Y008268D01*
X008187Y008305D01*
X008224Y008340D01*
X008263Y008371D01*
X008304Y008400D01*
X008348Y008425D01*
X008394Y008447D01*
X008441Y008465D01*
X008489Y008479D01*
X008538Y008490D01*
X008588Y008497D01*
X008638Y008500D01*
X008689Y008499D01*
X008739Y008494D01*
X008789Y008485D01*
X008837Y008473D01*
X008885Y008456D01*
X008931Y008436D01*
X008976Y008413D01*
X009019Y008386D01*
X009059Y008356D01*
X009097Y008323D01*
X009132Y008287D01*
X009165Y008248D01*
X009194Y008207D01*
X009220Y008164D01*
X009243Y008119D01*
X009262Y008072D01*
X009277Y008024D01*
X009289Y007975D01*
X009297Y007925D01*
X009301Y007875D01*
X009301Y007825D01*
X009297Y007775D01*
X009289Y007725D01*
X009277Y007676D01*
X009262Y007628D01*
X009243Y007581D01*
X009220Y007536D01*
X009194Y007493D01*
X009165Y007452D01*
X009132Y007413D01*
X009097Y007377D01*
X009059Y007344D01*
X009019Y007314D01*
X008976Y007287D01*
X008931Y007264D01*
X008885Y007244D01*
X008837Y007227D01*
X008789Y007215D01*
X008739Y007206D01*
X008689Y007201D01*
X008638Y007200D01*
X008588Y007203D01*
X008538Y007210D01*
X008489Y007221D01*
X008441Y007235D01*
X008394Y007253D01*
X008348Y007275D01*
X008304Y007300D01*
X008263Y007329D01*
X008224Y007360D01*
X008187Y007395D01*
X008153Y007432D01*
X008122Y007472D01*
X008094Y007514D01*
X008070Y007558D01*
X008049Y007604D01*
X008032Y007652D01*
X008019Y007700D01*
X008009Y007750D01*
X008003Y007800D01*
X008001Y007850D01*
X008751Y009050D02*
X008818Y009042D01*
X008885Y009031D01*
X008951Y009016D01*
X009015Y008998D01*
X009079Y008975D01*
X009142Y008949D01*
X009203Y008920D01*
X009262Y008888D01*
X009319Y008852D01*
X009374Y008813D01*
X009427Y008771D01*
X009477Y008726D01*
X009525Y008678D01*
X009570Y008628D01*
X009612Y008575D01*
X009651Y008520D01*
X009687Y008463D01*
X009720Y008404D01*
X009749Y008343D01*
X009775Y008281D01*
X009798Y008217D01*
X009817Y008152D01*
X009832Y008086D01*
X009843Y008020D01*
X009851Y007952D01*
X009854Y007885D01*
X009855Y007817D01*
X009851Y007750D01*
X008751Y009050D02*
X001351Y009050D01*
X000801Y007850D02*
X000803Y007900D01*
X000809Y007950D01*
X000819Y008000D01*
X000832Y008048D01*
X000849Y008096D01*
X000870Y008142D01*
X000894Y008186D01*
X000922Y008228D01*
X000953Y008268D01*
X000987Y008305D01*
X001024Y008340D01*
X001063Y008371D01*
X001104Y008400D01*
X001148Y008425D01*
X001194Y008447D01*
X001241Y008465D01*
X001289Y008479D01*
X001338Y008490D01*
X001388Y008497D01*
X001438Y008500D01*
X001489Y008499D01*
X001539Y008494D01*
X001589Y008485D01*
X001637Y008473D01*
X001685Y008456D01*
X001731Y008436D01*
X001776Y008413D01*
X001819Y008386D01*
X001859Y008356D01*
X001897Y008323D01*
X001932Y008287D01*
X001965Y008248D01*
X001994Y008207D01*
X002020Y008164D01*
X002043Y008119D01*
X002062Y008072D01*
X002077Y008024D01*
X002089Y007975D01*
X002097Y007925D01*
X002101Y007875D01*
X002101Y007825D01*
X002097Y007775D01*
X002089Y007725D01*
X002077Y007676D01*
X002062Y007628D01*
X002043Y007581D01*
X002020Y007536D01*
X001994Y007493D01*
X001965Y007452D01*
X001932Y007413D01*
X001897Y007377D01*
X001859Y007344D01*
X001819Y007314D01*
X001776Y007287D01*
X001731Y007264D01*
X001685Y007244D01*
X001637Y007227D01*
X001589Y007215D01*
X001539Y007206D01*
X001489Y007201D01*
X001438Y007200D01*
X001388Y007203D01*
X001338Y007210D01*
X001289Y007221D01*
X001241Y007235D01*
X001194Y007253D01*
X001148Y007275D01*
X001104Y007300D01*
X001063Y007329D01*
X001024Y007360D01*
X000987Y007395D01*
X000953Y007432D01*
X000922Y007472D01*
X000894Y007514D01*
X000870Y007558D01*
X000849Y007604D01*
X000832Y007652D01*
X000819Y007700D01*
X000809Y007750D01*
X000803Y007800D01*
X000801Y007850D01*
X000251Y007750D02*
X000251Y001450D01*
X000801Y001450D02*
X000803Y001500D01*
X000809Y001550D01*
X000819Y001600D01*
X000832Y001648D01*
X000849Y001696D01*
X000870Y001742D01*
X000894Y001786D01*
X000922Y001828D01*
X000953Y001868D01*
X000987Y001905D01*
X001024Y001940D01*
X001063Y001971D01*
X001104Y002000D01*
X001148Y002025D01*
X001194Y002047D01*
X001241Y002065D01*
X001289Y002079D01*
X001338Y002090D01*
X001388Y002097D01*
X001438Y002100D01*
X001489Y002099D01*
X001539Y002094D01*
X001589Y002085D01*
X001637Y002073D01*
X001685Y002056D01*
X001731Y002036D01*
X001776Y002013D01*
X001819Y001986D01*
X001859Y001956D01*
X001897Y001923D01*
X001932Y001887D01*
X001965Y001848D01*
X001994Y001807D01*
X002020Y001764D01*
X002043Y001719D01*
X002062Y001672D01*
X002077Y001624D01*
X002089Y001575D01*
X002097Y001525D01*
X002101Y001475D01*
X002101Y001425D01*
X002097Y001375D01*
X002089Y001325D01*
X002077Y001276D01*
X002062Y001228D01*
X002043Y001181D01*
X002020Y001136D01*
X001994Y001093D01*
X001965Y001052D01*
X001932Y001013D01*
X001897Y000977D01*
X001859Y000944D01*
X001819Y000914D01*
X001776Y000887D01*
X001731Y000864D01*
X001685Y000844D01*
X001637Y000827D01*
X001589Y000815D01*
X001539Y000806D01*
X001489Y000801D01*
X001438Y000800D01*
X001388Y000803D01*
X001338Y000810D01*
X001289Y000821D01*
X001241Y000835D01*
X001194Y000853D01*
X001148Y000875D01*
X001104Y000900D01*
X001063Y000929D01*
X001024Y000960D01*
X000987Y000995D01*
X000953Y001032D01*
X000922Y001072D01*
X000894Y001114D01*
X000870Y001158D01*
X000849Y001204D01*
X000832Y001252D01*
X000819Y001300D01*
X000809Y001350D01*
X000803Y001400D01*
X000801Y001450D01*
X000251Y001450D02*
X000253Y001383D01*
X000259Y001316D01*
X000268Y001249D01*
X000281Y001183D01*
X000298Y001118D01*
X000318Y001054D01*
X000342Y000991D01*
X000370Y000929D01*
X000401Y000870D01*
X000435Y000812D01*
X000472Y000756D01*
X000513Y000702D01*
X000556Y000650D01*
X000602Y000601D01*
X000651Y000555D01*
X000703Y000512D01*
X000757Y000471D01*
X000813Y000434D01*
X000871Y000400D01*
X000930Y000369D01*
X000992Y000341D01*
X001055Y000317D01*
X001119Y000297D01*
X001184Y000280D01*
X001250Y000267D01*
X001317Y000258D01*
X001384Y000252D01*
X001451Y000250D01*
X008001Y001450D02*
X008003Y001500D01*
X008009Y001550D01*
X008019Y001600D01*
X008032Y001648D01*
X008049Y001696D01*
X008070Y001742D01*
X008094Y001786D01*
X008122Y001828D01*
X008153Y001868D01*
X008187Y001905D01*
X008224Y001940D01*
X008263Y001971D01*
X008304Y002000D01*
X008348Y002025D01*
X008394Y002047D01*
X008441Y002065D01*
X008489Y002079D01*
X008538Y002090D01*
X008588Y002097D01*
X008638Y002100D01*
X008689Y002099D01*
X008739Y002094D01*
X008789Y002085D01*
X008837Y002073D01*
X008885Y002056D01*
X008931Y002036D01*
X008976Y002013D01*
X009019Y001986D01*
X009059Y001956D01*
X009097Y001923D01*
X009132Y001887D01*
X009165Y001848D01*
X009194Y001807D01*
X009220Y001764D01*
X009243Y001719D01*
X009262Y001672D01*
X009277Y001624D01*
X009289Y001575D01*
X009297Y001525D01*
X009301Y001475D01*
X009301Y001425D01*
X009297Y001375D01*
X009289Y001325D01*
X009277Y001276D01*
X009262Y001228D01*
X009243Y001181D01*
X009220Y001136D01*
X009194Y001093D01*
X009165Y001052D01*
X009132Y001013D01*
X009097Y000977D01*
X009059Y000944D01*
X009019Y000914D01*
X008976Y000887D01*
X008931Y000864D01*
X008885Y000844D01*
X008837Y000827D01*
X008789Y000815D01*
X008739Y000806D01*
X008689Y000801D01*
X008638Y000800D01*
X008588Y000803D01*
X008538Y000810D01*
X008489Y000821D01*
X008441Y000835D01*
X008394Y000853D01*
X008348Y000875D01*
X008304Y000900D01*
X008263Y000929D01*
X008224Y000960D01*
X008187Y000995D01*
X008153Y001032D01*
X008122Y001072D01*
X008094Y001114D01*
X008070Y001158D01*
X008049Y001204D01*
X008032Y001252D01*
X008019Y001300D01*
X008009Y001350D01*
X008003Y001400D01*
X008001Y001450D01*
X000251Y007750D02*
X000247Y007817D01*
X000248Y007885D01*
X000251Y007952D01*
X000259Y008020D01*
X000270Y008086D01*
X000285Y008152D01*
X000304Y008217D01*
X000327Y008281D01*
X000353Y008343D01*
X000382Y008404D01*
X000415Y008463D01*
X000451Y008520D01*
X000490Y008575D01*
X000532Y008628D01*
X000577Y008678D01*
X000625Y008726D01*
X000675Y008771D01*
X000728Y008813D01*
X000783Y008852D01*
X000840Y008888D01*
X000899Y008920D01*
X000960Y008949D01*
X001023Y008975D01*
X001087Y008998D01*
X001151Y009016D01*
X001217Y009031D01*
X001284Y009042D01*
X001351Y009050D01*
D11*
X001850Y005926D02*
X002195Y005926D01*
X002195Y005235D01*
X001850Y005235D01*
X001734Y005350D01*
X001734Y005810D01*
X001850Y005926D01*
X002526Y005810D02*
X002526Y005580D01*
X002641Y005465D01*
X002987Y005465D01*
X002987Y005235D02*
X002987Y005926D01*
X002641Y005926D01*
X002526Y005810D01*
X002757Y005465D02*
X002526Y005235D01*
X003318Y005235D02*
X003318Y005695D01*
X003548Y005926D01*
X003779Y005695D01*
X003779Y005235D01*
X004110Y005350D02*
X004110Y005810D01*
X004225Y005926D01*
X004455Y005926D01*
X004571Y005810D01*
X004571Y005350D01*
X004455Y005235D01*
X004225Y005235D01*
X004110Y005350D01*
X003779Y005580D02*
X003318Y005580D01*
X004902Y005465D02*
X004902Y005350D01*
X005017Y005235D01*
X005362Y005235D01*
X005362Y005926D01*
X005017Y005926D01*
X004902Y005810D01*
X004902Y005695D01*
X005017Y005580D01*
X005362Y005580D01*
X005660Y005926D02*
X005890Y005926D01*
X005775Y005926D02*
X005775Y005235D01*
X005890Y005235D02*
X005660Y005235D01*
X006222Y005235D02*
X006222Y005926D01*
X006452Y005695D01*
X006682Y005926D01*
X006682Y005235D01*
X007014Y005350D02*
X007014Y005926D01*
X007474Y005926D02*
X007474Y005350D01*
X007359Y005235D01*
X007129Y005235D01*
X007014Y005350D01*
X007806Y005235D02*
X008266Y005235D01*
X008266Y005926D01*
X005017Y005580D02*
X004902Y005465D01*
D12*
X004848Y003855D02*
X004942Y003855D01*
X004989Y003809D01*
X004989Y003762D01*
X004942Y003715D01*
X004848Y003715D01*
X004802Y003668D01*
X004802Y003622D01*
X004848Y003575D01*
X004942Y003575D01*
X004989Y003622D01*
X005098Y003575D02*
X005191Y003575D01*
X005144Y003575D02*
X005144Y003855D01*
X005098Y003855D02*
X005191Y003855D01*
X005308Y003809D02*
X005355Y003855D01*
X005448Y003855D01*
X005495Y003809D01*
X005495Y003762D01*
X005448Y003715D01*
X005355Y003715D01*
X005308Y003668D01*
X005308Y003622D01*
X005355Y003575D01*
X005448Y003575D01*
X005495Y003622D01*
X005612Y003575D02*
X005799Y003575D01*
X005799Y003855D01*
X005612Y003855D01*
X005705Y003715D02*
X005799Y003715D01*
X005916Y003715D02*
X005916Y003809D01*
X005963Y003855D01*
X006103Y003855D01*
X006103Y003575D01*
X006103Y003668D02*
X005963Y003668D01*
X005916Y003715D01*
X006009Y003668D02*
X005916Y003575D01*
X006524Y003575D02*
X006617Y003668D01*
X006570Y003668D02*
X006710Y003668D01*
X006710Y003575D02*
X006710Y003855D01*
X006570Y003855D01*
X006524Y003809D01*
X006524Y003715D01*
X006570Y003668D01*
X006828Y003575D02*
X007014Y003575D01*
X007014Y003855D01*
X006828Y003855D01*
X006921Y003715D02*
X007014Y003715D01*
X007131Y003575D02*
X007131Y003855D01*
X007318Y003855D02*
X007318Y003575D01*
X007225Y003668D01*
X007131Y003575D01*
X007435Y003622D02*
X007435Y003809D01*
X007482Y003855D01*
X007575Y003855D01*
X007622Y003809D01*
X007622Y003622D01*
X007575Y003575D01*
X007482Y003575D01*
X007435Y003622D01*
X007739Y003715D02*
X007786Y003668D01*
X007926Y003668D01*
X007926Y003575D02*
X007926Y003855D01*
X007786Y003855D01*
X007739Y003809D01*
X007739Y003715D01*
X004848Y003855D02*
X004802Y003809D01*
X004685Y003855D02*
X004498Y003855D01*
X004591Y003855D02*
X004591Y003575D01*
X004381Y003622D02*
X004381Y003809D01*
X004334Y003855D01*
X004241Y003855D01*
X004194Y003809D01*
X004194Y003622D01*
X004241Y003575D01*
X004334Y003575D01*
X004381Y003622D01*
X004077Y003668D02*
X003937Y003668D01*
X003890Y003715D01*
X003890Y003809D01*
X003937Y003855D01*
X004077Y003855D01*
X004077Y003575D01*
X003984Y003668D02*
X003890Y003575D01*
X003469Y003575D02*
X003329Y003575D01*
X003282Y003622D01*
X003282Y003668D01*
X003329Y003715D01*
X003469Y003715D01*
X003469Y003575D02*
X003469Y003855D01*
X003329Y003855D01*
X003282Y003809D01*
X003282Y003762D01*
X003329Y003715D01*
X003165Y003622D02*
X003119Y003575D01*
X003025Y003575D01*
X002979Y003622D01*
X002979Y003809D01*
X003025Y003855D01*
X003119Y003855D01*
X003165Y003809D01*
X003165Y003622D01*
X002862Y003575D02*
X002862Y003762D01*
X002768Y003855D01*
X002675Y003762D01*
X002675Y003575D01*
X002558Y003575D02*
X002558Y003855D01*
X002418Y003855D01*
X002371Y003809D01*
X002371Y003715D01*
X002418Y003668D01*
X002558Y003668D01*
X002464Y003668D02*
X002371Y003575D01*
X002254Y003575D02*
X002114Y003575D01*
X002067Y003622D01*
X002067Y003809D01*
X002114Y003855D01*
X002254Y003855D01*
X002254Y003575D01*
X002675Y003715D02*
X002862Y003715D01*
D13*
X001351Y000350D02*
X008851Y000350D01*
X008911Y000358D01*
X008971Y000369D01*
X009030Y000384D01*
X009087Y000403D01*
X009144Y000425D01*
X009199Y000450D01*
X009253Y000479D01*
X009304Y000511D01*
X009354Y000546D01*
X009401Y000584D01*
X009446Y000624D01*
X009489Y000668D01*
X009529Y000714D01*
X009566Y000762D01*
X009600Y000812D01*
X009631Y000864D01*
X009659Y000918D01*
X009683Y000974D01*
X009704Y001031D01*
X009721Y001089D01*
X009735Y001148D01*
X009746Y001208D01*
X009753Y001268D01*
X009756Y001329D01*
X009755Y001389D01*
X009751Y001450D01*
X009751Y007650D01*
X009758Y007715D01*
X009761Y007780D01*
X009760Y007845D01*
X009756Y007910D01*
X009748Y007974D01*
X009736Y008038D01*
X009721Y008102D01*
X009702Y008164D01*
X009680Y008225D01*
X009655Y008285D01*
X009626Y008343D01*
X009594Y008400D01*
X009559Y008455D01*
X009520Y008507D01*
X009479Y008558D01*
X009435Y008606D01*
X009389Y008651D01*
X009340Y008694D01*
X009289Y008734D01*
X009235Y008771D01*
X009180Y008805D01*
X009123Y008836D01*
X009064Y008864D01*
X009003Y008888D01*
X008942Y008909D01*
X008879Y008926D01*
X008815Y008940D01*
X008751Y008950D01*
X001451Y008950D01*
X001387Y008948D01*
X001323Y008943D01*
X001260Y008933D01*
X001197Y008920D01*
X001136Y008904D01*
X001075Y008884D01*
X001015Y008860D01*
X000957Y008833D01*
X000901Y008803D01*
X000847Y008769D01*
X000794Y008732D01*
X000744Y008693D01*
X000696Y008650D01*
X000651Y008605D01*
X000608Y008557D01*
X000569Y008507D01*
X000532Y008454D01*
X000498Y008400D01*
X000468Y008344D01*
X000441Y008286D01*
X000417Y008226D01*
X000397Y008165D01*
X000381Y008104D01*
X000368Y008041D01*
X000358Y007978D01*
X000353Y007914D01*
X000351Y007850D01*
X000351Y001350D01*
X000353Y001290D01*
X000358Y001229D01*
X000367Y001170D01*
X000380Y001111D01*
X000396Y001052D01*
X000416Y000995D01*
X000439Y000940D01*
X000466Y000885D01*
X000495Y000833D01*
X000528Y000782D01*
X000564Y000733D01*
X000602Y000687D01*
X000644Y000643D01*
X000688Y000601D01*
X000734Y000563D01*
X000783Y000527D01*
X000834Y000494D01*
X000886Y000465D01*
X000941Y000438D01*
X000996Y000415D01*
X001053Y000395D01*
X001112Y000379D01*
X001171Y000366D01*
X001230Y000357D01*
X001291Y000352D01*
X001351Y000350D01*
M02*
